<svg width="235" height="234" xmlns="http://www.w3.org/2000/svg" xmlns:xlink="http://www.w3.org/1999/xlink" xml:space="preserve" overflow="hidden"><defs><radialGradient cx="325582" cy="324196" r="459463" gradientUnits="userSpaceOnUse" spreadMethod="pad" id="fill0" gradientTransform="matrix(0.000360892 0 0 0.000360892 464 344)"><stop offset="0" stop-color="#FFFFFF" stop-opacity="0.501961"/><stop offset="0.02" stop-color="#FFFFFF" stop-opacity="0.501961"/><stop offset="0.53" stop-color="#FFFFFF" stop-opacity="0"/><stop offset="1" stop-color="#FFFFFF" stop-opacity="0"/></radialGradient></defs><g transform="translate(-464 -344)"><path d="M464 461C464 396.383 516.607 344 581.5 344 646.393 344 699 396.383 699 461 699 525.617 646.393 578 581.5 578 516.607 578 464 525.617 464 461Z" fill="url(#fill0)" fill-rule="evenodd"/><path d="M516 434 517.715 435.238C535.78 445.911 557.558 452.144 581 452.144 604.443 452.144 626.221 445.911 644.286 435.238L646 434.001 581 512Z" stroke="#000000" stroke-width="59.5833" stroke-linecap="round" stroke-linejoin="round" stroke-miterlimit="10" stroke-opacity="0.101961" fill="#FFFFFF" fill-rule="evenodd"/><path d="M516 434 517.715 435.238C535.78 445.911 557.558 452.144 581 452.144 604.443 452.144 626.221 445.911 644.286 435.238L646 434.001 581 512Z" stroke="#FFFFFF" stroke-width="27.5" stroke-linecap="round" stroke-linejoin="round" stroke-miterlimit="10" fill="#FFFFFF" fill-rule="evenodd"/></g></svg>