<svg width="3514" height="788" xmlns="http://www.w3.org/2000/svg" xmlns:xlink="http://www.w3.org/1999/xlink" xml:space="preserve" overflow="hidden"><defs><linearGradient x1="2202.5" y1="1799.5" x2="2202.5" y2="2459.5" gradientUnits="userSpaceOnUse" spreadMethod="reflect" id="fill0"><stop offset="0" stop-color="#FFFFFF" stop-opacity="0.901961"/><stop offset="0.01" stop-color="#FFFFFF" stop-opacity="0.901961"/><stop offset="0.99" stop-color="#FFFFFF"/><stop offset="1" stop-color="#FFFFFF"/></linearGradient></defs><g transform="translate(-443 -1687)"><rect x="443" y="1687" width="3514" height="788" fill="#FFFFFF" fill-opacity="0"/><path d="M2655.17 1916.5C2639.21 1901.96 2593.48 1865.14 2581.81 1855.34L2636.69 1831.88C2683.78 1816.19 2735.56 1807.52 2789.9 1807.52 2844.25 1807.52 2896.02 1816.19 2943.11 1831.88L2968.35 1842.67 2942.05 1861.58C2913.64 1886.55 2897.04 1916.64 2897.04 1949.03L2899.18 1961.63 2902.4 1942.72C2926.97 1871.45 3033.23 1817.83 3160.59 1817.83 3287.96 1817.83 3394.22 1871.45 3418.79 1942.72L3422.01 1961.64 3424.15 1949.03C3424.15 1927.44 3416.77 1906.86 3403.44 1888.15L3384.12 1867.03 3395.41 1867.73C3576.93 1889.72 3662.4 1981.57 3664.47 2150.67 3665.66 2247.31 3629.73 2320.17 3567.37 2368.46L3519.97 2397.51 3465.83 2416.47C3419.03 2428.6 3366.5 2434.29 3309.69 2433.43 3281.29 2433 3253.99 2430.6 3227.97 2426.41L3155.24 2408.93 3145.07 2404.44 3140.51 2406.57C3053.19 2439.99 2947.91 2459.5 2834.59 2459.5 2721.27 2459.5 2616 2439.99 2528.67 2406.57L2523.33 2404.07 2522.88 2404.27C2435.56 2437.69 2330.28 2457.21 2216.96 2457.21 2141.42 2457.21 2069.45 2448.54 2003.99 2432.85L1914.48 2405.33 1867.17 2417.49 1844.4 2422.54C1778.94 2438.22 1706.97 2446.9 1631.42 2446.9 1536.99 2446.9 1448.14 2433.34 1370.61 2409.49L1333.7 2396.44 1322.05 2402.87C1285.12 2420.56 1241.85 2433.49 1192.03 2440.6L1147.77 2445.21 1130.67 2445.75C997.645 2445.75 740.5 2369.1 740.5 2151.65 740.5 2015.75 801.575 1940.36 904.466 1902.94L945.252 1891.86 941.454 1898.81C933.75 1915.66 927.843 1934.84 923.861 1956.66L922.561 1966.67 932.3 1944.81C986.469 1843.95 1111.62 1827 1246.12 1826.14 1414.24 1825.07 1555.67 1859.84 1572.7 2038.46L1573.08 2046.87 1574.41 2030.3C1574.41 1975.91 1555.91 1927.16 1522.41 1887.46L1486.16 1852.93 1535.15 1835.89 1559.99 1830.06 1560 1830.06 1579.58 1825.47C1625.01 1816.41 1673.3 1811.53 1723.38 1811.53 1779.71 1811.53 1833.79 1817.71 1884.07 1829.06L1925.76 1840.16 1870.89 1868.76 1862.73 1875.02 1911.04 1852.43 1937.61 1843.79C1955.83 1838.28 1970.62 1832.77 1992.29 1827.27L2054.26 1813.43C2105.66 1804.38 2160.3 1799.5 2216.96 1799.5 2405.83 1799.5 2572.35 1853.71 2670.68 1936.15L2677.57 1942.58 2655.17 1916.5Z" stroke="#FFFFFF" stroke-width="4.58333" stroke-linecap="round" stroke-linejoin="round" stroke-miterlimit="10" fill="url(#fill0)" fill-rule="evenodd"/><path d="M2124.4 2451.94 2142.44 2453.5 2133.37 2453.11ZM1567.49 2444.1 1631.23 2446.37 1575.35 2444.78ZM1505.17 2437.77 1548 2442.41 1521.03 2440.08ZM1443.36 2427.22 1484.21 2434.72 1468.61 2432.45ZM1255.6 2426.53 1233.72 2432.45 1192.02 2440.08ZM1408.93 2419.14 1425.47 2423.51 1418.35 2422.04ZM1288.69 2415.01 1272.16 2422.04 1265.15 2423.94ZM1914.27 2404.85 1994.29 2429.44 1979.52 2426.14 1914.16 2404.88ZM3144.56 2403.95 3154.72 2408.45 3153.4 2408.13 3144.04 2404.2ZM1333.63 2395.96 1334.62 2396.31 1333.58 2395.99ZM1246.07 1780.37C1319.83 1780.37 1384.42 1795.11 1436.36 1821.19L1454.98 1832.82 1535.04 1804.99C1592.87 1789.32 1656.46 1780.65 1723.21 1780.65 1798.31 1780.65 1869.4 1791.62 1932.8 1811.19L1983.52 1829.86 1937.39 1843.79 1910.83 1852.43 1862.53 1874.99 1870.69 1868.75 1925.54 1840.17 1883.87 1829.07C1833.6 1817.73 1779.53 1811.56 1723.21 1811.56 1673.15 1811.56 1624.87 1816.44 1579.45 1825.49L1559.87 1830.08 1559.87 1830.08 1535.04 1835.9 1486.05 1852.93 1522.3 1887.43C1555.79 1927.09 1574.28 1975.8 1574.28 2030.14L1572.95 2046.7 1572.57 2038.3C1555.55 1859.83 1414.15 1825.09 1246.07 1826.16 1111.61 1827.02 986.485 1843.96 932.329 1944.72L922.593 1966.56 923.893 1956.56C927.873 1934.77 933.779 1915.61 941.481 1898.77L945.279 1891.82 904.503 1902.89 888.754 1909.71 890.952 1914.55C892.971 1927.26 885.959 1943.48 871.931 1955.65 853.228 1971.87 829.134 1974.75 818.117 1962.06L815.179 1955.59 807.43 1962.15C764.428 2005.28 740.576 2066.52 740.576 2151.39 740.576 2368.65 997.658 2445.23 1130.65 2445.23L1147.74 2444.7 1146.95 2444.78C1131.39 2445.83 1115.26 2446.38 1098.58 2446.38 965.582 2446.38 708.5 2365.67 708.5 2136.7 708.5 1964.97 796.426 1885.01 939.008 1855.76L974.065 1850.86 987.824 1837.64C1045.41 1790.14 1135.43 1780.37 1246.07 1780.37ZM2259.35 1775.5C2359.48 1775.5 2452.49 1795 2529.65 1828.39L2559.68 1844.26 2576.51 1832.97C2637.3 1799.58 2710.59 1780.08 2789.48 1780.08 2848.64 1780.08 2904.66 1791.05 2954.62 1810.62L2993.5 1828.79 3012.76 1819.36C3054.81 1802.51 3105.51 1792.67 3160.08 1792.67 3232.84 1792.67 3298.71 1810.16 3346.39 1838.44L3350.17 1841.16 3400.1 1844.08C3597.34 1866.76 3690.21 1961.47 3692.47 2135.84 3694.08 2260.39 3632.68 2346.64 3530.94 2392.98L3519.37 2397.03 3566.76 2368.01C3629.1 2319.76 3665.02 2246.96 3663.83 2150.41 3661.76 1981.45 3576.31 1889.68 3394.83 1867.71L3383.55 1867.01 3402.86 1888.12C3416.19 1906.81 3423.57 1927.37 3423.57 1948.94L3421.43 1961.54 3418.21 1942.64C3393.64 1871.43 3287.41 1817.86 3160.08 1817.86 3032.75 1817.86 2926.51 1871.43 2901.94 1942.64L2898.73 1961.54 2896.59 1948.94C2896.59 1916.58 2913.18 1886.51 2941.59 1861.57L2967.88 1842.67 2942.65 1831.89C2895.57 1816.22 2843.81 1807.56 2789.48 1807.56 2735.14 1807.56 2683.38 1816.22 2636.3 1831.89L2581.44 1855.33C2593.11 1865.13 2638.82 1901.91 2654.77 1916.44L2677.17 1942.5 2670.28 1936.08C2571.97 1853.7 2405.5 1799.54 2216.68 1799.54 2160.03 1799.54 2105.4 1804.42 2054.01 1813.46L1992.06 1827.28 1992.05 1827.29 2049.76 1806.04C2113.17 1786.47 2184.26 1775.5 2259.35 1775.5Z" stroke="#FFFFFF" stroke-width="4.58333" stroke-linecap="round" stroke-linejoin="round" stroke-miterlimit="10" fill="#FFFFFF" fill-rule="evenodd"/></g></svg>