<svg width="3514" height="788" xmlns="http://www.w3.org/2000/svg" xmlns:xlink="http://www.w3.org/1999/xlink" xml:space="preserve" overflow="hidden"><defs><clipPath id="clip0"><rect x="443" y="886" width="3514" height="788"/></clipPath></defs><g clip-path="url(#clip0)" transform="translate(-443 -886)"><path d="M786.663 1024 3581.75 1024C3637.88 1024 3686.03 1058.08 3706.6 1106.66L3709.62 1121.56 3734.32 1149.32C3766.25 1192.8 3786 1252.88 3786 1319.24 3786 1385.6 3766.25 1445.68 3734.32 1489.17L3708.97 1517.66 3706.6 1529.34C3686.03 1577.92 3637.88 1612 3581.75 1612L786.663 1612C730.536 1612 682.38 1577.92 661.809 1529.34L661.698 1528.79 639.768 1521.2C576.437 1491.32 532 1421.37 532 1339.84 532 1258.31 576.437 1188.36 639.768 1158.48L652.204 1154.17 661.809 1106.66C682.38 1058.08 730.536 1024 786.663 1024Z" fill="#000000" fill-rule="evenodd" fill-opacity="0.2"/><path d="M827.663 986 3622.75 986C3678.88 986 3727.03 1020.14 3747.6 1068.8L3750.62 1083.72 3775.32 1111.53C3807.25 1155.09 3827 1215.27 3827 1281.74 3827 1348.22 3807.25 1408.4 3775.32 1451.96L3749.97 1480.5 3747.6 1492.2C3727.03 1540.86 3678.88 1575 3622.75 1575L827.663 1575C771.536 1575 723.379 1540.86 702.809 1492.2L702.698 1491.65 680.767 1484.05C617.437 1454.12 573 1384.05 573 1302.38 573 1220.71 617.437 1150.64 680.767 1120.71L693.204 1116.4 702.809 1068.8C723.379 1020.14 771.536 986 827.663 986Z" fill="#F5F5F1" fill-rule="evenodd"/><rect x="443" y="886" width="3514" height="788" fill="#FFFFFF" fill-opacity="0"/></g></svg>