<svg width="3514" height="788" xmlns="http://www.w3.org/2000/svg" xmlns:xlink="http://www.w3.org/1999/xlink" xml:space="preserve" overflow="hidden"><defs><filter id="fx0" x="-10%" y="-10%" width="120%" height="120%" filterUnits="userSpaceOnUse" primitiveUnits="userSpaceOnUse"><feComponentTransfer color-interpolation-filters="sRGB"><feFuncR type="discrete" tableValues="0 0"/><feFuncG type="discrete" tableValues="0 0"/><feFuncB type="discrete" tableValues="0 0"/><feFuncA type="linear" slope="0.2" intercept="0"/></feComponentTransfer><feGaussianBlur stdDeviation="0 0"/></filter><clipPath id="clip1"><rect x="443" y="3340" width="3514" height="788"/></clipPath><clipPath id="clip2"><path d="M3365.09 3406.5 3104.75 3500.87 3101.89 3426.52 2955.99 3489.43 2901.63 3415.08 2707.09 3498.01 2695.65 3463.69 2631.89 3482.28 2624.42 3424.44 2498.39 3474.83 2489.23 3419.86 2331.11 3479.42 2221.12 3422.15 2131.76 3477.12 1971.35 3424.44 1943.85 3481.71 1801.78 3435.9 1803.27 3483.46 1680.04 3460.83 1674.32 3486.57 1476.92 3420.8 1434.01 3500.87 1290.97 3437.96 1288.11 3512.31 1022.05 3409.36 1036.35 3498.01 884.725 3452.25 870.421 3506.59 650.135 3469.41 744.543 3632.41 652.996 3666.73 747.404 3766.82 601.5 3998.45 813.204 3964.13 821.787 4007.03 916.195 3966.99 947.664 4035.62 1147.92 3944.11 1167.95 4009.89 1319.58 3958.41 1348.19 4012.75 1408.26 3964.13 1479.78 4038.48 1682.91 3961.27 1742.98 4027.04 1834.53 3958.41 1906.05 4047.06 2049.1 3978.43 2083.43 4052.78 2197.86 3987.01 2309.43 4058.5 2349.49 3975.57 2492.53 4049.92 2561.19 3961.27 2652.74 4029.9 2718.54 3964.13 2907.35 4041.34 2993.18 3961.27 3041.82 4007.03 3070.42 3944.11 3219.19 4004.17 3230.63 3932.68 3445.2 4035.62 3473.81 3958.41 3573.94 4004.17 3568.21 3952.69 3788.5 3995.59 3639.74 3758.24 3728.42 3661.01 3642.6 3620.97 3739.87 3460.83 3528.16 3503.73 3513.86 3443.68 3356.51 3503.73ZM443 3340 3957 3340 3957 4128 443 4128Z" fill-rule="evenodd" clip-rule="evenodd"/></clipPath></defs><g clip-path="url(#clip1)" transform="translate(-443 -3340)"><rect x="443" y="3340" width="3514" height="788" fill="#F5F5F1" fill-opacity="0"/><g clip-path="url(#clip2)"><g filter="url(#fx0)" transform="translate(590 3395)"><g><path d="M2784.81 21.2229 2776.23 118.451 2933.58 58.3982 2947.88 118.451 3159.59 75.5561 3062.32 235.696 3148.14 275.732 3059.46 372.96 3208.22 610.311 2987.94 567.416 2993.66 618.89 2893.53 573.135 2864.92 650.346 2650.35 547.399 2638.91 618.89 2490.15 558.837 2461.54 621.749 2412.9 575.995 2327.08 656.065 2138.26 578.854 2072.46 644.627 1980.91 575.995 1912.25 664.644 1769.21 590.293 1729.16 673.223 1617.58 601.732 1503.15 667.504 1468.82 593.153 1325.78 661.784 1254.25 573.135 1162.71 641.767 1102.63 575.995 899.507 653.205 827.986 578.854 767.908 627.469 739.299 573.135 587.674 624.609 567.647 558.837 367.387 650.346 335.918 581.714 241.509 621.749 232.927 578.854 21.2228 613.17 167.127 381.539 72.7184 281.451 164.266 247.135 69.8575 84.1353 290.144 121.311 304.448 66.9773 456.074 112.732 441.769 24.0826 707.83 127.03 710.69 52.6791 853.734 115.591 896.647 35.5211 1094.05 101.293 1099.77 75.5561 1222.99 98.1796 1221.5 50.6183 1363.58 96.4287 1391.07 39.1658 1551.48 91.8476 1640.85 36.8752 1750.84 94.1382 1908.95 34.5847 1918.12 89.5571 2044.15 39.1658 2051.61 97.0047 2115.37 78.4158 2126.82 112.732 2321.36 29.8017 2375.71 104.153 2521.62 41.2406 2524.48 115.591Z" stroke="#F5F5F1" stroke-width="41" stroke-linecap="round" stroke-linejoin="round" stroke-miterlimit="10" fill="#F5F5F1" fill-rule="evenodd"/></g></g></g><path d="M3365.09 3406.5 3356.51 3503.73 3513.86 3443.68 3528.16 3503.73 3739.87 3460.83 3642.6 3620.97 3728.42 3661.01 3639.74 3758.24 3788.5 3995.59 3568.21 3952.69 3573.94 4004.17 3473.81 3958.41 3445.2 4035.62 3230.63 3932.68 3219.19 4004.17 3070.42 3944.11 3041.82 4007.03 2993.18 3961.27 2907.35 4041.34 2718.54 3964.13 2652.74 4029.9 2561.19 3961.27 2492.53 4049.92 2349.49 3975.57 2309.43 4058.5 2197.86 3987.01 2083.43 4052.78 2049.1 3978.43 1906.05 4047.06 1834.53 3958.41 1742.98 4027.04 1682.91 3961.27 1479.78 4038.48 1408.26 3964.13 1348.19 4012.75 1319.58 3958.41 1167.95 4009.89 1147.92 3944.11 947.664 4035.62 916.195 3966.99 821.787 4007.03 813.204 3964.13 601.5 3998.45 747.404 3766.82 652.996 3666.73 744.543 3632.41 650.135 3469.41 870.421 3506.59 884.725 3452.25 1036.35 3498.01 1022.05 3409.36 1288.11 3512.31 1290.97 3437.96 1434.01 3500.87 1476.92 3420.8 1674.32 3486.57 1680.04 3460.83 1803.27 3483.46 1801.78 3435.9 1943.85 3481.71 1971.35 3424.44 2131.76 3477.12 2221.12 3422.15 2331.11 3479.42 2489.23 3419.86 2498.39 3474.83 2624.42 3424.44 2631.89 3482.28 2695.65 3463.69 2707.09 3498.01 2901.63 3415.08 2955.99 3489.43 3101.89 3426.52 3104.75 3500.87Z" stroke="#F5F5F1" stroke-width="41.25" stroke-linecap="round" stroke-linejoin="round" stroke-miterlimit="10" fill="#F5F5F1" fill-rule="evenodd"/></g></svg>