<svg width="3514" height="788" xmlns="http://www.w3.org/2000/svg" xmlns:xlink="http://www.w3.org/1999/xlink" xml:space="preserve" overflow="hidden"><defs><filter id="fx0" x="-10%" y="-10%" width="120%" height="120%" filterUnits="userSpaceOnUse" primitiveUnits="userSpaceOnUse"><feComponentTransfer color-interpolation-filters="sRGB"><feFuncR type="discrete" tableValues="0 0"/><feFuncG type="discrete" tableValues="0 0"/><feFuncB type="discrete" tableValues="0 0"/><feFuncA type="linear" slope="0.2" intercept="0"/></feComponentTransfer><feGaussianBlur stdDeviation="0 0"/></filter></defs><g transform="translate(-443 -66)"><g filter="url(#fx0)" transform="translate(582 175)"><g><path d="M255.386 0.722748 3050.47 0.722748C3106.6 0.722748 3154.76 34.8053 3175.33 83.3787L3178.34 98.2801 3203.04 126.038C3234.97 169.526 3254.72 229.604 3254.72 295.965 3254.72 362.326 3234.97 422.404 3203.04 465.893L3177.69 494.381 3175.33 506.067C3154.76 554.64 3106.6 588.723 3050.47 588.723L255.386 588.723C199.259 588.723 151.102 554.64 130.532 506.067L130.421 505.518 108.49 497.924C45.1597 468.044 0.722778 398.092 0.722778 316.563 0.722778 235.034 45.1597 165.083 108.49 135.203L120.927 130.896 130.532 83.3787C151.102 34.8053 199.259 0.722748 255.386 0.722748Z" fill="#F5F5F1" fill-rule="evenodd"/></g></g><path d="M827.663 166 3622.75 166C3678.88 166 3727.03 200.083 3747.6 248.656L3750.62 263.557 3775.32 291.315C3807.25 334.803 3827 394.882 3827 461.242 3827 527.603 3807.25 587.682 3775.32 631.17L3749.97 659.658 3747.6 671.344C3727.03 719.917 3678.88 754 3622.75 754L827.663 754C771.536 754 723.379 719.917 702.809 671.344L702.698 670.795 680.767 663.201C617.437 633.321 573 563.37 573 481.841 573 400.312 617.437 330.36 680.767 300.48L693.204 296.174 702.809 248.656C723.379 200.083 771.536 166 827.663 166Z" fill="#F5F5F1" fill-rule="evenodd"/><rect x="443" y="66" width="3514" height="788" fill="#FFFFFF" fill-opacity="0"/></g></svg>