<svg width="3514" height="788" xmlns="http://www.w3.org/2000/svg" xmlns:xlink="http://www.w3.org/1999/xlink" xml:space="preserve" overflow="hidden"><defs><clipPath id="clip0"><rect x="443" y="-754" width="3514" height="788"/></clipPath></defs><g clip-path="url(#clip0)" transform="translate(-443 754)"><rect x="443" y="-754" width="3514" height="788" fill="#FFFFFF" fill-opacity="0"/><path d="M786.663-617 3581.75-617C3637.88-617 3686.03-582.86 3706.6-534.203L3709.62-519.277 3734.32-491.472C3766.25-447.91 3786-387.729 3786-321.255 3786-254.782 3766.25-194.601 3734.32-151.039L3708.97-122.502 3706.6-110.796C3686.03-62.1404 3637.88-27.9999 3581.75-27.9999L786.663-27.9999C730.536-27.9999 682.38-62.1404 661.809-110.796L661.698-111.346 639.768-118.953C576.437-148.884 532-218.954 532-300.622 532-382.29 576.437-452.36 639.768-482.291L652.204-486.605 661.809-534.203C682.38-582.86 730.536-617 786.663-617Z" fill="#F5F5F1" fill-rule="evenodd" fill-opacity="0.2"/><path d="M827.663-655 3622.75-655C3678.88-655 3727.03-620.859 3747.6-572.203L3750.62-557.277 3775.32-529.472C3807.25-485.909 3827-425.729 3827-359.255 3827-292.782 3807.25-232.601 3775.32-189.039L3749.97-160.502 3747.6-148.796C3727.03-100.141 3678.88-66 3622.75-66L827.663-66C771.536-66 723.379-100.141 702.809-148.796L702.698-149.346 680.767-156.953C617.437-186.884 573-256.954 573-338.622 573-420.29 617.437-490.36 680.767-520.291L693.204-524.605 702.809-572.203C723.379-620.859 771.536-655 827.663-655Z" fill="#000000" fill-rule="evenodd" fill-opacity="0.701961"/></g></svg>