<svg width="3514" height="788" xmlns="http://www.w3.org/2000/svg" xmlns:xlink="http://www.w3.org/1999/xlink" xml:space="preserve" overflow="hidden"><defs><filter id="fx0" x="-10%" y="-10%" width="120%" height="120%" filterUnits="userSpaceOnUse" primitiveUnits="userSpaceOnUse"><feComponentTransfer color-interpolation-filters="sRGB"><feFuncR type="discrete" tableValues="0 0"/><feFuncG type="discrete" tableValues="0 0"/><feFuncB type="discrete" tableValues="0 0"/><feFuncA type="linear" slope="0.2" intercept="0"/></feComponentTransfer><feGaussianBlur stdDeviation="0 0"/></filter></defs><g transform="translate(-443 -2552)"><rect x="443" y="2552" width="3514" height="788" fill="#FFFFFF" fill-opacity="0"/><g filter="url(#fx0)" transform="translate(672 2661)"><g><path d="M0.722839 75.6336C0.722839 34.2614 34.2616 0.722656 75.6338 0.722656L3020.81 0.722656C3062.18 0.722656 3095.72 34.2614 3095.72 75.6336L3095.72 513.811C3095.72 555.184 3062.18 588.722 3020.81 588.722L75.6338 588.722C34.2616 588.722 0.722839 555.184 0.722839 513.811Z" fill="#F5F5F1" fill-rule="evenodd"/></g></g><path d="M663 2726.91C663 2685.54 696.539 2652 737.911 2652L3683.09 2652C3724.46 2652 3758 2685.54 3758 2726.91L3758 3165.09C3758 3206.46 3724.46 3240 3683.09 3240L737.911 3240C696.539 3240 663 3206.46 663 3165.09Z" fill="#F5F5F1" fill-rule="evenodd"/></g></svg>