<svg width="3514" height="788" xmlns="http://www.w3.org/2000/svg" xmlns:xlink="http://www.w3.org/1999/xlink" xml:space="preserve" overflow="hidden"><defs><linearGradient x1="2200" y1="1848" x2="2200" y2="2402" gradientUnits="userSpaceOnUse" spreadMethod="reflect" id="fill0"><stop offset="0" stop-color="#FFFFFF" stop-opacity="0.901961"/><stop offset="0.01" stop-color="#FFFFFF" stop-opacity="0.901961"/><stop offset="0.99" stop-color="#FFFFFF"/><stop offset="1" stop-color="#FFFFFF"/></linearGradient></defs><g transform="translate(-443 -1687)"><rect x="443" y="1687" width="3514" height="788" fill="#FFFFFF" fill-opacity="0"/><path d="M777.19 2125.18C772.417 1845.96 846.866 1846.11 2199.92 1848.36 3552.97 1850.61 3617.87 1847.82 3622.64 2125.18 3627.42 2402.54 3605.37 2402 2199.92 2402 794.465 2402 781.964 2404.4 777.19 2125.18Z" fill="url(#fill0)" fill-rule="evenodd"/><path d="M1853.37 1855.88C1293.5 1856.16 1024.1 1863.25 895.8 1910.77L895.273 1910.99 894.278 1919.26C890.217 1931.73 881.253 1943.22 868.35 1950.77 855.446 1958.33 841.046 1960.51 828.195 1957.93L823.888 1956.15 812.299 1968.18C784.95 2006.21 781.205 2056.98 782.395 2124.67 787.151 2395.46 799.606 2393.13 2199.92 2393.13 3600.23 2393.13 3622.19 2393.66 3617.44 2124.67 3612.68 1855.69 3548.02 1858.4 2199.92 1856.21 2073.53 1856.01 1958.34 1855.82 1853.37 1855.88ZM1959.57 1842.03C2034.86 1842.09 2114.87 1842.22 2199.92 1842.36 3560.57 1844.66 3625.84 1841.82 3630.64 2124.68 3635.44 2407.55 3613.27 2407 2199.92 2407 786.563 2407 773.992 2409.44 769.192 2124.68 764.691 1857.72 830.211 1841.17 1959.57 1842.03Z" fill="#FFFFFF" fill-rule="evenodd"/></g></svg>