<svg width="3514" height="788" xmlns="http://www.w3.org/2000/svg" xmlns:xlink="http://www.w3.org/1999/xlink" xml:space="preserve" overflow="hidden"><defs><linearGradient x1="2200" y1="1760" x2="2200" y2="2448" gradientUnits="userSpaceOnUse" spreadMethod="reflect" id="fill0"><stop offset="0" stop-color="#FFFFFF" stop-opacity="0.901961"/><stop offset="0.01" stop-color="#FFFFFF" stop-opacity="0.901961"/><stop offset="0.99" stop-color="#FFFFFF"/><stop offset="1" stop-color="#FFFFFF"/></linearGradient></defs><g transform="translate(-443 -1687)"><rect x="443" y="1687" width="3514" height="788" fill="#FFFFFF" fill-opacity="0"/><path d="M1330.09 1760 1340.57 1767.94C1398.82 1804.08 1469.05 1825.19 1544.65 1825.19 1620.24 1825.19 1690.47 1804.08 1748.73 1767.94L1754.11 1763.86 1768.14 1775.1C1810.44 1802.82 1861.42 1819 1916.31 1819L2515.9 1819C2570.78 1819 2621.77 1802.82 2664.06 1775.1L2671.7 1768.98 2699.93 1784.73C2751.65 1810.53 2810.92 1825.19 2873.91 1825.19 2949.51 1825.19 3019.74 1804.08 3077.99 1767.94L3082.88 1764.24 3099.15 1777.87C3151.87 1814.01 3215.43 1835.12 3283.84 1835.12 3340.85 1835.12 3394.49 1820.46 3441.29 1794.66L3458.11 1784.29 3472.62 1814.22C3491.58 1844.13 3517.14 1868.96 3548.97 1886.45 3588.76 1908.31 3633.64 1916.13 3679.41 1911.63L3685.08 1910.77 3665.06 1956.01C3653.77 1991.73 3650.77 2029.4 3657.61 2067.24 3661.03 2086.16 3666.76 2104.23 3674.52 2121.3L3700 2163.34 3682.43 2170.5C3651.44 2187.34 3625.54 2210.66 3607.03 2240.25 3588.53 2269.84 3579.16 2302.89 3578.07 2337.33L3582.09 2384.5 3560.54 2377.03C3512.18 2362.91 3460.75 2361.13 3410.25 2374.29 3369.85 2384.82 3333.87 2403.91 3303.39 2429.41L3301.62 2431.24 3278.32 2410.66C3228.36 2374.51 3168.15 2353.41 3103.32 2353.41 3038.5 2353.41 2978.28 2374.51 2928.33 2410.66L2901.26 2434.58 2867.92 2407.35C2813.88 2371.2 2748.74 2350.1 2678.62 2350.1 2608.5 2350.1 2543.36 2371.2 2489.32 2407.35L2463.36 2428.55 2440.97 2413.14C2376.86 2376.99 2299.58 2355.89 2216.39 2355.89 2133.2 2355.89 2055.91 2376.99 1991.8 2413.14L1941.76 2447.6 1917.29 2428.86C1859.64 2392.71 1790.15 2371.61 1715.35 2371.61 1640.55 2371.61 1571.06 2392.71 1513.42 2428.86L1495.77 2442.38 1484.11 2432.99C1429.27 2396.85 1363.15 2375.74 1291.98 2375.74 1220.82 2375.74 1154.7 2396.85 1099.86 2432.99L1081.21 2448 1061.57 2428.3C1032.77 2405.13 999.16 2388.74 961.801 2381.17 924.442 2373.6 886.875 2375.57 850.929 2385.62L815.739 2399.66 819.198 2388.44C828.883 2349.22 826.202 2310.88 808.958 2277.03 795.162 2249.95 773.351 2228.31 745.722 2212.36L703.282 2194.07 711.603 2185.24C738.063 2153.85 753.093 2117.87 753.093 2079.63 753.093 2041.39 738.063 2005.41 711.603 1974.01L700 1961.7 700.841 1961.82C752.777 1964.38 804.3 1951.78 848.553 1922.35 892.806 1892.92 923.504 1850.85 939.774 1802.93L946.365 1774.32 963.941 1784.73C1012.68 1810.53 1068.53 1825.19 1127.9 1825.19 1199.14 1825.19 1265.32 1804.08 1320.22 1767.94Z" stroke="#FFFFFF" stroke-width="18.3333" stroke-linecap="round" stroke-linejoin="round" stroke-miterlimit="10" fill="url(#fill0)" fill-rule="evenodd"/></g></svg>