<svg width="3514" height="788" xmlns="http://www.w3.org/2000/svg" xmlns:xlink="http://www.w3.org/1999/xlink" xml:space="preserve" overflow="hidden"><defs><filter id="fx0" x="-10%" y="-10%" width="120%" height="120%" filterUnits="userSpaceOnUse" primitiveUnits="userSpaceOnUse"><feComponentTransfer color-interpolation-filters="sRGB"><feFuncR type="discrete" tableValues="0 0"/><feFuncG type="discrete" tableValues="0 0"/><feFuncB type="discrete" tableValues="0 0"/><feFuncA type="linear" slope="0.2" intercept="0"/></feComponentTransfer><feGaussianBlur stdDeviation="0 0"/></filter></defs><g transform="translate(-443 -1687)"><g filter="url(#fx0)" transform="translate(580 1773)"><g><path d="M1643.76 0.7229C1771.67 0.7229 1891.62 11.5984 1995.08 30.6147L2043.03 41.2371 2088.15 23.0399C2124.48 11.623 2164.42 5.30975 2206.34 5.30975 2269.22 5.30975 2327.64 19.5146 2376.1 43.8415L2391.78 53.4515 2405.84 46.9082C2422.71 40.7972 2441.24 37.4177 2460.7 37.4177 2470.43 37.4177 2479.93 38.2625 2489.1 39.8715L2512.98 46.222 2577.6 27.8395C2623 17.739 2672.47 12.19 2724.23 12.19 2807.05 12.19 2883.98 26.3948 2947.8 50.7218L2977.18 64.3996 2994.53 58.0705C3008.63 54.6795 3023.22 52.8986 3038.17 52.8986 3157.77 52.8986 3254.72 166.874 3254.72 307.469 3254.72 360.193 3241.09 409.172 3217.74 449.802L3199.49 475.808 3199.73 476.685C3199.73 558.74 3109.95 625.259 2999.21 625.259 2971.53 625.259 2945.16 621.101 2921.17 613.583L2897.04 603.879 2865.63 613.808C2810.22 626.829 2743.42 634.433 2671.52 634.433 2599.62 634.433 2532.83 626.829 2477.42 613.808L2457.25 608.018 2409.63 619.993C2351.37 631.41 2287.32 637.723 2220.09 637.723 2119.24 637.723 2025.55 623.518 1947.83 599.191L1888.36 576.458 1882.06 583.007C1856.55 604.862 1821.32 618.379 1782.4 618.379 1753.21 618.379 1726.1 610.775 1703.61 597.754L1687.8 586.578 1680.3 588.905C1583.2 613.573 1466.14 627.976 1340.13 627.976 1256.13 627.976 1176.1 621.574 1103.31 609.998L1043.16 597.721 1043.11 597.754C1020.62 610.775 993.507 618.379 964.319 618.379 935.132 618.379 908.017 610.775 885.524 597.754L879.844 593.331 809.254 609.998C746.335 621.574 677.159 627.976 604.546 627.976 495.627 627.976 394.44 613.573 310.505 588.905L283.655 579.269 280.19 580.326C265.049 583.374 249.372 584.974 233.315 584.974 104.858 584.974 0.722656 482.55 0.722656 356.204 0.722656 261.445 59.299 180.142 142.78 145.413L161.716 139.631 165.477 133.693C213.453 72.8402 294.698 32.8309 386.849 32.8309 428.317 32.8309 467.577 40.9326 502.59 55.3903L512.326 60.1855 535.94 49.2016C552.801 43.0906 571.338 39.7112 590.797 39.7112 610.255 39.7112 628.793 43.0906 645.653 49.2016L659.6 55.6886 689.57 43.8415C764.728 19.5146 855.332 5.30975 952.861 5.30975 1050.39 5.30975 1141 19.5146 1216.15 43.8415L1222.4 46.3097 1249.15 39.2546C1361.79 14.9277 1497.59 0.7229 1643.76 0.7229Z" fill="#F5F5F1" fill-rule="evenodd"/></g></g><path d="M2214.04 1764C2341.94 1764 2461.9 1774.88 2565.36 1793.89L2613.31 1804.51 2658.43 1786.32C2694.76 1774.9 2734.69 1768.59 2776.62 1768.59 2839.5 1768.59 2897.92 1782.79 2946.38 1807.12L2962.05 1816.73 2976.12 1810.19C2992.98 1804.07 3011.52 1800.69 3030.98 1800.69 3040.71 1800.69 3050.21 1801.54 3059.38 1803.15L3083.25 1809.5 3147.88 1791.12C3193.28 1781.02 3242.75 1775.47 3294.51 1775.47 3377.32 1775.47 3454.26 1789.67 3518.08 1814L3547.46 1827.68 3564.81 1821.35C3578.9 1817.96 3593.5 1816.18 3608.45 1816.18 3728.05 1816.18 3825 1930.15 3825 2070.75 3825 2123.47 3811.37 2172.45 3788.02 2213.08L3769.76 2239.09 3770 2239.96C3770 2322.02 3680.23 2388.54 3569.49 2388.54 3541.81 2388.54 3515.43 2384.38 3491.44 2376.86L3467.32 2367.16 3435.91 2377.08C3380.5 2390.11 3313.7 2397.71 3241.8 2397.71 3169.9 2397.71 3103.1 2390.11 3047.69 2377.08L3027.52 2371.3 2979.91 2383.27C2921.65 2394.69 2857.6 2401 2790.37 2401 2689.51 2401 2595.82 2386.8 2518.1 2362.47L2458.64 2339.74 2452.33 2346.28C2426.83 2368.14 2391.6 2381.66 2352.68 2381.66 2323.49 2381.66 2296.38 2374.05 2273.88 2361.03L2258.08 2349.86 2250.58 2352.18C2153.47 2376.85 2036.42 2391.25 1910.41 2391.25 1826.41 2391.25 1746.38 2384.85 1673.59 2373.27L1613.44 2361 1613.39 2361.03C1590.9 2374.05 1563.78 2381.66 1534.6 2381.66 1505.41 2381.66 1478.29 2374.05 1455.8 2361.03L1450.12 2356.61 1379.53 2373.27C1316.61 2384.85 1247.44 2391.25 1174.82 2391.25 1065.9 2391.25 964.718 2376.85 880.782 2352.18L853.932 2342.55 850.468 2343.6C835.327 2346.65 819.65 2348.25 803.592 2348.25 675.135 2348.25 571 2245.83 571 2119.48 571 2024.72 629.576 1943.42 713.057 1908.69L731.993 1902.91 735.755 1896.97C783.73 1836.12 864.976 1796.11 957.127 1796.11 998.594 1796.11 1037.85 1804.21 1072.87 1818.67L1082.6 1823.46 1106.22 1812.48C1123.08 1806.37 1141.62 1802.99 1161.07 1802.99 1180.53 1802.99 1199.07 1806.37 1215.93 1812.48L1229.88 1818.97 1259.85 1807.12C1335.01 1782.79 1425.61 1768.59 1523.14 1768.59 1620.67 1768.59 1711.27 1782.79 1786.43 1807.12L1792.67 1809.59 1819.42 1802.53C1932.07 1778.2 2067.87 1764 2214.04 1764Z" fill="#F5F5F1" fill-rule="evenodd"/><rect x="443" y="1687" width="3514" height="788" fill="#FFFFFF" fill-opacity="0"/></g></svg>