<svg width="4400" height="1886" xmlns="http://www.w3.org/2000/svg" xmlns:xlink="http://www.w3.org/1999/xlink" xml:space="preserve" overflow="hidden"><defs><clipPath id="clip0"><rect x="0" y="0" width="4400" height="1886"/></clipPath></defs><g clip-path="url(#clip0)"><rect x="0" y="0" width="4400" height="1886" fill="#FFFFFF" fill-opacity="0"/><rect x="392" y="651" width="584" height="584" fill="#FF7B63"/><path d="M765.111 1072.17 765.111 1104.58 862.444 1104.58 862.444 1072.17 765.111 1072.17ZM635.333 1072.17 635.333 1104.58 732.667 1104.58 732.667 1072.17 635.333 1072.17ZM505.555 1072.17 505.555 1104.58 602.889 1104.58 602.889 1072.17 505.555 1072.17ZM765.111 780.417 765.111 812.833 862.444 812.833 862.444 780.417 765.111 780.417ZM635.333 780.417 635.333 812.833 732.667 812.833 732.667 780.417 635.333 780.417ZM505.555 780.417 505.555 812.833 602.889 812.833 602.889 780.417 505.555 780.417ZM392 748 976 748 976 780.417 894.889 780.417 894.889 812.833 976 812.833 976 1072.17 894.889 1072.17 894.889 1104.58 976 1104.58 976 1137 392 1137 392 1104.58 473.111 1104.58 473.111 1072.17 392 1072.17 392 812.833 473.111 812.833 473.111 780.417 392 780.417 392 748Z" fill="#FEFAF6" fill-rule="evenodd"/><path d="M3238.25 716.697 3210.65 800.214 3267.58 800.214 3239.99 716.697ZM3869.7 704.466 3869.7 764.221 3904.62 764.221C3916.16 764.05 3925.13 761.334 3931.54 756.075 3937.94 750.814 3941.2 743.513 3941.29 734.168 3941.2 724.818 3937.94 717.53 3931.54 712.306 3925.13 707.082 3916.16 704.469 3904.62 704.466ZM3811.03 651 3901.13 651C3920.77 651.113 3937.99 654.556 3952.81 661.328 3967.62 668.101 3979.19 677.522 3987.52 689.595 3995.86 701.667 4000.12 715.709 4000.32 731.722 4000.05 749.264 3994.95 764.414 3985.04 777.172 3975.12 789.931 3961.47 799.359 3944.09 805.456L4008 904 3941.99 904 3883.67 812.445 3869.7 812.445 3869.7 904 3811.03 904ZM3601.85 651 3767.04 651 3767.04 706.213 3660.52 706.213 3660.52 750.593 3757.26 750.593 3757.26 800.214 3660.52 800.214 3660.52 848.787 3769.83 848.787 3769.83 904 3601.85 904ZM3360.09 651 3564.75 651 3564.75 706.213 3491.76 706.213 3491.76 904 3433.08 904 3433.08 706.213 3360.09 706.213ZM3208.91 651 3268.98 651 3366.42 904 3301.81 904 3285.39 854.029 3192.84 854.029 3176.08 904 3111.47 904ZM2916.96 651 3082.15 651 3082.15 706.213 2975.63 706.213 2975.63 750.593 3072.37 750.593 3072.37 800.214 2975.63 800.214 2975.63 848.787 3084.95 848.787 3084.95 904 2916.96 904ZM2653.8 651 2712.47 651 2712.47 743.604 2817.59 743.604 2817.59 651 2876.27 651 2876.27 904 2817.59 904 2817.59 798.816 2712.47 798.816 2712.47 904 2653.8 904ZM2412.04 651 2616.7 651 2616.7 706.213 2543.71 706.213 2543.71 904 2485.03 904 2485.03 706.213 2412.04 706.213ZM2113.98 651 2279.18 651 2279.18 706.213 2172.66 706.213 2172.66 750.593 2269.4 750.593 2269.4 800.214 2172.66 800.214 2172.66 848.787 2281.97 848.787 2281.97 904 2113.98 904ZM1790.09 651 1863.79 651 1929.44 813.493 1930.84 813.493 1996.5 651 2070.19 651 2070.19 904 2012.91 904 2012.91 757.931 2011.52 757.931 1954.24 904 1906.04 904 1848.77 757.931 1847.37 757.931 1847.37 904 1790.09 904ZM1580.92 651 1746.11 651 1746.11 706.213 1639.59 706.213 1639.59 750.593 1736.33 750.593 1736.33 800.214 1639.59 800.214 1639.59 848.787 1748.9 848.787 1748.9 904 1580.92 904ZM1317.76 651 1376.43 651 1376.43 743.604 1481.55 743.604 1481.55 651 1540.23 651 1540.23 904 1481.55 904 1481.55 798.816 1376.43 798.816 1376.43 904 1317.76 904ZM1076 651 1280.66 651 1280.66 706.213 1207.67 706.213 1207.67 904 1148.99 904 1148.99 706.213 1076 706.213Z" fill="#582A22" fill-rule="evenodd"/><path d="M2381.5 1042.65 2353.92 1126.23 2410.83 1126.23 2383.25 1042.65ZM3076.73 1030.41 3076.73 1090.21 3111.65 1090.21C3123.18 1090.04 3132.15 1087.32 3138.55 1082.06 3144.96 1076.79 3148.21 1069.49 3148.31 1060.13 3148.21 1050.77 3144.96 1043.48 3138.55 1038.25 3132.15 1033.02 3123.18 1030.41 3111.65 1030.41ZM2105.45 1030.41 2105.45 1090.21 2140.37 1090.21C2151.9 1090.04 2160.87 1087.32 2167.28 1082.06 2173.68 1076.79 2176.93 1069.49 2177.03 1060.13 2176.93 1050.77 2173.68 1043.48 2167.28 1038.25 2160.87 1033.02 2151.9 1030.41 2140.37 1030.41ZM2851.59 1027.61C2837.1 1027.67 2824.33 1030.91 2813.27 1037.34 2802.21 1043.76 2793.54 1052.66 2787.25 1064.05 2780.96 1075.43 2777.73 1088.58 2777.56 1103.5 2777.73 1118.42 2780.96 1131.57 2787.25 1142.95 2793.54 1154.34 2802.21 1163.24 2813.27 1169.66 2824.33 1176.09 2837.1 1179.33 2851.59 1179.39 2866.02 1179.33 2878.75 1176.09 2889.77 1169.66 2900.8 1163.24 2909.45 1154.34 2915.7 1142.95 2921.96 1131.57 2925.15 1118.42 2925.26 1103.5 2925.15 1088.58 2921.96 1075.43 2915.7 1064.05 2909.45 1052.66 2900.8 1043.76 2889.77 1037.34 2878.75 1030.91 2866.02 1027.67 2851.59 1027.61ZM3018.07 976.896 3108.15 976.896C3127.79 977.01 3145.01 980.456 3159.82 987.233 3174.63 994.011 3186.2 1003.44 3194.53 1015.52 3202.86 1027.61 3207.12 1041.66 3207.32 1057.68 3207.05 1075.24 3201.96 1090.4 3192.04 1103.17 3182.13 1115.94 3168.48 1125.38 3151.1 1131.48L3215 1230.1 3149.01 1230.1 3090.69 1138.47 3076.73 1138.47 3076.73 1230.1 3018.07 1230.1ZM2503.91 976.896 2708.53 976.896 2708.53 1032.15 2635.55 1032.15 2635.55 1230.1 2576.89 1230.1 2576.89 1032.15 2503.91 1032.15ZM2352.17 976.896 2412.23 976.896 2509.65 1230.1 2445.05 1230.1 2428.64 1180.09 2336.11 1180.09 2319.35 1230.1 2254.75 1230.1ZM2046.79 976.896 2136.88 976.896C2156.51 977.01 2173.73 980.456 2188.54 987.233 2203.35 994.011 2214.92 1003.44 2223.25 1015.52 2231.58 1027.61 2235.84 1041.66 2236.04 1057.68 2235.77 1075.24 2230.68 1090.4 2220.76 1103.17 2210.85 1115.94 2197.2 1125.38 2179.82 1131.48L2243.72 1230.1 2177.73 1230.1 2119.42 1138.47 2105.45 1138.47 2105.45 1230.1 2046.79 1230.1ZM1837.66 976.896 2002.81 976.896 2002.81 1032.15 1896.32 1032.15 1896.32 1076.57 1993.04 1076.57 1993.04 1126.23 1896.32 1126.23 1896.32 1174.85 2005.61 1174.85 2005.61 1230.1 1837.66 1230.1ZM1567.81 976.896 1633.8 976.896 1735.41 1137.07 1736.46 1137.07 1736.46 976.896 1795.12 976.896 1795.12 1230.1 1729.47 1230.1 1628.91 1069.58 1626.47 1069.58 1626.47 1230.1 1567.81 1230.1ZM1358.67 976.896 1523.83 976.896 1523.83 1032.15 1417.33 1032.15 1417.33 1076.57 1514.05 1076.57 1514.05 1126.23 1417.33 1126.23 1417.33 1174.85 1526.62 1174.85 1526.62 1230.1 1358.67 1230.1ZM2851.59 972C2877.02 972.234 2899.67 978.042 2919.54 989.422 2939.42 1000.8 2955.1 1016.35 2966.59 1036.07 2978.08 1055.78 2983.98 1078.26 2984.27 1103.5 2983.98 1128.74 2978.08 1151.22 2966.59 1170.93 2955.1 1190.65 2939.42 1206.2 2919.54 1217.58 2899.67 1228.96 2877.02 1234.77 2851.59 1235 2826.09 1234.77 2803.39 1228.96 2783.47 1217.58 2763.56 1206.2 2747.86 1190.65 2736.39 1170.93 2724.91 1151.22 2719.08 1128.74 2718.9 1103.5 2719.08 1078.26 2724.91 1055.78 2736.39 1036.07 2747.86 1016.35 2763.56 1000.8 2783.47 989.422 2803.39 978.042 2826.09 972.234 2851.59 972ZM1205.68 972C1228.13 972.248 1247.97 976.736 1265.2 985.465 1282.43 994.194 1296.46 1005.68 1307.29 1019.91L1261.2 1054.54C1254 1045.07 1245.84 1038.17 1236.72 1033.86 1227.6 1029.55 1217.25 1027.46 1205.68 1027.61 1191.09 1027.66 1178.26 1030.89 1167.21 1037.3 1156.16 1043.7 1147.51 1052.59 1141.27 1063.97 1135.03 1075.34 1131.82 1088.52 1131.66 1103.5 1131.83 1118.48 1135.05 1131.66 1141.32 1143.03 1147.6 1154.41 1156.29 1163.3 1167.39 1169.7 1178.5 1176.11 1191.38 1179.34 1206.03 1179.39 1221.96 1179.33 1235.2 1175.47 1245.75 1167.81 1256.31 1160.14 1263.44 1149.55 1267.14 1136.03L1209.18 1136.03 1209.18 1088.11 1324.05 1088.11C1325.02 1093.1 1325.75 1098.04 1326.24 1102.93 1326.72 1107.83 1326.93 1112.68 1326.85 1117.49 1326.7 1141.02 1321.45 1161.56 1311.08 1179.12 1300.72 1196.68 1286.48 1210.35 1268.35 1220.12 1250.23 1229.89 1229.46 1234.85 1206.03 1235 1180.48 1234.76 1157.72 1228.94 1137.75 1217.54 1117.78 1206.14 1102.05 1190.58 1090.54 1170.86 1079.03 1151.14 1073.18 1128.69 1073 1103.5 1073.18 1078.31 1079.01 1055.86 1090.48 1036.14 1101.96 1016.42 1117.66 1000.86 1137.57 989.461 1157.48 978.058 1180.19 972.238 1205.68 972Z" fill="#582A22" fill-rule="evenodd"/></g></svg>