<svg width="4400" height="1886" xmlns="http://www.w3.org/2000/svg" xmlns:xlink="http://www.w3.org/1999/xlink" xml:space="preserve" overflow="hidden"><defs><clipPath id="clip0"><rect x="0" y="0" width="4400" height="1886"/></clipPath></defs><g clip-path="url(#clip0)"><rect x="0" y="0" width="4400" height="1886" fill="#FFFFFF" fill-opacity="0"/><path d="M3797.6 857.022C3788.05 857.022 3779.17 859.036 3770.96 863.063 3762.75 867.09 3755.59 872.834 3749.47 880.293 3743.35 887.752 3738.51 896.554 3734.92 906.697 3731.34 916.841 3729.55 928.178 3729.55 940.71 3729.55 953.241 3731.34 964.578 3734.92 974.723 3738.51 984.866 3743.35 993.668 3749.47 1001.13 3755.59 1008.59 3762.75 1014.33 3770.96 1018.36 3779.17 1022.39 3788.05 1024.4 3797.6 1024.4 3807.15 1024.4 3816.02 1022.39 3824.23 1018.36 3832.44 1014.33 3839.6 1008.59 3845.72 1001.13 3851.84 993.668 3856.69 984.866 3860.27 974.723 3863.85 964.578 3865.64 953.241 3865.64 940.71 3865.64 928.178 3863.85 916.841 3860.27 906.697 3856.69 896.554 3851.84 887.752 3845.72 880.293 3839.6 872.834 3832.44 867.09 3824.23 863.063 3816.02 859.036 3807.15 857.022 3797.6 857.022ZM2151.72 857.022C2136.5 857.022 2123.37 862.169 2112.33 872.462 2101.29 882.754 2093.98 896.851 2090.4 914.753L2213.5 914.753C2210.22 898.045 2203.2 884.246 2192.46 873.357 2181.72 862.466 2168.14 857.022 2151.72 857.022ZM1764.5 857.022C1754.95 857.022 1746.08 859.036 1737.87 863.063 1729.66 867.09 1722.5 872.834 1716.38 880.293 1710.26 887.752 1705.41 896.554 1701.83 906.697 1698.25 916.841 1696.46 928.178 1696.46 940.71 1696.46 953.241 1698.25 964.578 1701.83 974.723 1705.41 984.866 1710.26 993.668 1716.38 1001.13 1722.5 1008.59 1729.66 1014.33 1737.87 1018.36 1746.08 1022.39 1754.95 1024.4 1764.5 1024.4 1774.05 1024.4 1782.93 1022.39 1791.14 1018.36 1799.35 1014.33 1806.51 1008.59 1812.63 1001.13 1818.75 993.668 1823.59 984.866 1827.18 974.723 1830.76 964.578 1832.55 953.241 1832.55 940.71 1832.55 928.178 1830.76 916.841 1827.18 906.697 1823.59 896.554 1818.75 887.752 1812.63 880.293 1806.51 872.834 1799.35 867.09 1791.14 863.063 1782.93 859.036 1774.05 857.022 1764.5 857.022ZM3155.81 815.401 3213.11 815.401 3213.11 1066.02 3155.81 1066.02ZM1931.93 813.163 1989.23 813.163 1989.23 1040.96C1989.23 1060.05 1986.32 1076.91 1980.5 1091.53 1974.68 1106.15 1966.32 1118.53 1955.43 1128.67 1944.53 1138.82 1931.33 1146.5 1915.81 1151.72 1900.29 1156.94 1882.83 1159.7 1863.44 1160L1863.44 1111.22C1884.33 1110.62 1900.96 1104.58 1913.35 1093.09 1925.73 1081.61 1931.93 1064.23 1931.93 1040.96ZM4102 809.136 4102 859.706C4083.2 858.811 4066.93 863.361 4053.21 873.357 4039.48 883.351 4030.67 896.554 4026.8 912.963 4025.6 917.736 4024.63 924.151 4023.89 932.207 4023.14 940.261 4022.77 950.406 4022.77 962.638L4022.77 1066.02 3965.47 1066.02 3965.47 815.401 4022.77 815.401 4022.77 836.435C4033.21 826.589 4045.37 819.579 4059.25 815.401 4073.13 811.223 4087.38 809.136 4102 809.136ZM1621.26 809.136 1621.26 859.706C1602.45 858.811 1586.19 863.361 1572.46 873.357 1558.73 883.351 1549.93 896.554 1546.05 912.963 1544.86 917.736 1543.89 924.151 1543.14 932.207 1542.39 940.261 1542.02 950.406 1542.02 962.638L1542.02 1066.02 1484.72 1066.02 1484.72 815.401 1542.02 815.401 1542.02 836.435C1552.47 826.589 1564.63 819.579 1578.5 815.401 1592.38 811.223 1606.63 809.136 1621.26 809.136ZM3797.6 808.688C3815.5 808.688 3832.06 811.895 3847.29 818.31 3862.51 824.725 3875.71 833.676 3886.9 845.162 3898.09 856.648 3906.9 870.522 3913.31 886.783 3919.73 903.043 3922.94 921.019 3922.94 940.71 3922.94 960.4 3919.73 978.378 3913.31 994.637 3906.9 1010.9 3898.09 1024.77 3886.9 1036.26 3875.71 1047.75 3862.51 1056.7 3847.29 1063.11 3832.06 1069.52 3815.5 1072.73 3797.6 1072.73 3779.69 1072.73 3763.05 1069.52 3747.68 1063.11 3732.31 1056.7 3719.03 1047.75 3707.84 1036.26 3696.65 1024.77 3687.92 1010.9 3681.65 994.637 3675.39 978.378 3672.25 960.4 3672.25 940.71 3672.25 921.019 3675.39 903.043 3681.65 886.783 3687.92 870.522 3696.65 856.648 3707.84 845.162 3719.03 833.676 3732.31 824.725 3747.68 818.31 3763.05 811.895 3779.69 808.688 3797.6 808.688ZM3368.59 808.688C3392.77 808.688 3414.03 813.909 3432.39 824.352 3450.74 834.794 3465.29 849.115 3476.03 867.315L3432.61 895.957C3425.75 883.425 3416.94 873.803 3406.2 867.09 3395.45 860.377 3382.92 857.022 3368.59 857.022 3359.04 857.022 3350.17 859.036 3341.96 863.063 3333.75 867.09 3326.59 872.834 3320.47 880.293 3314.35 887.752 3309.5 896.554 3305.92 906.697 3302.34 916.841 3300.55 928.178 3300.55 940.71 3300.55 953.241 3302.34 964.578 3305.92 974.723 3309.5 984.866 3314.35 993.668 3320.47 1001.13 3326.59 1008.59 3333.75 1014.33 3341.96 1018.36 3350.17 1022.39 3359.04 1024.4 3368.59 1024.4 3384.71 1024.4 3398.74 1019.7 3410.68 1010.3 3422.61 1000.9 3431.57 987.849 3437.53 971.142L3483.19 995.756C3478.72 1007.39 3472.75 1017.91 3465.29 1027.31 3457.83 1036.71 3449.17 1044.76 3439.32 1051.47 3429.48 1058.19 3418.58 1063.41 3406.65 1067.14 3394.71 1070.87 3382.02 1072.73 3368.59 1072.73 3350.69 1072.73 3334.05 1069.52 3318.68 1063.11 3303.31 1056.7 3290.03 1047.75 3278.84 1036.26 3267.65 1024.77 3258.92 1010.9 3252.65 994.637 3246.39 978.378 3243.25 960.4 3243.25 940.71 3243.25 921.019 3246.39 903.043 3252.65 886.783 3258.92 870.522 3267.65 856.648 3278.84 845.162 3290.03 833.676 3303.31 824.725 3318.68 818.31 3334.05 811.895 3350.69 808.688 3368.59 808.688ZM2435.98 808.688C2460.16 808.688 2481.42 813.909 2499.78 824.352 2518.13 834.794 2532.68 849.115 2543.42 867.315L2500 895.957C2493.14 883.425 2484.33 873.803 2473.59 867.09 2462.84 860.377 2450.31 857.022 2435.98 857.022 2426.43 857.022 2417.55 859.036 2409.35 863.063 2401.14 867.09 2393.98 872.834 2387.86 880.293 2381.74 887.752 2376.89 896.554 2373.31 906.697 2369.73 916.841 2367.94 928.178 2367.94 940.71 2367.94 953.241 2369.73 964.578 2373.31 974.723 2376.89 984.866 2381.74 993.668 2387.86 1001.13 2393.98 1008.59 2401.14 1014.33 2409.35 1018.36 2417.55 1022.39 2426.43 1024.4 2435.98 1024.4 2452.1 1024.4 2466.13 1019.7 2478.06 1010.3 2490 1000.9 2498.96 987.849 2504.92 971.142L2550.58 995.756C2546.11 1007.39 2540.14 1017.91 2532.68 1027.31 2525.22 1036.71 2516.56 1044.76 2506.71 1051.47 2496.87 1058.19 2485.97 1063.41 2474.03 1067.14 2462.1 1070.87 2449.41 1072.73 2435.98 1072.73 2418.08 1072.73 2401.44 1069.52 2386.07 1063.11 2370.7 1056.7 2357.42 1047.75 2346.23 1036.26 2335.04 1024.77 2326.31 1010.9 2320.04 994.637 2313.77 978.378 2310.64 960.4 2310.64 940.71 2310.64 921.019 2313.77 903.043 2320.04 886.783 2326.31 870.522 2335.04 856.648 2346.23 845.162 2357.42 833.676 2370.7 824.725 2386.07 818.31 2401.44 811.895 2418.08 808.688 2435.98 808.688ZM2151.72 808.688C2169.33 808.688 2185.52 811.82 2200.29 818.087 2215.07 824.352 2227.83 833.079 2238.57 844.267 2249.31 855.456 2257.67 868.733 2263.64 884.097 2269.61 899.463 2272.59 916.393 2272.59 934.891L2272.59 962.192 2090.84 962.192C2092.04 970.843 2094.5 978.899 2098.23 986.358 2101.96 993.816 2106.59 1000.38 2112.11 1006.05 2117.63 1011.72 2124.12 1016.19 2131.58 1019.48 2139.04 1022.76 2147.1 1024.4 2155.75 1024.4 2170.97 1024.4 2184.93 1020.07 2197.61 1011.42 2210.29 1002.77 2220.22 991.728 2227.38 978.302L2269.01 1010.08C2256.48 1029.17 2240.29 1044.39 2220.44 1055.72 2200.59 1067.06 2179.03 1072.73 2155.75 1072.73 2137.25 1072.73 2120.31 1069.52 2104.94 1063.11 2089.58 1056.7 2076.37 1047.75 2065.33 1036.26 2054.29 1024.77 2045.78 1010.9 2039.81 994.637 2033.84 978.378 2030.86 960.4 2030.86 940.71 2030.86 921.019 2033.99 903.043 2040.26 886.783 2046.53 870.522 2055.11 856.648 2066 845.162 2076.89 833.676 2089.72 824.725 2104.5 818.31 2119.27 811.895 2135.01 808.688 2151.72 808.688ZM1764.5 808.688C1782.41 808.688 1798.97 811.895 1814.19 818.31 1829.41 824.725 1842.62 833.676 1853.81 845.162 1865 856.648 1873.81 870.522 1880.22 886.783 1886.64 903.043 1889.85 921.019 1889.85 940.71 1889.85 960.4 1886.64 978.378 1880.22 994.637 1873.81 1010.9 1865 1024.77 1853.81 1036.26 1842.62 1047.75 1829.41 1056.7 1814.19 1063.11 1798.97 1069.52 1782.41 1072.73 1764.5 1072.73 1746.6 1072.73 1729.96 1069.52 1714.59 1063.11 1699.22 1056.7 1685.94 1047.75 1674.75 1036.26 1663.56 1024.77 1654.83 1010.9 1648.56 994.637 1642.29 978.378 1639.16 960.4 1639.16 940.71 1639.16 921.019 1642.29 903.043 1648.56 886.783 1654.83 870.522 1663.56 856.648 1674.75 845.162 1685.94 833.676 1699.22 824.725 1714.59 818.31 1729.96 811.895 1746.6 808.688 1764.5 808.688ZM2930.79 776.018 2930.79 906.25 2996.6 906.25C3006.74 906.25 3016.07 904.535 3024.57 901.103 3033.08 897.672 3040.39 892.973 3046.51 887.006 3052.63 881.039 3057.33 874.103 3060.61 866.196 3063.89 858.29 3065.53 849.86 3065.53 840.91 3065.53 831.959 3063.89 823.606 3060.61 815.849 3057.33 808.091 3052.63 801.229 3046.51 795.262 3040.39 789.295 3033.08 784.596 3024.57 781.165 3016.07 777.735 3006.74 776.018 2996.6 776.018ZM1252.09 776.018 1252.09 906.25 1317.9 906.25C1328.04 906.25 1337.37 904.535 1345.87 901.103 1354.38 897.672 1361.69 892.973 1367.81 887.006 1373.93 881.039 1378.63 874.103 1381.91 866.196 1385.19 858.29 1386.83 849.86 1386.83 840.91 1386.83 831.959 1385.19 823.606 1381.91 815.849 1378.63 808.091 1373.93 801.229 1367.81 795.262 1361.69 789.295 1354.38 784.596 1345.87 781.165 1337.37 777.735 1328.04 776.018 1317.9 776.018ZM3532.14 748.719 3589.44 748.719 3589.44 815.401 3653.9 815.401 3653.9 863.735 3589.44 863.735 3589.44 983.225C3589.44 996.054 3592.05 1006.12 3597.27 1013.43 3602.49 1020.74 3610.78 1024.4 3622.12 1024.4 3626 1024.4 3630.92 1024.25 3636.89 1023.95 3642.86 1023.65 3648.53 1022.91 3653.9 1021.71L3653.9 1070.05C3646.74 1071.54 3640.25 1072.36 3634.43 1072.51 3628.61 1072.66 3623.61 1072.73 3619.43 1072.73 3603.61 1072.73 3590.18 1070.72 3579.14 1066.69 3568.1 1062.66 3559.07 1056.77 3552.06 1049.01 3545.05 1041.26 3539.97 1031.86 3536.84 1020.82 3533.71 1009.78 3532.14 997.248 3532.14 983.225L3532.14 863.735 3488.72 863.735 3488.72 815.401 3532.14 815.401ZM2599.53 748.719 2656.83 748.719 2656.83 815.401 2721.29 815.401 2721.29 863.735 2656.83 863.735 2656.83 983.225C2656.83 996.054 2659.44 1006.12 2664.66 1013.43 2669.88 1020.74 2678.17 1024.4 2689.51 1024.4 2693.38 1024.4 2698.31 1024.25 2704.28 1023.95 2710.25 1023.65 2715.92 1022.91 2721.29 1021.71L2721.29 1070.05C2714.13 1071.54 2707.63 1072.36 2701.81 1072.51 2696 1072.66 2691 1072.73 2686.82 1072.73 2671 1072.73 2657.57 1070.72 2646.53 1066.69 2635.49 1062.66 2626.46 1056.77 2619.45 1049.01 2612.43 1041.26 2607.36 1031.86 2604.23 1020.82 2601.09 1009.78 2599.53 997.248 2599.53 983.225L2599.53 863.735 2556.1 863.735 2556.1 815.401 2599.53 815.401ZM2871.7 725.895 2996.6 725.895C3015.69 725.895 3033.15 728.953 3048.97 735.068 3064.79 741.186 3078.29 749.465 3089.48 759.908 3100.67 770.35 3109.33 782.508 3115.45 796.382 3121.56 810.254 3124.62 825.097 3124.62 840.91 3124.62 856.722 3121.56 871.566 3115.45 885.44 3109.33 899.314 3100.67 911.546 3089.48 922.137 3078.29 932.728 3064.79 941.084 3048.97 947.2 3033.15 953.315 3015.69 956.373 2996.6 956.373L2930.79 956.373 2930.79 1066.02 2871.7 1066.02ZM1193 725.895 1317.9 725.895C1337 725.895 1354.45 728.953 1370.27 735.068 1386.09 741.186 1399.59 749.465 1410.78 759.908 1421.97 770.35 1430.63 782.508 1436.75 796.382 1442.87 810.254 1445.92 825.097 1445.92 840.91 1445.92 856.722 1442.87 871.566 1436.75 885.44 1430.63 899.314 1421.97 911.546 1410.78 922.137 1399.59 932.728 1386.09 941.084 1370.27 947.2 1354.45 953.315 1337 956.373 1317.9 956.373L1252.09 956.373 1252.09 1066.02 1193 1066.02ZM3153.12 725 3215.8 725 3215.8 787.654 3153.12 787.654ZM1931.48 725 1994.15 725 1994.15 787.654 1931.48 787.654Z" fill="#817E82" fill-rule="evenodd"/><path d="M628.488 1083.29 644.865 1087.43 644.963 1087.43 646.202 1087.89 648.76 1087.78 654.576 1087.78 671.017 1083.71 671.004 1083.77 671.102 1088.99 670.99 1089.19C666.506 1094.94 659.48 1098.63 651.4 1098.63 643.32 1098.63 636.295 1094.94 631.81 1089.19ZM611.102 980.897 644.032 1020.94 640.015 1023.01C635.527 1024.32 630.624 1022.96 627.455 1019.12 627.448 1019.11 627.443 1019.1 627.438 1019.1L604.121 990.968 610.575 981.556 610.79 981.349ZM499.765 921.215 580.381 976.445 578.194 977.845C576.661 978.828 575.4 980.074 574.432 981.488L574.234 981.946 574.015 982.035C570.99 982.593 567.747 981.947 564.905 979.995L564.925 980.009 499.693 935 498.161 933.423 497.227 931.065C496.678 928.072 497.293 924.849 499.206 922.033 499.208 922.031 499.208 922.028 499.209 922.027ZM846.831 894.672 858.707 1009.63 686.029 1052.02 683.451 1052.13 661.479 1057.51 661.479 1046.33 661.479 1046.33 661.479 1046.03 661.288 1046.08 661.288 1045.44 661.62 1045.26 661.449 1045.04 661.591 1044.97 661.288 1044.44 661.288 1041.04 662.838 1039.78 662.983 1039.81C666.135 1039.98 669.346 1039.02 671.97 1036.9L788.693 942.528C791.438 940.309 793.18 937.082 793.528 933.57L794.436 924.372 803.954 925.276C807.382 925.601 810.801 924.572 813.481 922.41L813.865 922.1 814.139 921.955 842.245 899.232C843.956 897.849 845.424 896.278 846.831 894.672ZM697.416 849.753 697.733 849.918C699.356 850.395 701.071 850.56 702.786 850.387L708.341 849.821 709.284 854.105 711.308 857.593 711.608 860.454C713.154 865.356 717.507 869.106 722.946 869.623L726.666 869.977 727.612 875.934 730.22 880.646 730.455 882.889C732.001 887.791 736.353 891.541 741.792 892.058L745.259 892.388 746.246 898.567 749.138 903.788 749.298 905.319C750.844 910.221 755.197 913.971 760.636 914.488L761.862 914.605 762.054 924.86 665.17 1004.67 626.699 958.323 695.299 859.035C696.334 857.537 697.017 855.9 697.365 854.223ZM764.687 796.736 767.203 798.774 777.382 804.086 826.162 862.156 826.604 866.546C826.302 869.616 824.783 872.58 822.1 874.795 822.1 874.795 822.102 874.798 822.1 874.798L801.967 891.295 790.973 888.941 790.488 884.314C789.974 882.68 789.147 881.173 788.072 879.872L787.053 879.034 785.227 875.907C783.455 873.745 781.347 872.019 779.035 870.712L771.99 868.168 772.105 866.996C772.107 866.983 772.108 866.968 772.11 866.953 772.455 863.327 771.298 859.904 769.148 857.302L768.434 856.714 766.48 853.191C766.48 853.191 766.48 853.19 766.48 853.188 764.704 851.043 762.598 849.333 760.292 848.039L753.081 845.452 753.181 844.429C753.183 844.414 753.184 844.399 753.186 844.384 753.532 840.758 752.375 837.335 750.226 834.733L749.942 834.499 747.763 830.573C747.763 830.571 747.763 830.571 747.763 830.569 746.187 828.666 744.35 827.092 742.341 825.844L737.009 823.552 737.014 823.539 737.381 822.362 737.381 822.359 737.701 821.333C738.23 819.632 738.404 817.861 738.233 816.124L737.823 814.788 738.546 816.116 754.659 803.114 756.063 801.131 758.406 799.236 758.409 799.236C759.775 798.132 761.283 797.36 762.859 796.903ZM594.298 792.814C595.889 797.183 598.729 801.122 602.763 803.919 602.794 803.941 602.824 803.962 602.854 803.984 607.432 807.102 612.802 808.229 618.005 807.75 618.717 810.259 619.815 812.662 621.3 814.829L621.648 815.18 621.811 816.064C623.134 823.227 630.014 827.961 637.177 826.637 637.205 826.632 637.232 826.627 637.258 826.622L642.728 825.575 645.475 831.431 645.844 831.798 646.03 832.781C647.371 839.903 654.209 844.609 661.34 843.318L665.008 842.654 667.815 851.755 599.23 951.436 599.187 951.584 596.804 955.031 515.185 898.672 580.042 803.686 581.78 799.573 583.358 797.252 584.792 793.837 587.515 794.001C589.802 793.846 592.075 793.424 594.298 792.814ZM835.725 787.195 840.86 836.887 805.179 793.74ZM466.533 787.127 543.342 804.062 483.098 891.255 482.293 892.04 474.793 902.974C474.788 902.982 474.781 902.989 474.776 902.997 465.844 916.077 466.09 932.964 474.116 945.673L475.483 947.099 476.321 949.254C478.981 953.467 482.504 957.217 486.837 960.208 486.838 960.21 486.842 960.21 486.843 960.211L551.083 1004.93C559.68 1010.93 570.085 1012.92 579.698 1011.17L584.506 1009.23 583.533 1009.87 583.552 1009.89 583.422 1009.98 607.563 1039.65C607.569 1039.66 607.574 1039.67 607.581 1039.68 614.218 1047.8 623.669 1052.58 633.36 1053.54 633.881 1053.52 634.398 1053.47 634.912 1053.39L634.912 1057.16 614.126 1051.91 611.492 1051.78 444.251 1009.48ZM634.322 724.483C637.423 723.923 640.753 724.542 643.606 726.474L708.953 770.982C708.963 770.99 708.975 770.999 708.985 771.005 714.659 774.845 715.977 781.912 712.103 787.461 712.098 787.466 712.094 787.472 712.09 787.477L697.341 808.67C693.338 808.133 689.309 808.427 685.439 809.483 683.83 805.152 680.973 801.264 676.94 798.525 672.328 795.369 666.924 794.229 661.687 794.719 660.243 789.714 657.246 785.144 652.691 782.053 648.096 778.912 642.702 777.765 637.478 778.247 636.039 773.247 633.053 768.681 628.522 765.601 624.43 762.797 619.709 761.551 615.036 761.637 614.643 757.81 613.562 754.12 611.692 750.7L626.402 729.562C628.344 726.781 631.221 725.043 634.322 724.483ZM636.952 697.991C624.575 697.897 612.331 703.641 604.777 714.455 604.772 714.462 604.769 714.468 604.764 714.475L584.397 743.745C580.787 748.935 581.367 755.958 585.779 760.485L588.864 763.648C589.206 764.449 589.267 765.331 588.586 766.319L588.381 766.8 586.466 767.694 582.454 765.987C576.693 763.537 570.001 765.477 566.442 770.629L563.82 774.422 458.441 751.133C456.663 750.74 454.889 750.726 453.204 751.037 451.519 751.348 449.923 751.984 448.5 752.892L445.197 756.032 443.019 755.993C437.965 756.929 433.711 760.791 432.535 766.126 432.424 766.628 432.343 767.136 432.292 767.646L405.306 1035.74C404.65 1042.25 408.864 1048.26 415.207 1049.86L606.54 1098.06 609.005 1102.55C618.248 1116.07 633.861 1125.01 651.4 1125.01 668.939 1125.01 684.551 1116.07 693.794 1102.55L696.942 1096.82 887.709 1050.08C894.107 1048.51 898.368 1042.47 897.69 1035.91L869.937 767.829C869.888 767.358 869.814 766.891 869.715 766.43 868.571 761.086 864.342 757.198 859.293 756.231L857 756.257 853.773 753.153C850.938 751.32 847.404 750.569 843.842 751.334L771.712 766.821 769.297 766.173C766.229 765.73 763.11 765.65 760.016 765.939 756.304 766.286 752.626 767.166 749.11 768.591L741.035 773.407 739.789 773.675 734.399 760.057C731.702 755.849 728.14 752.116 723.773 749.16L658.422 704.649C658.411 704.642 658.401 704.635 658.389 704.629 651.851 700.204 644.378 698.046 636.952 697.991ZM298 558 1005 558 1005 1265 298 1265Z" fill="#B200FF" fill-rule="evenodd"/><g><g><g><path d="M162.437 0C127.333 1.5602e-06 98.8749 28.4579 98.8749 63.5625L98.8749 70.625 127.125 70.625 127.125 63.5625C127.125 44.0599 142.935 28.25 162.437 28.25 181.94 28.25 197.75 44.0599 197.75 63.5625 197.75 83.065 181.94 98.8749 162.437 98.8749L155.375 98.8749 127.125 98.8749 98.8749 98.8749 70.625 98.8749 63.5625 98.8749C28.4579 98.8749 4.08595e-06 127.333 2.52575e-06 162.437 4.08595e-06 197.542 28.4579 226 63.5625 226 98.667 226 127.125 197.542 127.125 162.437L127.125 155.375 98.8749 155.375 98.8749 162.437C98.8749 181.94 83.065 197.75 63.5625 197.75 44.0599 197.75 28.25 181.94 28.25 162.437 28.25 142.935 44.0599 127.125 63.5625 127.125L70.625 127.125 98.8749 127.125 127.125 127.125 155.375 127.125 162.437 127.125C197.542 127.125 226 98.667 226 63.5625 226 28.4579 197.542 4.08595e-06 162.437 2.52575e-06Z" fill="#7F7F7F" transform="matrix(1.00443 0 0 1 1690 1512)"/></g></g></g><path d="M2433.59 1540.23C2430.84 1540.23 2428.48 1540.94 2426.51 1542.36 2424.54 1543.78 2423.05 1545.82 2422.05 1548.49 2421.05 1551.15 2420.55 1554.27 2420.55 1557.85 2420.55 1561.44 2421.06 1564.58 2422.09 1567.28 2423.11 1569.97 2424.61 1572.06 2426.57 1573.54 2428.52 1575.02 2430.86 1575.77 2433.59 1575.77 2436.38 1575.77 2438.76 1575.01 2440.72 1573.49 2442.67 1571.97 2444.16 1569.86 2445.18 1567.15 2446.19 1564.44 2446.7 1561.34 2446.7 1557.85 2446.7 1554.39 2446.2 1551.33 2445.19 1548.67 2444.19 1546 2442.71 1543.93 2440.75 1542.45 2438.79 1540.97 2436.41 1540.23 2433.59 1540.23ZM2344.91 1540.23C2342.09 1540.23 2339.7 1540.97 2337.72 1542.45 2335.75 1543.93 2334.27 1546 2333.28 1548.67 2332.29 1551.33 2331.8 1554.39 2331.8 1557.85 2331.8 1561.34 2332.3 1564.44 2333.32 1567.15 2334.33 1569.86 2335.82 1571.97 2337.78 1573.49 2339.74 1575.01 2342.11 1575.77 2344.91 1575.77 2347.61 1575.77 2349.94 1575.02 2351.91 1573.54 2353.88 1572.06 2355.38 1569.97 2356.39 1567.28 2357.41 1564.58 2357.91 1561.44 2357.91 1557.85 2357.91 1554.27 2357.41 1551.15 2356.41 1548.49 2355.4 1545.82 2353.92 1543.78 2351.97 1542.36 2350.01 1540.94 2347.65 1540.23 2344.91 1540.23ZM2055.31 1539.83C2052.42 1539.83 2049.97 1540.63 2047.97 1542.23 2045.96 1543.83 2044.45 1546.01 2043.45 1548.75 2042.45 1551.5 2041.95 1554.59 2041.95 1558.03 2041.95 1561.47 2042.45 1564.55 2043.45 1567.28 2044.45 1570 2045.96 1572.15 2047.97 1573.74 2049.97 1575.33 2052.42 1576.12 2055.31 1576.12 2058.15 1576.12 2060.56 1575.33 2062.55 1573.74 2064.53 1572.15 2066.02 1569.99 2067.02 1567.26 2068.03 1564.52 2068.53 1561.45 2068.53 1558.03 2068.53 1554.59 2068.03 1551.5 2067.02 1548.75 2066.02 1546.01 2064.53 1543.83 2062.55 1542.23 2060.56 1540.63 2058.15 1539.83 2055.31 1539.83ZM2288.57 1539.69C2285.94 1539.69 2283.61 1540.31 2281.58 1541.55 2279.55 1542.8 2277.97 1544.47 2276.83 1546.59L2275.34 1552.66 2301.11 1552.66C2301.08 1550.18 2300.54 1547.95 2299.49 1546 2298.44 1544.04 2296.97 1542.5 2295.09 1541.38 2293.2 1540.25 2291.03 1539.69 2288.57 1539.69ZM2193.46 1539.69C2190.84 1539.69 2188.51 1540.31 2186.48 1541.55 2184.45 1542.8 2182.86 1544.47 2181.73 1546.59L2180.23 1552.66 2206 1552.66C2205.98 1550.18 2205.44 1547.95 2204.39 1546 2203.34 1544.04 2201.87 1542.5 2199.98 1541.38 2198.1 1540.25 2195.92 1539.69 2193.46 1539.69ZM2463.51 1530.34 2477.2 1530.34 2489.92 1571.93 2490.49 1571.93 2503.24 1530.34 2517 1530.34 2494.93 1592.06C2493.28 1596.6 2490.9 1600.06 2487.78 1602.44 2484.67 1604.81 2480.61 1606 2475.62 1606 2474.28 1606 2473.03 1605.98 2471.86 1605.95 2470.69 1605.91 2469.7 1605.84 2468.89 1605.75L2468.96 1595.4C2469.29 1595.42 2469.64 1595.44 2470 1595.47 2470.36 1595.49 2470.74 1595.5 2471.14 1595.5 2472.24 1595.55 2473.33 1595.58 2474.4 1595.58 2475.69 1595.58 2476.76 1595.46 2477.61 1595.23 2478.46 1595.01 2479.29 1594.45 2480.1 1593.55 2480.91 1592.66 2481.66 1591.29 2482.36 1589.45L2483.47 1586.51ZM2083.24 1530.34 2096.42 1530.34 2106.13 1569.1 2106.63 1569.1 2116.52 1530.34 2129.56 1530.34 2139.45 1568.89 2139.99 1568.89 2149.55 1530.34 2162.74 1530.34 2147.15 1585.37 2133.75 1585.37 2123.36 1548.07 2122.61 1548.07 2112.3 1585.37 2098.82 1585.37ZM2288.35 1529.63C2293.03 1529.63 2297.27 1530.63 2301.07 1532.63 2304.87 1534.64 2307.89 1537.72 2310.13 1541.88 2312.38 1546.03 2313.5 1551.21 2313.5 1557.42L2313.5 1561.4 2275.22 1561.4 2276.87 1569.26C2278.03 1571.57 2279.66 1573.34 2281.78 1574.57 2283.89 1575.8 2286.37 1576.41 2289.21 1576.41 2291.03 1576.41 2292.67 1576.17 2294.14 1575.68 2295.61 1575.19 2296.87 1574.51 2297.92 1573.63 2298.97 1572.76 2299.78 1571.77 2300.35 1570.64L2312.96 1570.64C2312.18 1573.82 2310.71 1576.6 2308.56 1578.97 2306.41 1581.35 2303.67 1583.19 2300.34 1584.49 2297 1585.79 2293.24 1586.44 2289.03 1586.44 2283.59 1586.44 2278.85 1585.29 2274.81 1583 2270.77 1580.71 2267.68 1577.43 2265.53 1573.15 2263.38 1568.88 2262.31 1563.88 2262.31 1558.18 2262.31 1552.56 2263.39 1547.6 2265.55 1543.27 2267.71 1538.95 2270.76 1535.6 2274.7 1533.21 2278.64 1530.82 2283.19 1529.63 2288.35 1529.63ZM2193.25 1529.63C2197.93 1529.63 2202.17 1530.63 2205.97 1532.63 2209.76 1534.64 2212.78 1537.72 2215.03 1541.88 2217.27 1546.03 2218.4 1551.21 2218.4 1557.42L2218.4 1561.4 2180.11 1561.4 2181.77 1569.26C2182.92 1571.57 2184.56 1573.34 2186.67 1574.57 2188.79 1575.8 2191.27 1576.41 2194.11 1576.41 2195.92 1576.41 2197.56 1576.17 2199.03 1575.68 2200.5 1575.19 2201.76 1574.51 2202.81 1573.63 2203.86 1572.76 2204.68 1571.77 2205.25 1570.64L2217.86 1570.64C2217.07 1573.82 2215.6 1576.6 2213.45 1578.97 2211.3 1581.35 2208.56 1583.19 2205.23 1584.49 2201.9 1585.79 2198.13 1586.44 2193.93 1586.44 2188.48 1586.44 2183.74 1585.29 2179.71 1583 2175.67 1580.71 2172.58 1577.43 2170.43 1573.15 2168.28 1568.88 2167.2 1563.88 2167.2 1558.18 2167.2 1552.56 2168.28 1547.6 2170.45 1543.27 2172.61 1538.95 2175.66 1535.6 2179.6 1533.21 2183.54 1530.82 2188.09 1529.63 2193.25 1529.63ZM2055.27 1529.63C2060.55 1529.63 2065.19 1530.81 2069.17 1533.17 2073.16 1535.54 2076.23 1538.87 2078.38 1543.17 2080.53 1547.46 2081.6 1552.43 2081.6 1558.07 2081.6 1563.7 2080.53 1568.66 2078.38 1572.94 2076.23 1577.21 2073.16 1580.53 2069.17 1582.89 2065.19 1585.26 2060.55 1586.44 2055.27 1586.44 2049.97 1586.44 2045.33 1585.26 2041.36 1582.89 2037.38 1580.53 2034.3 1577.21 2032.13 1572.94 2029.96 1568.66 2028.87 1563.7 2028.87 1558.07 2028.87 1552.43 2029.96 1547.46 2032.13 1543.17 2034.3 1538.87 2037.38 1535.54 2041.36 1533.17 2045.33 1530.81 2049.97 1529.63 2055.27 1529.63ZM2252.46 1529.55C2253.22 1529.55 2254.02 1529.58 2254.86 1529.64 2255.69 1529.7 2256.46 1529.79 2257.15 1529.91L2257.15 1541.77C2256.46 1541.58 2255.54 1541.4 2254.39 1541.25 2253.24 1541.09 2252.16 1541.02 2251.13 1541.02 2248.77 1541.02 2246.64 1541.52 2244.75 1542.54 2242.87 1543.55 2241.39 1544.97 2240.31 1546.78 2239.24 1548.6 2238.7 1550.65 2238.7 1552.95L2238.7 1585.37 2225.77 1585.37 2225.77 1530.34 2238.3 1530.34 2238.3 1539.51 2238.88 1539.51C2239.52 1537.43 2240.51 1535.64 2241.85 1534.12 2243.19 1532.6 2244.76 1531.46 2246.58 1530.7 2248.39 1529.94 2250.35 1529.55 2252.46 1529.55ZM1980.18 1523.03 1980.18 1549.69 1992.51 1549.69C1995.73 1549.69 1998.41 1549.12 2000.55 1547.98 2002.69 1546.85 2004.28 1545.29 2005.32 1543.29 2006.35 1541.3 2006.87 1538.96 2006.87 1536.29 2006.87 1533.61 2006.35 1531.28 2005.32 1529.3 2004.28 1527.32 2002.69 1525.78 2000.55 1524.68 1998.41 1523.58 1995.72 1523.03 1992.47 1523.03ZM2407.94 1512 2420.87 1512 2420.87 1539.41 2421.37 1539.41C2421.44 1539.26 2421.52 1539.12 2421.6 1538.97 2421.69 1538.83 2421.76 1538.68 2421.84 1538.51 2422.77 1536.84 2423.84 1535.37 2425.04 1534.12 2426.25 1532.87 2427.86 1531.8 2429.88 1530.93 2431.9 1530.06 2434.3 1529.63 2437.1 1529.63 2441.4 1529.63 2445.27 1530.72 2448.71 1532.92 2452.14 1535.12 2454.86 1538.35 2456.86 1542.63 2458.85 1546.9 2459.85 1552 2459.85 1557.93 2459.85 1563.82 2458.87 1568.91 2456.91 1573.19 2454.95 1577.46 2452.25 1580.72 2448.81 1582.97 2445.37 1585.21 2441.48 1586.33 2437.13 1586.33 2434.32 1586.33 2431.87 1585.88 2429.81 1584.97 2427.74 1584.06 2426.09 1582.97 2424.86 1581.68 2423.63 1580.39 2422.56 1578.91 2421.66 1577.23 2421.61 1577.14 2421.56 1577.05 2421.51 1576.97 2421.47 1576.88 2421.42 1576.79 2421.37 1576.7L2420.62 1576.7 2420.62 1585.37 2407.94 1585.37ZM2357.63 1512 2370.52 1512 2370.52 1585.37 2357.88 1585.37 2357.88 1576.7 2357.12 1576.7C2357.08 1576.79 2357.03 1576.88 2356.98 1576.97 2356.93 1577.05 2356.89 1577.14 2356.84 1577.23 2355.88 1578.93 2354.79 1580.42 2353.56 1581.69 2352.33 1582.97 2350.69 1584.06 2348.65 1584.97 2346.61 1585.88 2344.17 1586.33 2341.33 1586.33 2336.98 1586.33 2333.09 1585.21 2329.66 1582.97 2326.24 1580.72 2323.54 1577.46 2321.57 1573.19 2319.6 1568.91 2318.61 1563.82 2318.61 1557.93 2318.61 1552 2319.61 1546.9 2321.6 1542.63 2323.6 1538.35 2326.31 1535.12 2329.75 1532.92 2333.19 1530.72 2337.06 1529.63 2341.36 1529.63 2344.2 1529.63 2346.64 1530.07 2348.67 1530.97 2350.7 1531.86 2352.32 1532.96 2353.52 1534.25 2354.73 1535.54 2355.8 1537.02 2356.73 1538.69 2356.8 1538.81 2356.87 1538.93 2356.93 1539.05 2356.99 1539.17 2357.05 1539.29 2357.12 1539.41L2357.63 1539.41ZM1967 1512 1994.48 1512C1999.97 1512 2004.66 1513.04 2008.54 1515.12 2012.42 1517.19 2015.36 1520.06 2017.35 1523.71 2019.35 1527.37 2020.34 1531.56 2020.34 1536.29 2020.34 1541.04 2019.34 1545.24 2017.33 1548.9 2015.33 1552.55 2012.37 1555.41 2008.45 1557.46 2004.53 1559.51 1999.82 1560.54 1994.3 1560.54L1980.18 1560.54 1980.18 1585.37 1967 1585.37Z" fill="#7F7F7F" fill-rule="evenodd"/><path d="M2206.08 1684.51 2205.29 1684.57C2204.46 1684.62 2203.45 1684.68 2202.27 1684.74 2199.97 1684.87 2197.64 1685.02 2195.28 1685.19 2192.92 1685.35 2190.97 1685.5 2189.43 1685.63 2185.1 1685.96 2181.73 1687.03 2179.32 1688.84 2176.91 1690.65 2175.7 1693.19 2175.7 1696.44 2175.7 1698.58 2176.24 1700.4 2177.32 1701.88 2178.41 1703.36 2179.91 1704.49 2181.83 1705.26 2183.74 1706.03 2185.95 1706.42 2188.44 1706.42 2191.95 1706.42 2195.04 1705.71 2197.72 1704.3 2200.39 1702.88 2202.46 1700.98 2203.92 1698.59 2205.38 1696.21 2206.11 1693.6 2206.11 1690.77ZM2474.11 1655.75C2470.24 1655.75 2466.95 1656.77 2464.24 1658.79 2461.54 1660.81 2459.5 1663.64 2458.14 1667.26 2456.78 1670.88 2456.1 1675.03 2456.1 1679.7 2456.1 1684.38 2456.78 1688.46 2458.14 1691.95 2459.5 1695.44 2461.54 1698.14 2464.24 1700.05 2466.95 1701.96 2470.24 1702.91 2474.11 1702.91 2477.88 1702.91 2481.1 1702 2483.78 1700.17 2486.45 1698.35 2488.48 1695.69 2489.88 1692.2 2491.27 1688.71 2491.97 1684.54 2491.97 1679.7 2491.97 1674.9 2491.28 1670.68 2489.9 1667.06 2488.52 1663.44 2486.49 1660.65 2483.8 1658.69 2481.11 1656.73 2477.88 1655.75 2474.11 1655.75ZM2675.76 1655.01C2672.15 1655.01 2668.95 1655.87 2666.16 1657.58 2663.38 1659.29 2661.2 1661.61 2659.64 1664.52L2657.59 1672.89 2692.98 1672.89C2692.94 1669.47 2692.21 1666.4 2690.76 1663.7 2689.32 1661 2687.3 1658.88 2684.71 1657.33 2682.12 1655.79 2679.14 1655.01 2675.76 1655.01ZM2524.21 1642.12 2541.97 1642.12 2541.97 1717.98 2524.21 1717.98ZM2025.51 1642.12 2044.31 1642.12 2061.77 1699.46 2062.56 1699.46 2080.07 1642.12 2098.97 1642.12 2068.66 1727.21C2066.4 1733.47 2063.13 1738.23 2058.85 1741.51 2054.57 1744.78 2049 1746.42 2042.14 1746.42 2040.31 1746.42 2038.58 1746.4 2036.98 1746.35 2035.37 1746.3 2034.01 1746.21 2032.89 1746.07L2032.99 1731.8C2033.45 1731.84 2033.93 1731.87 2034.42 1731.9 2034.91 1731.93 2035.44 1731.95 2035.99 1731.95 2037.5 1732.02 2038.99 1732.05 2040.47 1732.05 2042.24 1732.05 2043.71 1731.89 2044.87 1731.58 2046.04 1731.27 2047.18 1730.49 2048.29 1729.26 2049.41 1728.03 2050.44 1726.14 2051.39 1723.61L2052.92 1719.56ZM2675.46 1641.14C2681.89 1641.14 2687.71 1642.52 2692.93 1645.28 2698.14 1648.05 2702.29 1652.3 2705.38 1658.02 2708.46 1663.75 2710 1670.9 2710 1679.46L2710 1684.94 2657.42 1684.94 2659.69 1695.78C2661.29 1698.95 2663.53 1701.39 2666.43 1703.09 2669.34 1704.78 2672.74 1705.63 2676.64 1705.63 2679.14 1705.63 2681.39 1705.29 2683.41 1704.62 2685.43 1703.94 2687.16 1703 2688.6 1701.8 2690.04 1700.6 2691.16 1699.23 2691.94 1697.68L2709.26 1697.68C2708.18 1702.06 2706.16 1705.89 2703.21 1709.16 2700.26 1712.44 2696.5 1714.97 2691.92 1716.77 2687.34 1718.56 2682.17 1719.46 2676.4 1719.46 2668.92 1719.46 2662.41 1717.88 2656.87 1714.72 2651.32 1711.56 2647.07 1707.03 2644.12 1701.14 2641.17 1695.24 2639.7 1688.36 2639.7 1680.49 2639.7 1672.76 2641.18 1665.91 2644.15 1659.95 2647.12 1653.99 2651.31 1649.37 2656.72 1646.07 2662.13 1642.78 2668.38 1641.14 2675.46 1641.14ZM2600.22 1641.14C2605.4 1641.14 2609.95 1642.26 2613.85 1644.52 2617.75 1646.77 2620.77 1650.04 2622.9 1654.32 2625.03 1658.6 2626.1 1663.72 2626.1 1669.68L2626.1 1717.98 2608.34 1717.98 2608.34 1672.4C2608.34 1669.04 2607.76 1666.14 2606.59 1663.7 2605.43 1661.27 2603.74 1659.41 2601.52 1658.12 2599.31 1656.84 2596.68 1656.2 2593.63 1656.2 2590.48 1656.2 2587.7 1656.88 2585.29 1658.25 2582.88 1659.61 2580.99 1661.61 2579.63 1664.22 2578.27 1666.84 2577.59 1669.94 2577.59 1673.53L2577.59 1717.98 2559.83 1717.98 2559.83 1642.12 2576.8 1642.12 2576.8 1655.01 2577.74 1655.01C2578.89 1652.15 2580.51 1649.69 2582.61 1647.63 2584.71 1645.57 2587.24 1643.98 2590.21 1642.84 2593.18 1641.7 2596.51 1641.14 2600.22 1641.14ZM2469.24 1641.14C2473.11 1641.14 2476.44 1641.75 2479.22 1642.99 2482.01 1644.22 2484.24 1645.72 2485.92 1647.48 2487.59 1649.24 2489.08 1651.26 2490.39 1653.53 2490.52 1653.7 2490.63 1653.88 2490.71 1654.07 2490.79 1654.27 2490.88 1654.45 2490.98 1654.62L2491.92 1654.62 2491.92 1642.12 2509.38 1642.12 2509.38 1719.21C2509.38 1725.5 2507.88 1730.8 2504.88 1735.11 2501.88 1739.42 2497.72 1742.65 2492.39 1744.79 2487.06 1746.93 2480.91 1748 2473.96 1748 2467.37 1748 2461.6 1747.06 2456.64 1745.19 2451.69 1743.31 2447.79 1740.62 2444.93 1737.11 2442.08 1733.61 2440.44 1729.48 2440.01 1724.74L2457.77 1724.74C2458.2 1726.95 2459.14 1728.78 2460.58 1730.25 2462.02 1731.71 2463.9 1732.8 2466.21 1733.51 2468.52 1734.21 2471.21 1734.57 2474.26 1734.57 2479.83 1734.57 2484.16 1733.28 2487.24 1730.72 2490.33 1728.15 2491.87 1724.17 2491.87 1718.77L2491.87 1704.35 2490.93 1704.35C2490.9 1704.38 2490.87 1704.44 2490.84 1704.52 2490.8 1704.6 2490.77 1704.66 2490.74 1704.69 2489.52 1707 2488.06 1709.01 2486.36 1710.74 2484.65 1712.47 2482.37 1713.93 2479.5 1715.11 2476.63 1716.3 2473.19 1716.89 2469.19 1716.89 2463.25 1716.89 2457.92 1715.47 2453.2 1712.62 2448.48 1709.77 2444.76 1705.52 2442.06 1699.88 2439.35 1694.23 2438 1687.42 2438 1679.46 2438 1671.36 2439.37 1664.43 2442.1 1658.67 2444.84 1652.91 2448.57 1648.54 2453.3 1645.58 2458.02 1642.62 2463.33 1641.14 2469.24 1641.14ZM2398.37 1641.14C2403.56 1641.14 2408.1 1642.26 2412 1644.52 2415.91 1646.77 2418.92 1650.04 2421.06 1654.32 2423.19 1658.6 2424.25 1663.72 2424.25 1669.68L2424.25 1717.98 2406.49 1717.98 2406.49 1672.4C2406.49 1669.04 2405.91 1666.14 2404.75 1663.7 2403.58 1661.27 2401.89 1659.41 2399.68 1658.12 2397.46 1656.84 2394.83 1656.2 2391.78 1656.2 2388.63 1656.2 2385.85 1656.88 2383.44 1658.25 2381.03 1659.61 2379.15 1661.61 2377.79 1664.22 2376.42 1666.84 2375.74 1669.94 2375.74 1673.53L2375.74 1717.98 2357.98 1717.98 2357.98 1642.12 2374.96 1642.12 2374.96 1655.01 2375.89 1655.01C2377.04 1652.15 2378.66 1649.69 2380.76 1647.63 2382.86 1645.57 2385.39 1643.98 2388.36 1642.84 2391.33 1641.7 2394.67 1641.14 2398.37 1641.14ZM2192.82 1641.14C2198.17 1641.14 2203.15 1641.96 2207.75 1643.61 2212.36 1645.25 2216.17 1648.03 2219.17 1651.93 2222.17 1655.83 2223.67 1660.94 2223.67 1667.26L2223.67 1717.98 2206.7 1717.98 2206.7 1707.56 2206.11 1707.56C2204.92 1709.83 2203.35 1711.86 2201.38 1713.65 2199.41 1715.45 2196.96 1716.87 2194 1717.93 2191.05 1718.98 2187.67 1719.51 2183.87 1719.51 2179.01 1719.51 2174.68 1718.63 2170.85 1716.89 2167.03 1715.14 2164.02 1712.55 2161.83 1709.11 2159.63 1705.67 2158.53 1701.53 2158.53 1696.69 2158.53 1688.86 2161.15 1683.2 2166.4 1679.73 2171.65 1676.26 2178.42 1674.22 2186.72 1673.63 2188.89 1673.5 2191.52 1673.35 2194.62 1673.19 2197.72 1673.02 2200.58 1672.87 2203.2 1672.74 2204.12 1672.71 2204.9 1672.68 2205.54 1672.64L2206.03 1672.62 2206.01 1666.52C2206.01 1664.02 2205.48 1661.88 2204.43 1660.12 2203.38 1658.36 2201.83 1657.02 2199.78 1656.1 2197.73 1655.18 2195.25 1654.72 2192.33 1654.72 2189.74 1654.72 2187.47 1655.09 2185.52 1655.83 2183.56 1656.57 2181.97 1657.61 2180.74 1658.96 2179.51 1660.31 2178.67 1661.91 2178.21 1663.75L2161.09 1663.75C2161.52 1659.41 2163.05 1655.53 2165.69 1652.12 2168.33 1648.72 2171.97 1646.03 2176.61 1644.07 2181.25 1642.12 2186.66 1641.14 2192.82 1641.14ZM2145.3 1641.04C2146.35 1641.04 2147.44 1641.08 2148.59 1641.16 2149.74 1641.24 2150.79 1641.37 2151.74 1641.53L2151.74 1657.88C2150.79 1657.61 2149.53 1657.37 2147.95 1657.16 2146.38 1656.95 2144.89 1656.84 2143.48 1656.84 2140.23 1656.84 2137.31 1657.54 2134.72 1658.94 2132.13 1660.34 2130.09 1662.29 2128.62 1664.79 2127.14 1667.29 2126.4 1670.12 2126.4 1673.28L2126.4 1717.98 2108.64 1717.98 2108.64 1642.12 2125.86 1642.12 2125.86 1654.77 2126.65 1654.77C2127.54 1651.9 2128.9 1649.42 2130.73 1647.33 2132.57 1645.24 2134.73 1643.67 2137.23 1642.62 2139.72 1641.56 2142.41 1641.04 2145.3 1641.04ZM2275.71 1616.84 2341.19 1616.84 2341.19 1632.15 2293.81 1632.15 2293.81 1659.7 2337.75 1659.7 2337.75 1674.96 2293.81 1674.96 2293.81 1702.67 2341.53 1702.67 2341.53 1717.98 2275.71 1717.98ZM1967 1616.84 1985.1 1616.84 1985.1 1702.67 2029.58 1702.67 2029.58 1717.98 1967 1717.98ZM2533.11 1612C2534.95 1612 2536.66 1612.44 2538.23 1613.31 2539.8 1614.18 2541.06 1615.35 2541.99 1616.82 2542.93 1618.28 2543.4 1619.9 2543.4 1621.68 2543.4 1623.42 2542.93 1625.03 2541.99 1626.49 2541.06 1627.96 2539.8 1629.13 2538.23 1630 2536.66 1630.87 2534.95 1631.31 2533.11 1631.31 2531.28 1631.31 2529.56 1630.87 2527.97 1630 2526.38 1629.13 2525.13 1627.96 2524.21 1626.49 2523.29 1625.03 2522.83 1623.42 2522.83 1621.68 2522.83 1619.9 2523.29 1618.28 2524.21 1616.82 2525.13 1615.35 2526.38 1614.18 2527.97 1613.31 2529.56 1612.44 2531.28 1612 2533.11 1612Z" fill="#7F7F7F" fill-rule="evenodd"/></g></svg>