<svg width="4400" height="1886" xmlns="http://www.w3.org/2000/svg" xmlns:xlink="http://www.w3.org/1999/xlink" xml:space="preserve" overflow="hidden"><defs><clipPath id="clip0"><rect x="0" y="0" width="4400" height="1886"/></clipPath></defs><g clip-path="url(#clip0)"><rect x="0" y="0" width="4400" height="1886" fill="#FFFFFF" fill-opacity="0"/><path d="M2392.08 1608.94C2382.53 1609.05 2374.46 1611.74 2367.87 1616.99 2361.29 1622.25 2356.86 1629.39 2354.59 1638.44L2427.69 1638.44C2426.62 1629.87 2422.93 1622.85 2416.61 1617.4 2410.3 1611.94 2402.12 1609.12 2392.08 1608.94ZM2668.3 1584.59 2701.48 1584.59 2701.48 1662.79C2701.4 1673.93 2703.71 1682.46 2708.42 1688.38 2713.13 1694.29 2719.9 1697.31 2728.72 1697.42 2734.56 1697.4 2739.9 1695.96 2744.76 1693.1 2749.62 1690.25 2753.52 1685.85 2756.48 1679.92 2759.43 1673.98 2760.97 1666.38 2761.09 1657.11L2761.09 1584.59 2794 1584.59 2794 1724.21 2761.09 1724.21 2761.09 1703.65 2760.28 1703.65C2756.44 1711.23 2750.85 1717.17 2743.53 1721.46 2736.2 1725.74 2727.58 1727.92 2717.66 1728 2701.79 1727.83 2689.6 1722.49 2681.09 1712 2672.59 1701.51 2668.32 1686.91 2668.3 1668.2ZM2601.5 1584.59 2634.41 1584.59 2634.41 1724.21 2601.5 1724.21ZM2900.55 1580.8C2910.62 1580.85 2919.14 1583.42 2926.09 1588.49 2933.05 1593.57 2938.29 1600.84 2941.82 1610.29L2942.63 1610.29C2945.69 1601.19 2950.93 1594.03 2958.36 1588.8 2965.79 1583.57 2974.84 1580.9 2985.52 1580.8 3000.66 1580.97 3012.33 1586.31 3020.54 1596.8 3028.75 1607.29 3032.9 1621.89 3033 1640.6L3033 1724.21 2999.82 1724.21 2999.82 1646.01C2999.83 1634.87 2997.72 1626.34 2993.5 1620.42 2989.27 1614.51 2983.29 1611.49 2975.54 1611.38 2970.35 1611.4 2965.58 1612.81 2961.25 1615.61 2956.92 1618.4 2953.44 1622.71 2950.8 1628.52 2948.17 1634.34 2946.79 1641.79 2946.68 1650.88L2946.68 1724.21 2913.5 1724.21 2913.5 1646.01C2913.44 1634.87 2911.29 1626.34 2907.04 1620.42 2902.79 1614.51 2896.76 1611.49 2888.95 1611.38 2883.8 1611.4 2879.06 1612.84 2874.72 1615.7 2870.39 1618.55 2866.9 1622.95 2864.24 1628.88 2861.59 1634.82 2860.2 1642.42 2860.09 1651.69L2860.09 1724.21 2827.18 1724.21 2827.18 1584.59 2860.09 1584.59 2860.09 1605.15 2861.16 1605.15C2864.61 1597.57 2869.72 1591.63 2876.51 1587.35 2883.29 1583.06 2891.3 1580.88 2900.55 1580.8ZM2559.97 1580.8C2562.39 1580.81 2564.75 1581.03 2567.05 1581.46 2569.34 1581.89 2571.57 1582.48 2573.72 1583.24L2573.72 1615.16C2571.08 1614.35 2568.41 1613.74 2565.72 1613.34 2563.02 1612.93 2560.39 1612.73 2557.81 1612.73 2546.49 1612.81 2537.8 1616.81 2531.74 1624.75 2525.69 1632.69 2522.59 1644.11 2522.47 1659L2522.47 1724.21 2489.56 1724.21 2489.56 1584.59 2522.47 1584.59 2522.47 1605.42 2523.55 1605.42C2527.27 1597.83 2532.27 1591.85 2538.57 1587.48 2544.87 1583.11 2552 1580.89 2559.97 1580.8ZM2392.08 1580.8C2405.98 1580.92 2418.17 1584.11 2428.63 1590.38 2439.09 1596.65 2447.25 1605.3 2453.1 1616.32 2458.95 1627.34 2461.9 1640.03 2461.95 1654.4 2462.01 1656.23 2461.99 1658.05 2461.88 1659.86 2461.78 1661.67 2461.62 1663.46 2461.41 1665.22L2353.78 1665.22C2355.5 1675.9 2360.05 1684.31 2367.43 1690.46 2374.82 1696.6 2384.02 1699.73 2395.05 1699.86 2403.03 1699.81 2409.83 1698.05 2415.43 1694.6 2421.04 1691.15 2425.31 1686.32 2428.23 1680.11L2457.09 1691.47C2451.51 1702.76 2443.43 1711.64 2432.87 1718.11 2422.3 1724.58 2409.61 1727.87 2394.78 1728 2379.98 1727.87 2366.99 1724.64 2355.84 1718.3 2344.68 1711.96 2335.96 1703.27 2329.69 1692.24 2323.42 1681.21 2320.21 1668.6 2320.06 1654.4 2320.22 1640.03 2323.4 1627.34 2329.59 1616.32 2335.78 1605.3 2344.26 1596.65 2355.04 1590.38 2365.81 1584.11 2378.16 1580.92 2392.08 1580.8ZM2079.56 1580.8C2093.77 1580.92 2106.28 1584.26 2117.07 1590.81 2127.86 1597.36 2136.22 1606.38 2142.14 1617.87L2113.01 1630.86C2109.73 1624.67 2105.25 1619.9 2099.57 1616.55 2093.88 1613.2 2087.21 1611.48 2079.56 1611.38 2067.22 1611.65 2057.33 1615.67 2049.87 1623.45 2042.41 1631.23 2038.55 1641.55 2038.28 1654.4 2038.55 1667.25 2042.41 1677.57 2049.87 1685.35 2057.33 1693.13 2067.22 1697.15 2079.56 1697.42 2087.21 1697.32 2093.88 1695.6 2099.57 1692.25 2105.25 1688.9 2109.73 1684.13 2113.01 1677.94L2142.14 1690.93C2136.22 1702.42 2127.86 1711.44 2117.07 1717.99 2106.28 1724.54 2093.77 1727.88 2079.56 1728 2065.44 1727.87 2052.88 1724.61 2041.85 1718.24 2030.83 1711.86 2022.12 1703.16 2015.74 1692.12 2009.37 1681.09 2006.09 1668.51 2005.91 1654.4 2006.09 1640.29 2009.37 1627.71 2015.74 1616.68 2022.12 1605.64 2030.83 1596.94 2041.85 1590.56 2052.88 1584.19 2065.44 1580.93 2079.56 1580.8ZM1896.34 1566.73 1869.36 1644.12 1925.2 1644.12 1897.68 1566.73ZM2168.19 1528.31 2201.1 1528.31 2201.1 1605.15 2202.18 1605.15C2205.9 1597.57 2211.41 1591.63 2218.71 1587.35 2226 1583.06 2234.61 1580.88 2244.54 1580.8 2260.41 1580.97 2272.6 1586.31 2281.1 1596.8 2289.61 1607.29 2293.88 1621.89 2293.9 1640.6L2293.9 1724.21 2260.72 1724.21 2260.72 1646.01C2260.8 1634.87 2258.48 1626.34 2253.77 1620.42 2249.06 1614.51 2242.3 1611.49 2233.48 1611.38 2227.64 1611.4 2222.3 1612.84 2217.44 1615.7 2212.58 1618.55 2208.67 1622.95 2205.72 1628.88 2202.77 1634.82 2201.23 1642.42 2201.1 1651.69L2201.1 1724.21 2168.19 1724.21ZM1877.99 1528.31 1916.03 1528.31 1991.02 1724.21 1953.25 1724.21 1936.53 1676.59 1857.76 1676.59 1841.04 1724.21 1803 1724.21ZM2617.95 1521C2623.81 1521.18 2628.62 1523.12 2632.37 1526.8 2636.12 1530.48 2638.06 1535.23 2638.18 1541.02 2638.06 1546.9 2636.12 1551.69 2632.37 1555.4 2628.62 1559.11 2623.81 1560.99 2617.95 1561.05 2612.09 1560.99 2607.29 1559.11 2603.54 1555.4 2599.79 1551.69 2597.85 1546.9 2597.72 1541.02 2597.85 1535.23 2599.79 1530.48 2603.54 1526.8 2607.29 1523.12 2612.09 1521.18 2617.95 1521Z" fill="#817E82" fill-rule="evenodd"/><path d="M1509.01 1706.18 1723 1706.18 1723 1724 1509.01 1724ZM1473.5 1706.18 1491.26 1706.18 1491.26 1724 1473.5 1724ZM1438 1706.18 1455.75 1706.18 1455.75 1724 1438 1724ZM1402.5 1706.18 1420.25 1706.18 1420.25 1724 1402.5 1724ZM1473.5 1670.64 1723 1670.64 1723 1688.46 1473.5 1688.46ZM1438 1670.64 1455.75 1670.64 1455.75 1688.46 1438 1688.46ZM1544.51 1634.91 1723 1634.91 1723 1652.73 1544.51 1652.73ZM1509.01 1634.91 1526.76 1634.91 1526.76 1652.73 1509.01 1652.73ZM1455.66 1634.91 1491.06 1634.91 1491.06 1652.73 1455.66 1652.73ZM1420.25 1634.91 1438 1634.91 1438 1652.73 1420.25 1652.73ZM1367 1634.91 1402.4 1634.91 1402.4 1652.73 1367 1652.73ZM1509.01 1599.27 1723 1599.27 1723 1617.09 1509.01 1617.09ZM1473.5 1599.27 1491.26 1599.27 1491.26 1617.09 1473.5 1617.09ZM1438 1599.27 1455.75 1599.27 1455.75 1617.09 1438 1617.09ZM1402.5 1599.27 1420.25 1599.27 1420.25 1617.09 1402.5 1617.09ZM1491.26 1563.54 1723 1563.54 1723 1581.36 1491.26 1581.36ZM1455.75 1563.54 1473.5 1563.54 1473.5 1581.36 1455.75 1581.36ZM1420.25 1563.54 1438 1563.54 1438 1581.36 1420.25 1581.36ZM1544.51 1528 1723 1528 1723 1545.82 1544.51 1545.82ZM1509.01 1528 1526.76 1528 1526.76 1545.82 1509.01 1545.82ZM1455.75 1528 1491.26 1528 1491.26 1545.82 1455.75 1545.82ZM1402.5 1528 1438 1528 1438 1545.82 1402.5 1545.82ZM1367 1528 1384.75 1528 1384.75 1545.82 1367 1545.82Z" fill="#817E82" fill-rule="evenodd"/><path d="M860.329 1021.64 845.904 1047.23C804.989 1125.82 779.642 1213.8 773.945 1307.07L773.46 1323 699 1323 699 1211.14 712.584 1188.99C748.102 1134.25 790.389 1084.3 838.263 1040.33ZM1303.69 764.811 1293.42 821.736 1245.6 833.96 1293.42 846.184 1303.69 903.109 1313.96 846.184 1361.79 833.96 1313.96 821.736ZM1207.65 600.689 1192.35 685.496 1121.1 703.707 1192.35 721.918 1207.65 806.725 1222.96 721.918 1294.21 703.707 1222.96 685.496ZM699 563 1460 563 1460 1323 920.2 1323 919.722 1319.25C917.495 1297.34 916.354 1275.12 916.354 1252.63 916.354 1140.18 944.879 1034.38 995.098 942.055L1006.48 923.342 1047.07 903.279C1085.62 886.156 1125.83 872.098 1167.41 861.416L1185.89 857.156 1166.8 859.579C1120.53 866.638 1075.62 877.804 1032.45 892.691L1022.81 896.506 1027.78 888.333C1051.23 853.67 1077.93 821.381 1107.44 791.903L1140.83 761.604 1114.16 774.434C1037.89 815.81 970.81 871.931 916.749 938.967L910.635 947.082 908.534 948.136C834.824 989.288 768.574 1042.17 712.321 1104.26L699 1119.96Z" fill="#B200FF" fill-rule="evenodd"/><path d="M3163.66 881.009C3149.63 881.009 3136.58 883.97 3124.52 889.888 3112.46 895.805 3101.93 904.246 3092.94 915.207 3083.95 926.168 3076.82 939.103 3071.56 954.008 3066.3 968.916 3063.67 985.576 3063.67 1003.99 3063.67 1022.41 3066.3 1039.07 3071.56 1053.97 3076.82 1068.88 3083.95 1081.81 3092.94 1092.77 3101.93 1103.74 3112.46 1112.18 3124.52 1118.09 3136.58 1124.02 3149.63 1126.97 3163.66 1126.97 3177.69 1126.97 3190.74 1124.02 3202.8 1118.09 3214.86 1112.18 3225.39 1103.74 3234.38 1092.77 3243.37 1081.81 3250.5 1068.88 3255.76 1053.97 3261.02 1039.07 3263.66 1022.41 3263.66 1003.99 3263.66 985.576 3261.02 968.916 3255.76 954.008 3250.5 939.103 3243.37 926.168 3234.38 915.207 3225.39 904.246 3214.86 895.805 3202.8 889.888 3190.74 883.97 3177.69 881.009 3163.66 881.009ZM2220.52 819.847 2304.72 819.847 2304.72 1188.14 2220.52 1188.14ZM3611 810.641 3611 884.954C3583.37 883.639 3559.47 890.325 3539.3 905.014 3519.12 919.701 3506.18 939.103 3500.48 963.216 3498.73 970.23 3497.3 979.658 3496.21 991.496 3495.11 1003.33 3494.56 1018.24 3494.56 1036.22L3494.56 1188.14 3410.35 1188.14 3410.35 819.847 3494.56 819.847 3494.56 850.756C3509.91 836.288 3527.78 825.986 3548.18 819.847 3568.57 813.708 3589.51 810.641 3611 810.641ZM3163.66 809.982C3189.97 809.982 3214.31 814.694 3236.68 824.122 3259.05 833.549 3278.46 846.702 3294.9 863.581 3311.35 880.46 3324.29 900.849 3333.71 924.744 3343.15 948.639 3347.86 975.055 3347.86 1003.99 3347.86 1032.93 3343.15 1059.35 3333.71 1083.24 3324.29 1107.13 3311.35 1127.52 3294.9 1144.4 3278.46 1161.28 3259.05 1174.44 3236.68 1183.86 3214.31 1193.29 3189.97 1198 3163.66 1198 3137.35 1198 3112.9 1193.29 3090.31 1183.86 3067.72 1174.44 3048.21 1161.28 3031.76 1144.4 3015.31 1127.52 3002.49 1107.13 2993.28 1083.24 2984.07 1059.35 2979.46 1032.93 2979.46 1003.99 2979.46 975.055 2984.07 948.639 2993.28 924.744 3002.49 900.849 3015.31 880.46 3031.76 863.581 3048.21 846.702 3067.72 833.549 3090.31 824.122 3112.9 814.694 3137.35 809.982 3163.66 809.982ZM2533.22 809.982C2568.74 809.982 2599.99 817.655 2626.96 833 2653.93 848.345 2675.31 869.39 2691.1 896.136L2627.29 938.225C2617.2 919.81 2604.27 905.67 2588.48 895.805 2572.69 885.94 2554.27 881.009 2533.22 881.009 2519.18 881.009 2506.14 883.97 2494.08 889.888 2482.01 895.805 2471.49 904.246 2462.5 915.207 2453.51 926.168 2446.38 939.103 2441.12 954.008 2435.85 968.916 2433.22 985.576 2433.22 1003.99 2433.22 1022.41 2435.85 1039.07 2441.12 1053.97 2446.38 1068.88 2453.51 1081.81 2462.5 1092.77 2471.49 1103.74 2482.01 1112.18 2494.08 1118.09 2506.14 1124.02 2519.18 1126.97 2533.22 1126.97 2556.9 1126.97 2577.51 1120.07 2595.06 1106.26 2612.6 1092.45 2625.76 1073.26 2634.53 1048.71L2701.63 1084.88C2695.05 1101.98 2686.28 1117.44 2675.31 1131.25 2664.35 1145.06 2651.63 1156.9 2637.16 1166.76 2622.69 1176.63 2606.68 1184.3 2589.13 1189.78 2571.59 1195.26 2552.95 1198 2533.22 1198 2506.9 1198 2482.45 1193.29 2459.87 1183.86 2437.28 1174.44 2417.76 1161.28 2401.32 1144.4 2384.87 1127.52 2372.04 1107.13 2362.83 1083.24 2353.62 1059.35 2349.02 1032.93 2349.02 1003.99 2349.02 975.055 2353.62 948.639 2362.83 924.744 2372.04 900.849 2384.87 880.46 2401.32 863.581 2417.76 846.702 2437.28 833.549 2459.87 824.122 2482.45 814.694 2506.9 809.982 2533.22 809.982ZM1889.84 761.972 1889.84 953.352 1986.54 953.352C2001.45 953.352 2015.16 950.832 2027.66 945.788 2040.16 940.745 2050.9 933.841 2059.89 925.072 2068.88 916.303 2075.79 906.111 2080.61 894.49 2085.44 882.874 2087.85 870.486 2087.85 857.332 2087.85 844.179 2085.44 831.904 2080.61 820.506 2075.79 809.104 2068.88 799.021 2059.89 790.252 2050.9 781.483 2040.16 774.579 2027.66 769.536 2015.16 764.495 2001.45 761.972 1986.54 761.972ZM2773.55 721.857 2857.76 721.857 2857.76 819.847 2952.49 819.847 2952.49 890.874 2857.76 890.874 2857.76 1066.47C2857.76 1085.32 2861.6 1100.12 2869.27 1110.86 2876.95 1121.6 2889.12 1126.97 2905.78 1126.97 2911.48 1126.97 2918.72 1126.75 2927.49 1126.32 2936.26 1125.88 2944.6 1124.78 2952.49 1123.03L2952.49 1194.05C2941.96 1196.25 2932.42 1197.45 2923.88 1197.67 2915.32 1197.89 2907.97 1198 2901.84 1198 2878.59 1198 2858.85 1195.04 2842.63 1189.12 2826.4 1183.2 2813.14 1174.54 2802.83 1163.14 2792.52 1151.75 2785.07 1137.93 2780.46 1121.71 2775.86 1105.49 2773.55 1087.08 2773.55 1066.47L2773.55 890.874 2709.74 890.874 2709.74 819.847 2773.55 819.847ZM1803 688.315 1986.54 688.315C2014.61 688.315 2040.27 692.809 2063.51 701.796 2086.75 710.786 2106.6 722.953 2123.05 738.298 2139.49 753.643 2152.21 771.509 2161.2 791.898 2170.19 812.283 2174.69 834.096 2174.69 857.332 2174.69 880.569 2170.19 902.382 2161.2 922.77 2152.21 943.159 2139.49 961.134 2123.05 976.698 2106.6 992.262 2086.75 1004.54 2063.51 1013.53 2040.27 1022.52 2014.61 1027.01 1986.54 1027.01L1889.84 1027.01 1889.84 1188.14 1803 1188.14ZM2216.57 687 2308.67 687 2308.67 779.072 2216.57 779.072Z" fill="#817E82" fill-rule="evenodd"/></g></svg>