<svg width="4400" height="1886" xmlns="http://www.w3.org/2000/svg" xmlns:xlink="http://www.w3.org/1999/xlink" xml:space="preserve" overflow="hidden"><defs><clipPath id="clip0"><rect x="0" y="0" width="4400" height="1886"/></clipPath></defs><g clip-path="url(#clip0)"><rect x="0" y="0" width="4400" height="1886" fill="#FFFFFF" fill-opacity="0"/><path d="M1175.55 1091.45 1189.75 1095.04 1189.83 1095.04 1190.91 1095.44 1193.12 1095.35 1198.17 1095.35 1212.42 1091.81 1212.41 1091.86 1212.5 1096.39 1212.4 1096.57C1208.51 1101.55 1202.42 1104.75 1195.41 1104.75 1188.41 1104.75 1182.32 1101.55 1178.43 1096.57ZM1160.47 1002.67 1189.03 1037.39 1185.54 1039.19C1181.65 1040.32 1177.4 1039.14 1174.65 1035.81 1174.65 1035.8 1174.64 1035.8 1174.64 1035.79L1154.42 1011.4 1160.02 1003.24 1160.2 1003.06ZM1063.94 950.923 1133.84 998.81 1131.94 1000.02C1130.61 1000.88 1129.52 1001.96 1128.68 1003.18L1128.51 1003.58 1128.32 1003.66C1125.69 1004.14 1122.88 1003.58 1120.42 1001.89L1120.44 1001.9 1063.88 962.876 1062.55 961.508 1061.74 959.464C1061.26 956.869 1061.8 954.074 1063.45 951.633 1063.46 951.631 1063.46 951.628 1063.46 951.627ZM1364.86 927.909 1375.16 1027.58 1225.44 1064.34 1223.2 1064.43 1204.15 1069.1 1204.15 1059.41 1204.15 1059.41 1204.15 1059.14 1203.99 1059.19 1203.99 1058.63 1204.27 1058.48 1204.13 1058.29 1204.25 1058.22 1203.99 1057.76 1203.99 1054.81 1205.33 1053.72 1205.46 1053.75C1208.19 1053.9 1210.97 1053.06 1213.25 1051.22L1314.45 969.403C1316.83 967.479 1318.34 964.681 1318.64 961.635L1319.43 953.661 1327.68 954.444C1330.66 954.726 1333.62 953.834 1335.94 951.96L1336.28 951.691 1336.52 951.565 1360.88 931.863C1362.37 930.664 1363.64 929.302 1364.86 927.909ZM1235.31 888.963 1235.59 889.106C1236.99 889.519 1238.48 889.663 1239.97 889.512L1244.78 889.022 1245.6 892.736 1247.36 895.76 1247.62 898.241C1248.96 902.491 1252.73 905.743 1257.45 906.191L1260.67 906.497 1261.49 911.663 1263.75 915.749 1263.96 917.693C1265.3 921.943 1269.07 925.195 1273.79 925.643L1276.79 925.929 1277.65 931.287 1280.16 935.813 1280.3 937.141C1281.64 941.391 1285.41 944.643 1290.13 945.091L1291.19 945.192 1291.35 954.084 1207.35 1023.28 1174 983.098 1233.48 897.011C1234.37 895.712 1234.97 894.292 1235.27 892.838ZM1293.64 842.995 1295.82 844.761 1304.64 849.367 1346.94 899.717 1347.32 903.523C1347.06 906.185 1345.74 908.755 1343.42 910.675 1343.42 910.675 1343.42 910.678 1343.42 910.678L1325.96 924.981 1316.43 922.941 1316.01 918.928C1315.56 917.511 1314.85 916.206 1313.91 915.077L1313.03 914.351 1311.45 911.64C1309.91 909.765 1308.08 908.268 1306.08 907.135L1299.97 904.929 1300.07 903.913C1300.07 903.901 1300.07 903.889 1300.07 903.876 1300.37 900.732 1299.37 897.764 1297.51 895.508L1296.89 894.998 1295.19 891.944C1295.19 891.944 1295.19 891.942 1295.19 891.941 1293.65 890.081 1291.83 888.599 1289.83 887.477L1283.57 885.233 1283.66 884.346C1283.66 884.333 1283.66 884.32 1283.67 884.307 1283.97 881.164 1282.96 878.196 1281.1 875.939L1280.85 875.736 1278.96 872.332C1278.96 872.331 1278.96 872.331 1278.96 872.33 1277.6 870.679 1276 869.315 1274.26 868.233L1269.64 866.245 1269.64 866.234 1269.96 865.213 1269.96 865.211 1270.24 864.321C1270.7 862.847 1270.85 861.311 1270.7 859.805L1270.35 858.646 1270.97 859.798 1284.94 848.525 1286.16 846.805 1288.19 845.162 1288.19 845.162C1289.38 844.205 1290.69 843.535 1292.05 843.139ZM1145.9 839.594C1147.28 843.382 1149.75 846.797 1153.24 849.223 1153.27 849.242 1153.3 849.26 1153.32 849.279 1157.29 851.982 1161.95 852.959 1166.46 852.544 1167.08 854.719 1168.03 856.803 1169.31 858.682L1169.62 858.986 1169.76 859.753C1170.91 865.963 1176.87 870.068 1183.08 868.92 1183.11 868.916 1183.13 868.911 1183.15 868.907L1187.89 868 1190.28 873.077 1190.6 873.395 1190.76 874.248C1191.92 880.422 1197.85 884.502 1204.03 883.383L1207.21 882.808 1209.65 890.699 1150.18 977.126 1150.14 977.255 1148.08 980.244 1077.31 931.378 1133.54 849.021 1135.05 845.454 1136.42 843.442 1137.66 840.481 1140.02 840.623C1142 840.489 1143.98 840.123 1145.9 839.594ZM1355.23 834.722 1359.68 877.807 1328.75 840.397ZM1035.13 834.663 1101.72 849.347 1049.49 924.946 1048.79 925.628 1042.29 935.107C1042.28 935.114 1042.28 935.12 1042.27 935.127 1034.53 946.468 1034.74 961.11 1041.7 972.129L1042.89 973.365 1043.61 975.234C1045.92 978.888 1048.97 982.139 1052.73 984.732 1052.73 984.733 1052.73 984.733 1052.74 984.735L1108.43 1023.51C1115.89 1028.71 1124.91 1030.44 1133.24 1028.92L1137.41 1027.24 1136.57 1027.79 1136.59 1027.81 1136.47 1027.88 1157.4 1053.61C1157.41 1053.62 1157.41 1053.63 1157.42 1053.64 1163.17 1060.67 1171.37 1064.82 1179.77 1065.66 1180.22 1065.64 1180.67 1065.59 1181.12 1065.52L1181.12 1068.79 1163.09 1064.24 1160.81 1064.13 1015.81 1027.45ZM1180.61 780.348C1183.29 779.862 1186.18 780.4 1188.66 782.074L1245.31 820.665C1245.32 820.672 1245.33 820.679 1245.34 820.685 1250.26 824.014 1251.4 830.142 1248.05 834.952 1248.04 834.957 1248.04 834.963 1248.03 834.967L1235.25 853.342C1231.77 852.876 1228.28 853.131 1224.93 854.046 1223.53 850.292 1221.05 846.921 1217.56 844.545 1213.56 841.809 1208.87 840.821 1204.33 841.246 1203.08 836.906 1200.48 832.944 1196.53 830.263 1192.55 827.54 1187.87 826.546 1183.34 826.964 1182.09 822.629 1179.51 818.669 1175.58 815.999 1172.03 813.568 1167.94 812.488 1163.88 812.562 1163.54 809.244 1162.61 806.045 1160.98 803.079L1173.74 784.752C1175.42 782.341 1177.92 780.834 1180.61 780.348ZM1182.89 757.379C1172.15 757.297 1161.54 762.277 1154.99 771.653 1154.98 771.659 1154.98 771.665 1154.98 771.671L1137.32 797.049C1134.19 801.549 1134.69 807.638 1138.52 811.563L1141.19 814.305C1141.49 815 1141.54 815.765 1140.95 816.622L1140.77 817.039 1139.11 817.814 1135.63 816.334C1130.64 814.21 1124.84 815.892 1121.75 820.358L1119.48 823.648 1028.11 803.455C1026.57 803.114 1025.03 803.102 1023.57 803.371 1022.11 803.641 1020.72 804.193 1019.49 804.98L1016.63 807.702 1014.74 807.668C1010.36 808.48 1006.67 811.829 1005.65 816.454 1005.55 816.89 1005.48 817.33 1005.44 817.773L982.039 1050.22C981.47 1055.87 985.124 1061.07 990.623 1062.46L1156.52 1104.26 1158.65 1108.15C1166.67 1119.88 1180.21 1127.62 1195.41 1127.62 1210.62 1127.62 1224.16 1119.88 1232.17 1108.15L1234.9 1103.18 1400.3 1062.66C1405.85 1061.3 1409.54 1056.05 1408.96 1050.37L1384.89 817.931C1384.85 817.523 1384.79 817.117 1384.7 816.718 1383.71 812.085 1380.04 808.714 1375.67 807.875L1373.68 807.898 1370.88 805.206C1368.42 803.617 1365.36 802.966 1362.27 803.629L1299.73 817.057 1297.64 816.495C1294.97 816.111 1292.27 816.042 1289.59 816.292 1286.37 816.593 1283.18 817.356 1280.13 818.591L1273.13 822.768 1272.05 823 1267.38 811.192C1265.04 807.544 1261.95 804.307 1258.16 801.744L1201.5 763.151C1201.49 763.145 1201.48 763.139 1201.47 763.134 1195.8 759.297 1189.32 757.426 1182.89 757.379ZM889 636 1502 636 1502 1249 889 1249Z" fill="#B200FF" fill-rule="evenodd"/><path d="M3126.26 890.053C3114.19 890.053 3102.97 892.602 3092.59 897.698 3082.22 902.793 3073.17 910.061 3065.44 919.499 3057.7 928.937 3051.57 940.074 3047.05 952.909 3042.52 965.745 3040.26 980.091 3040.26 995.947 3040.26 1011.8 3042.52 1026.15 3047.05 1038.99 3051.57 1051.82 3057.7 1062.96 3065.44 1072.4 3073.17 1081.83 3082.22 1089.1 3092.59 1094.2 3102.97 1099.29 3114.19 1101.84 3126.26 1101.84 3138.33 1101.84 3149.55 1099.29 3159.92 1094.2 3170.3 1089.1 3179.35 1081.83 3187.08 1072.4 3194.81 1062.96 3200.94 1051.82 3205.47 1038.99 3210 1026.15 3212.26 1011.8 3212.26 995.947 3212.26 980.091 3210 965.745 3205.47 952.909 3200.94 940.074 3194.81 928.937 3187.08 919.499 3179.35 910.061 3170.3 902.793 3159.92 897.698 3149.55 892.602 3138.33 890.053 3126.26 890.053ZM2315.09 837.388 2387.52 837.388 2387.52 1154.51 2315.09 1154.51ZM3511 829.461 3511 893.449C3487.24 892.317 3466.68 898.074 3449.33 910.722 3431.98 923.368 3420.85 940.074 3415.95 960.838 3414.44 966.877 3413.21 974.995 3412.27 985.188 3411.32 995.38 3410.85 1008.22 3410.85 1023.69L3410.85 1154.51 3338.43 1154.51 3338.43 837.388 3410.85 837.388 3410.85 864.003C3424.06 851.545 3439.43 842.675 3456.97 837.388 3474.51 832.102 3492.52 829.461 3511 829.461ZM3126.26 828.894C3148.89 828.894 3169.82 832.952 3189.06 841.069 3208.3 849.187 3224.99 860.513 3239.14 875.046 3253.28 889.58 3264.41 907.135 3272.52 927.711 3280.63 948.286 3284.68 971.031 3284.68 995.947 3284.68 1020.86 3280.63 1043.61 3272.52 1064.18 3264.41 1084.76 3253.28 1102.31 3239.14 1116.85 3224.99 1131.38 3208.3 1142.71 3189.06 1150.82 3169.82 1158.94 3148.89 1163 3126.26 1163 3103.63 1163 3082.6 1158.94 3063.17 1150.82 3043.75 1142.71 3026.96 1131.38 3012.82 1116.85 2998.67 1102.31 2987.64 1084.76 2979.72 1064.18 2971.8 1043.61 2967.83 1020.86 2967.83 995.947 2967.83 971.031 2971.8 948.286 2979.72 927.711 2987.64 907.135 2998.67 889.58 3012.82 875.046 3026.96 860.513 3043.75 849.187 3063.17 841.069 3082.6 832.952 3103.63 828.894 3126.26 828.894ZM2584.04 828.894C2614.59 828.894 2641.46 835.501 2664.66 848.714 2687.86 861.927 2706.25 880.048 2719.83 903.078L2664.94 939.319C2656.27 923.463 2645.14 911.287 2631.56 902.793 2617.98 894.299 2602.14 890.053 2584.04 890.053 2571.96 890.053 2560.74 892.602 2550.37 897.698 2540 902.793 2530.95 910.061 2523.21 919.499 2515.48 928.937 2509.35 940.074 2504.82 952.909 2500.3 965.745 2498.03 980.091 2498.03 995.947 2498.03 1011.8 2500.3 1026.15 2504.82 1038.99 2509.35 1051.82 2515.48 1062.96 2523.21 1072.4 2530.95 1081.83 2540 1089.1 2550.37 1094.2 2560.74 1099.29 2571.96 1101.84 2584.04 1101.84 2604.4 1101.84 2622.13 1095.9 2637.22 1084 2652.31 1072.11 2663.63 1055.6 2671.17 1034.45L2728.88 1065.6C2723.22 1080.32 2715.68 1093.63 2706.25 1105.52 2696.82 1117.42 2685.88 1127.61 2673.43 1136.1 2660.98 1144.6 2647.22 1151.2 2632.13 1155.92 2617.04 1160.64 2601.01 1163 2584.04 1163 2561.4 1163 2540.38 1158.94 2520.95 1150.82 2501.52 1142.71 2484.74 1131.38 2470.59 1116.85 2456.45 1102.31 2445.41 1084.76 2437.49 1064.18 2429.57 1043.61 2425.61 1020.86 2425.61 995.947 2425.61 971.031 2429.57 948.286 2437.49 927.711 2445.41 907.135 2456.45 889.58 2470.59 875.046 2484.74 860.513 2501.52 849.187 2520.95 841.069 2540.38 832.952 2561.4 828.894 2584.04 828.894ZM2030.68 787.555 2030.68 952.344 2113.86 952.344C2126.68 952.344 2138.47 950.174 2149.22 945.831 2159.97 941.489 2169.21 935.544 2176.94 927.993 2184.68 920.443 2190.62 911.666 2194.77 901.661 2198.92 891.658 2200.99 880.992 2200.99 869.666 2200.99 858.34 2198.92 847.77 2194.77 837.956 2190.62 828.138 2184.68 819.456 2176.94 811.906 2169.21 804.355 2159.97 798.41 2149.22 794.068 2138.47 789.727 2126.68 787.555 2113.86 787.555ZM2790.74 753.013 2863.16 753.013 2863.16 837.388 2944.64 837.388 2944.64 898.547 2863.16 898.547 2863.16 1049.74C2863.16 1065.98 2866.46 1078.72 2873.06 1087.97 2879.67 1097.22 2890.13 1101.84 2904.47 1101.84 2909.37 1101.84 2915.59 1101.65 2923.14 1101.28 2930.68 1100.9 2937.85 1099.95 2944.64 1098.45L2944.64 1159.6C2935.58 1161.49 2927.38 1162.53 2920.03 1162.72 2912.67 1162.91 2906.35 1163 2901.07 1163 2881.08 1163 2864.1 1160.45 2850.15 1155.36 2836.19 1150.26 2824.78 1142.8 2815.92 1132.99 2807.05 1123.17 2800.64 1111.28 2796.68 1097.31 2792.72 1083.34 2790.74 1067.49 2790.74 1049.74L2790.74 898.547 2735.86 898.547 2735.86 837.388 2790.74 837.388ZM1956 724.132 2113.86 724.132C2138 724.132 2160.07 728.001 2180.06 735.74 2200.05 743.481 2217.12 753.957 2231.26 767.17 2245.41 780.384 2256.35 795.767 2264.08 813.323 2271.81 830.876 2275.68 849.658 2275.68 869.666 2275.68 889.674 2271.81 908.456 2264.08 926.012 2256.35 943.567 2245.41 959.045 2231.26 972.446 2217.12 985.848 2200.05 996.42 2180.06 1004.16 2160.07 1011.9 2138 1015.77 2113.86 1015.77L2030.68 1015.77 2030.68 1154.51 1956 1154.51ZM2311.7 723 2390.91 723 2390.91 802.279 2311.7 802.279Z" fill="#817E82" fill-rule="evenodd"/><path d="M2304.4 1615.58C2299.21 1615.64 2294.82 1617.09 2291.24 1619.94 2287.65 1622.78 2285.24 1626.65 2284.01 1631.54L2323.77 1631.54C2323.19 1626.9 2321.18 1623.11 2317.75 1620.16 2314.31 1617.2 2309.86 1615.68 2304.4 1615.58ZM2454.64 1602.41 2472.68 1602.41 2472.68 1644.72C2472.64 1650.74 2473.9 1655.36 2476.46 1658.56 2479.02 1661.76 2482.7 1663.39 2487.5 1663.46 2490.68 1663.44 2493.58 1662.66 2496.22 1661.12 2498.87 1659.57 2500.99 1657.2 2502.6 1653.98 2504.21 1650.77 2505.04 1646.66 2505.11 1641.64L2505.11 1602.41 2523.01 1602.41 2523.01 1677.95 2505.11 1677.95 2505.11 1666.82 2504.67 1666.82C2502.58 1670.93 2499.54 1674.14 2495.55 1676.46 2491.57 1678.78 2486.88 1679.96 2481.49 1680 2472.85 1679.91 2466.22 1677.02 2461.6 1671.34 2456.97 1665.67 2454.65 1657.77 2454.64 1647.64ZM2418.3 1602.41 2436.2 1602.41 2436.2 1677.95 2418.3 1677.95ZM2580.96 1600.36C2586.44 1600.38 2591.07 1601.77 2594.85 1604.52 2598.64 1607.27 2601.49 1611.2 2603.41 1616.31L2603.85 1616.31C2605.51 1611.39 2608.36 1607.51 2612.4 1604.68 2616.44 1601.85 2621.37 1600.41 2627.18 1600.36 2635.41 1600.45 2641.76 1603.34 2646.22 1609.01 2650.69 1614.69 2652.95 1622.59 2653 1632.71L2653 1677.95 2634.95 1677.95 2634.95 1635.64C2634.96 1629.61 2633.81 1625 2631.51 1621.79 2629.22 1618.59 2625.96 1616.96 2621.75 1616.9 2618.92 1616.91 2616.33 1617.68 2613.98 1619.19 2611.62 1620.7 2609.73 1623.03 2608.29 1626.18 2606.86 1629.32 2606.11 1633.36 2606.05 1638.27L2606.05 1677.95 2588 1677.95 2588 1635.64C2587.97 1629.61 2586.8 1625 2584.49 1621.79 2582.18 1618.59 2578.9 1616.96 2574.65 1616.9 2571.85 1616.91 2569.27 1617.69 2566.91 1619.24 2564.56 1620.78 2562.66 1623.16 2561.21 1626.37 2559.77 1629.58 2559.02 1633.7 2558.95 1638.71L2558.95 1677.95 2541.05 1677.95 2541.05 1602.41 2558.95 1602.41 2558.95 1613.53 2559.54 1613.53C2561.41 1609.43 2564.19 1606.22 2567.88 1603.9 2571.57 1601.58 2575.93 1600.4 2580.96 1600.36ZM2395.72 1600.36C2397.04 1600.36 2398.32 1600.48 2399.57 1600.71 2400.81 1600.95 2402.03 1601.27 2403.2 1601.67L2403.2 1618.95C2401.76 1618.51 2400.31 1618.18 2398.84 1617.96 2397.38 1617.74 2395.94 1617.63 2394.54 1617.63 2388.39 1617.67 2383.66 1619.84 2380.37 1624.14 2377.07 1628.43 2375.39 1634.61 2375.32 1642.67L2375.32 1677.95 2357.42 1677.95 2357.42 1602.41 2375.32 1602.41 2375.32 1613.68 2375.91 1613.68C2377.93 1609.57 2380.65 1606.33 2384.08 1603.97 2387.5 1601.61 2391.38 1600.4 2395.72 1600.36ZM2304.4 1600.36C2311.96 1600.42 2318.59 1602.15 2324.28 1605.54 2329.97 1608.93 2334.41 1613.61 2337.59 1619.57 2340.77 1625.54 2342.38 1632.4 2342.4 1640.18 2342.44 1641.17 2342.43 1642.15 2342.37 1643.13 2342.31 1644.11 2342.22 1645.08 2342.11 1646.03L2283.57 1646.03C2284.5 1651.81 2286.98 1656.36 2291 1659.69 2295.01 1663.01 2300.02 1664.71 2306.02 1664.77 2310.36 1664.74 2314.06 1663.8 2317.1 1661.93 2320.15 1660.06 2322.47 1657.45 2324.06 1654.09L2339.76 1660.24C2336.72 1666.34 2332.33 1671.15 2326.59 1674.65 2320.84 1678.15 2313.94 1679.93 2305.87 1680 2297.82 1679.93 2290.76 1678.18 2284.69 1674.75 2278.62 1671.32 2273.88 1666.62 2270.47 1660.65 2267.06 1654.68 2265.31 1647.86 2265.23 1640.18 2265.32 1632.4 2267.05 1625.54 2270.41 1619.57 2273.78 1613.61 2278.39 1608.93 2284.25 1605.54 2290.11 1602.15 2296.83 1600.42 2304.4 1600.36ZM2134.42 1600.36C2142.15 1600.42 2148.95 1602.23 2154.82 1605.77 2160.69 1609.32 2165.24 1614.2 2168.46 1620.41L2152.61 1627.44C2150.83 1624.09 2148.4 1621.51 2145.3 1619.7 2142.21 1617.89 2138.58 1616.95 2134.42 1616.9 2127.71 1617.05 2122.33 1619.22 2118.27 1623.43 2114.21 1627.64 2112.11 1633.22 2111.97 1640.18 2112.11 1647.13 2114.21 1652.71 2118.27 1656.92 2122.33 1661.13 2127.71 1663.31 2134.42 1663.46 2138.58 1663.4 2142.21 1662.47 2145.3 1660.66 2148.4 1658.84 2150.83 1656.26 2152.61 1652.91L2168.46 1659.94C2165.24 1666.16 2160.69 1671.04 2154.82 1674.58 2148.95 1678.13 2142.15 1679.93 2134.42 1680 2126.74 1679.93 2119.91 1678.17 2113.91 1674.72 2107.92 1671.27 2103.18 1666.56 2099.71 1660.59 2096.24 1654.62 2094.46 1647.81 2094.37 1640.18 2094.46 1632.54 2096.24 1625.74 2099.71 1619.77 2103.18 1613.8 2107.92 1609.09 2113.91 1605.64 2119.91 1602.19 2126.74 1600.43 2134.42 1600.36ZM2034.77 1592.74 2020.09 1634.61 2050.46 1634.61 2035.5 1592.74ZM2182.63 1571.95 2200.53 1571.95 2200.53 1613.53 2201.12 1613.53C2203.14 1609.43 2206.14 1606.22 2210.1 1603.9 2214.07 1601.58 2218.75 1600.4 2224.15 1600.36 2232.79 1600.45 2239.42 1603.34 2244.04 1609.01 2248.67 1614.69 2250.99 1622.59 2251 1632.71L2251 1677.95 2232.96 1677.95 2232.96 1635.64C2233 1629.61 2231.74 1625 2229.18 1621.79 2226.62 1618.59 2222.94 1616.96 2218.14 1616.9 2214.96 1616.91 2212.06 1617.69 2209.41 1619.24 2206.77 1620.78 2204.65 1623.16 2203.04 1626.37 2201.43 1629.58 2200.6 1633.7 2200.53 1638.71L2200.53 1677.95 2182.63 1677.95ZM2024.79 1571.95 2045.48 1571.95 2086.26 1677.95 2065.72 1677.95 2056.63 1652.18 2013.78 1652.18 2004.69 1677.95 1984 1677.95ZM2427.25 1568C2430.44 1568.1 2433.05 1569.15 2435.09 1571.14 2437.14 1573.13 2438.19 1575.7 2438.26 1578.83 2438.19 1582.01 2437.14 1584.6 2435.09 1586.61 2433.05 1588.62 2430.44 1589.64 2427.25 1589.67 2424.07 1589.64 2421.45 1588.62 2419.41 1586.61 2417.37 1584.6 2416.32 1582.01 2416.25 1578.83 2416.32 1575.7 2417.37 1573.13 2419.41 1571.14 2421.45 1569.15 2424.07 1568.1 2427.25 1568Z" fill="#817E82" fill-rule="evenodd"/><path d="M1824.39 1668.36 1941 1668.36 1941 1678 1824.39 1678ZM1805.04 1668.36 1814.71 1668.36 1814.71 1678 1805.04 1678ZM1785.69 1668.36 1795.37 1668.36 1795.37 1678 1785.69 1678ZM1766.35 1668.36 1776.02 1668.36 1776.02 1678 1766.35 1678ZM1805.04 1649.14 1941 1649.14 1941 1658.78 1805.04 1658.78ZM1785.69 1649.14 1795.37 1649.14 1795.37 1658.78 1785.69 1658.78ZM1843.73 1629.82 1941 1629.82 1941 1639.45 1843.73 1639.45ZM1824.39 1629.82 1834.06 1629.82 1834.06 1639.45 1824.39 1639.45ZM1795.31 1629.82 1814.6 1629.82 1814.6 1639.45 1795.31 1639.45ZM1776.02 1629.82 1785.69 1629.82 1785.69 1639.45 1776.02 1639.45ZM1747 1629.82 1766.29 1629.82 1766.29 1639.45 1747 1639.45ZM1824.39 1610.55 1941 1610.55 1941 1620.18 1824.39 1620.18ZM1805.04 1610.55 1814.71 1610.55 1814.71 1620.18 1805.04 1620.18ZM1785.69 1610.55 1795.37 1610.55 1795.37 1620.18 1785.69 1620.18ZM1766.35 1610.55 1776.02 1610.55 1776.02 1620.18 1766.35 1620.18ZM1814.71 1591.22 1941 1591.22 1941 1600.86 1814.71 1600.86ZM1795.37 1591.22 1805.04 1591.22 1805.04 1600.86 1795.37 1600.86ZM1776.02 1591.22 1785.69 1591.22 1785.69 1600.86 1776.02 1600.86ZM1843.73 1572 1941 1572 1941 1581.64 1843.73 1581.64ZM1824.39 1572 1834.06 1572 1834.06 1581.64 1824.39 1581.64ZM1795.37 1572 1814.71 1572 1814.71 1581.64 1795.37 1581.64ZM1766.35 1572 1785.69 1572 1785.69 1581.64 1766.35 1581.64ZM1747 1572 1756.67 1572 1756.67 1581.64 1747 1581.64Z" fill="#817E82" fill-rule="evenodd"/></g></svg>