<svg width="4400" height="1886" xmlns="http://www.w3.org/2000/svg" xmlns:xlink="http://www.w3.org/1999/xlink" xml:space="preserve" overflow="hidden"><defs><clipPath id="clip0"><rect x="0" y="0" width="4400" height="1886"/></clipPath></defs><g clip-path="url(#clip0)"><rect x="0" y="0" width="4400" height="1886" fill="#FFFFFF" fill-opacity="0"/><path d="M2587.55 913.334C2576.27 913.334 2565.38 915.553 2554.9 919.994 2544.42 924.433 2535.04 930.688 2526.78 938.76 2518.51 946.832 2511.96 956.822 2507.12 968.728 2502.28 980.635 2499.86 994.054 2499.86 1008.99 2499.86 1023.92 2502.28 1037.34 2507.12 1049.25 2511.96 1061.15 2518.51 1071.14 2526.78 1079.22 2535.04 1087.29 2544.42 1093.54 2554.9 1097.98 2565.38 1102.42 2576.27 1104.64 2587.55 1104.64 2598.85 1104.64 2609.73 1102.42 2620.21 1097.98 2630.69 1093.54 2640.07 1087.29 2648.33 1079.22 2656.6 1071.14 2663.15 1061.15 2667.99 1049.25 2672.83 1037.34 2675.25 1023.92 2675.25 1008.99 2675.25 994.054 2672.83 980.635 2667.99 968.728 2663.15 956.822 2656.6 946.832 2648.33 938.76 2640.07 930.688 2630.69 924.433 2620.21 919.994 2609.73 915.553 2598.85 913.334 2587.55 913.334ZM1748.94 860.664 1816.07 860.664 1816.07 1157.31 1748.94 1157.31ZM2955.45 850.976C2965.13 850.976 2973.4 851.893 2980.25 853.72 2987.11 855.55 2993.35 858.066 2999 861.27L2979.65 922.415C2975.21 920.397 2970.27 918.885 2964.83 917.875 2959.39 916.866 2952.84 916.361 2945.17 916.361 2934.29 916.361 2924.31 918.593 2915.24 923.053 2906.17 927.515 2898.21 933.599 2891.35 941.305 2884.5 949.012 2879.15 958.138 2875.32 968.686 2871.49 979.234 2869.58 990.392 2869.58 1002.16L2869.58 1157.31 2802.45 1157.31 2802.45 860.664 2865.95 860.664 2865.95 905.463 2869.58 905.463C2873.21 897.796 2878.15 890.632 2884.4 883.972 2890.64 877.314 2897.7 871.649 2905.56 866.977 2913.42 862.308 2921.69 858.474 2930.36 855.476 2939.03 852.478 2947.39 850.976 2955.45 850.976ZM2587.55 850.976C2610.13 850.976 2630.9 854.912 2649.85 862.783 2668.8 870.653 2685.12 881.652 2698.83 895.778 2712.54 909.904 2723.22 926.652 2730.89 946.027 2738.54 965.4 2742.38 986.387 2742.38 1008.99 2742.38 1031.59 2738.54 1052.58 2730.89 1071.95 2723.22 1091.32 2712.54 1108.07 2698.83 1122.2 2685.12 1136.32 2668.8 1147.32 2649.85 1155.19 2630.9 1163.06 2610.13 1167 2587.55 1167 2564.98 1167 2544.21 1163.06 2525.27 1155.19 2506.32 1147.32 2489.99 1136.32 2476.28 1122.2 2462.57 1108.07 2451.89 1091.32 2444.22 1071.95 2436.57 1052.58 2432.74 1031.59 2432.74 1008.99 2432.74 986.387 2436.57 965.4 2444.22 946.027 2451.89 926.652 2462.57 909.904 2476.28 895.778 2489.99 881.652 2506.32 870.653 2525.27 862.783 2544.21 854.912 2564.98 850.976 2587.55 850.976ZM2033.18 850.976C2050.52 850.976 2066.35 853.198 2080.66 857.637 2094.97 862.075 2107.67 868.233 2118.76 876.101 2129.85 883.972 2139.42 893.053 2147.49 903.344 2155.55 913.638 2162 924.433 2166.84 935.733L2105.15 961.766C2098.3 946.43 2088.82 934.523 2076.73 926.048 2064.63 917.571 2049.31 913.334 2030.77 913.334 2019.48 913.334 2008.69 915.656 1998.41 920.296 1988.13 924.939 1979.06 931.395 1971.2 939.668 1963.33 947.944 1957.08 957.931 1952.45 969.637 1947.81 981.342 1945.49 994.459 1945.49 1008.99 1945.49 1023.52 1947.81 1036.63 1952.45 1048.34 1957.08 1060.05 1963.33 1070.03 1971.2 1078.31 1979.06 1086.58 1988.13 1093.04 1998.41 1097.68 2008.69 1102.32 2019.48 1104.64 2030.77 1104.64 2049.31 1104.64 2065.14 1100.3 2078.24 1091.63 2091.34 1082.95 2101.52 1070.94 2108.78 1055.6L2169.26 1081.64C2163.61 1093.34 2156.66 1104.34 2148.39 1114.63 2140.13 1124.92 2130.45 1134 2119.36 1141.88 2108.28 1149.75 2095.48 1155.9 2080.96 1160.34 2066.45 1164.78 2050.52 1167 2033.18 1167 2010.61 1167 1989.84 1163.06 1970.89 1155.19 1951.94 1147.32 1935.62 1136.32 1921.91 1122.2 1908.2 1108.07 1897.52 1091.32 1889.85 1071.95 1882.2 1052.58 1878.36 1031.59 1878.36 1008.99 1878.36 986.387 1882.2 965.4 1889.85 946.027 1897.52 926.652 1908.2 909.904 1921.91 895.778 1935.62 881.652 1951.94 870.653 1970.89 862.783 1989.84 854.912 2010.61 850.976 2033.18 850.976ZM1469.34 789.226 1469.34 924.231 1552.8 924.231C1564.09 924.231 1574.17 922.314 1583.04 918.479 1591.91 914.647 1599.36 909.499 1605.41 903.042 1611.46 896.586 1616.1 889.319 1619.32 881.247 1622.55 873.175 1624.16 865.102 1624.16 857.03 1624.16 848.556 1622.55 840.282 1619.32 832.21 1616.1 824.138 1611.46 816.975 1605.41 810.719 1599.36 804.461 1591.91 799.316 1583.04 795.28 1574.17 791.244 1564.09 789.226 1552.8 789.226ZM2255.54 769.853 2322.67 769.853 2322.67 860.664 2395.84 860.664 2395.84 919.994 2322.67 919.994 2322.67 1055.55C2322.67 1063.01 2323.47 1069.86 2325.09 1076.08 2326.7 1082.29 2329.12 1087.47 2332.34 1091.62 2339.2 1099.49 2347.87 1103.43 2358.35 1103.43 2364.8 1103.43 2369.84 1102.93 2373.47 1101.92 2377.1 1100.91 2380.93 1099.4 2384.96 1097.38L2405.52 1156.71C2397.05 1159.94 2388.18 1162.46 2378.91 1164.27 2369.64 1166.09 2359.16 1167 2347.46 1167 2333.35 1167 2320.85 1164.74 2309.97 1160.21 2299.08 1155.68 2289.61 1149.51 2281.54 1141.68 2264.21 1123.98 2255.54 1099.89 2255.54 1069.43L2255.54 919.994 2203.53 919.994 2203.53 860.664 2255.54 860.664ZM1401 723.841 1550.98 723.841C1570.34 723.841 1588.58 727.072 1605.71 733.529 1622.85 739.985 1637.87 749.066 1650.77 760.772 1663.67 772.478 1673.85 786.503 1681.31 802.849 1688.77 819.194 1692.5 837.255 1692.5 857.03 1692.5 876.406 1688.77 894.263 1681.31 910.611 1673.85 926.957 1663.67 940.982 1650.77 952.685 1637.87 964.391 1622.85 973.472 1605.71 979.928 1588.58 986.387 1570.34 989.616 1550.98 989.616L1469.34 989.616 1469.34 1157.31 1401 1157.31ZM1782.81 719C1795.31 719 1805.89 723.439 1814.56 732.318 1823.23 741.198 1827.56 751.892 1827.56 764.406 1827.56 776.916 1823.23 787.613 1814.56 796.49 1805.89 805.37 1795.31 809.811 1782.81 809.811 1769.91 809.811 1759.13 805.37 1750.46 796.49 1741.79 787.613 1737.45 776.916 1737.45 764.406 1737.45 751.892 1741.79 741.198 1750.46 732.318 1759.13 723.439 1769.91 719 1782.81 719Z" fill="#B200FF" fill-rule="evenodd"/></g></svg>