<svg width="4400" height="1886" xmlns="http://www.w3.org/2000/svg" xmlns:xlink="http://www.w3.org/1999/xlink" xml:space="preserve" overflow="hidden"><defs><clipPath id="clip0"><rect x="0" y="0" width="4400" height="1886"/></clipPath></defs><g clip-path="url(#clip0)"><rect x="0" y="0" width="4400" height="1886" fill="#FFFFFF" fill-opacity="0"/><path d="M1241.86 1241.72 1203.85 1251.05C1197.02 1252.73 1190.16 1251.47 1184.58 1248.1L1184.46 1247.94 1165.19 1243.07 1176.36 1257.64C1183.87 1262.96 1193.03 1266.06 1203 1266.06 1212.97 1266.06 1222.14 1262.96 1229.64 1257.64ZM1124.48 1044.33 1124.38 1044.47 1124.33 1044.71 1110.85 1064.37 1156.36 1119.27C1156.37 1119.28 1156.39 1119.3 1156.4 1119.31 1160.58 1124.37 1166.3 1127.26 1172.29 1127.84L1189.06 1122.74ZM910.437 928.203 908.773 930.624C905.072 936.041 903.872 942.22 904.928 947.961L911.002 957.177 1035.37 1042.99C1040.84 1046.75 1047.07 1048 1052.89 1046.93L1057.13 1044.1 1060.73 1038.93 1066.06 1035.52 972.304 970.781ZM1581.62 878.064C1578.91 881.145 1575.99 884.083 1572.7 886.74L1571.1 888.036 1570.41 888.829 1516.42 932.374C1511.25 936.547 1504.65 938.531 1498.03 937.903L1480.18 936.209 1478.51 953.144C1477.84 959.927 1474.48 966.16 1469.18 970.446L1467.57 971.742 1467.54 971.803 1450.17 985.815 1243.53 1152.89 1242.68 1153.17 1225.47 1167.05 1225.71 1167.29 1223.53 1169.06 1222.55 1169.58 1222.55 1170.93 1223.25 1170.72 1223.25 1189.2 1268.71 1177.73C1270.74 1177.21 1272.83 1176.95 1274.93 1176.95L1281.29 1179.59 1604.57 1100.22ZM1291.12 790.044 1290.93 790.195 1290.38 792.814 1290.6 792.99 1290.28 793.242 1287.06 808.381 1154.66 1000.55 1229.09 1090.22 1415.88 936.538 1415.48 917.196 1414.47 917.101C1403.97 916.102 1395.57 908.86 1392.58 899.393L1392.46 898.248 1385.55 885.781 1383.72 874.384 1378.13 873.853C1367.62 872.855 1359.22 865.614 1356.23 856.147L1355.97 853.678 1349.57 842.127 1347.82 831.172 1341.78 830.599C1331.27 829.601 1322.87 822.359 1319.88 812.892L1319.32 807.479 1313.32 792.445 1302.9 793.505ZM1423.45 689.591 1410.63 693.413 1407.51 695.938 1402.96 702.357 1371.91 727.402 1369.26 722.527 1370.59 736.147 1369.63 739.237 1369.65 739.444 1368.88 741.902 1389.68 755.281 1389.69 755.29 1392.9 761.068 1394.81 762.084 1396.48 767.526 1397.21 768.844 1397.57 771.062 1400.53 780.722C1400.52 780.75 1400.52 780.777 1400.52 780.805L1400.21 783.973 1413.76 788.87C1418.18 791.362 1422.22 794.651 1425.63 798.767 1425.63 798.777 1425.63 798.777 1425.64 798.777L1428.69 804.286 1431.39 805.719C1435.54 810.745 1437.78 817.354 1437.11 824.356 1437.11 824.384 1437.1 824.411 1437.1 824.439L1436.77 827.76 1449.76 832.475C1454.2 834.988 1458.24 838.305 1461.64 842.458L1463.43 846.943 1467.97 849.354 1473.52 867.435 1493.81 871.845 1532.25 840.305C1532.25 840.295 1532.25 840.295 1532.25 840.295 1537.37 836.063 1540.27 830.385 1540.85 824.501L1536.71 811.255 1446.76 704.225 1427.13 693.987ZM1092.39 680.784 1073.11 681.539 1071.64 688.574 1066.62 695.951 1065.25 702.433 939.332 886.104 1005.85 932.04 1096.69 994.555 1233.78 795.232 1228.69 778.835 1222.95 779.874C1209.18 782.365 1195.98 773.281 1193.39 759.533L1192.94 757.15 1190.65 754.87 1185.92 744.763 1176.07 746.644C1176.03 746.654 1175.98 746.663 1175.94 746.672 1162.11 749.234 1148.81 740.101 1146.25 726.27L1145.14 720.265 1145.15 719.643 1137.83 709.159C1127.83 710.059 1117.51 707.869 1108.73 701.854 1108.67 701.817 1108.62 701.78 1108.56 701.742 1100.93 696.424 1095.49 689.017 1092.39 680.784ZM1560.27 671.459 1501.16 684.121 1570.08 766.332ZM845.277 670.422 802.278 1098.89 1122.23 1179.69 1125.83 1177.5C1129.62 1176.7 1133.54 1176.78 1137.3 1177.73L1171.61 1186.39 1171.61 1183.73C1170.59 1183.89 1169.57 1184 1168.55 1184.03 1149.81 1182.18 1131.53 1172.94 1118.69 1157.25 1118.67 1157.24 1118.66 1157.23 1118.65 1157.21L1071.85 1099.78 1072.87 1099.1 1065.17 1102.19C1046.5 1105.79 1026.43 1101.93 1009.81 1090.5 1009.79 1090.48 1009.76 1090.47 1009.74 1090.45L885.763 1004.64C877.421 998.905 870.631 991.705 865.497 983.608L865.388 983.329 864.525 982.432 863.569 980.285 860.331 976.908C844.854 952.399 844.382 919.831 861.607 894.609 861.615 894.591 861.625 894.581 861.634 894.563L876.088 873.483 876.898 872.791 993.672 703.009ZM1174.59 547.683C1167.07 547.572 1159.71 551.145 1155 557.977L1126.76 599.022C1130.52 605.826 1132.82 613.224 1133.56 620.844 1142.43 620.779 1151.36 623.239 1159.08 628.585 1167.87 634.628 1173.62 643.502 1176.35 653.202 1186.42 652.311 1196.8 654.529 1205.6 660.628 1214.43 666.679 1220.19 675.562 1222.94 685.262 1233.02 684.343 1243.42 686.552 1252.26 692.669 1259.99 697.988 1265.46 705.451 1268.56 713.74 1275.93 711.744 1283.68 711.224 1291.3 712.236L1319.56 671.153C1319.57 671.143 1319.57 671.126 1319.58 671.116 1327.1 660.228 1324.45 646.064 1313.57 638.62 1313.55 638.6 1313.53 638.592 1313.51 638.573L1187.78 551.943C1187.78 551.943 1187.78 551.943 1187.78 551.943 1183.68 549.14 1179.11 547.748 1174.59 547.683ZM1175.17 497.002C1189.52 497.096 1203.96 501.291 1216.56 509.915 1216.58 509.923 1216.6 509.942 1216.62 509.96L1342.35 596.59C1350.77 602.354 1357.62 609.602 1362.81 617.757L1373.25 644.356 1381.76 642.528 1395.51 634.776C1403.52 631.98 1411.89 630.609 1420.25 630.622L1420.26 630.622 1428.66 632.457 1575.81 600.861C1582.69 599.385 1589.51 600.836 1594.99 604.376L1601.06 613.175 1613.84 615.525C1619.31 619.067 1623.43 624.698 1624.91 631.576 1625.1 632.469 1625.24 633.372 1625.33 634.28L1678.86 1151.18C1680.17 1163.83 1671.95 1175.51 1659.59 1178.54L1284.62 1270.38 1278.11 1281.16C1260.22 1302.98 1233.17 1317 1203 1317 1176.19 1317 1151.84 1305.92 1134.19 1288.13L1123.12 1271.64 746.269 1177.06C734.009 1173.99 725.861 1162.38 727.13 1149.8L779.371 632.873C780.489 621.818 788.641 612.768 799.516 610.504L803.938 610.527 805.382 607.264C808.923 603.332 813.686 600.501 819.13 599.373 822.651 598.639 826.287 598.658 829.797 599.438L1033.92 644.485 1038.71 637.519C1045.59 627.523 1058.56 623.763 1069.71 628.535L1077.88 632.025 1081.98 629.666 1082.77 624.641 1076.51 618.143C1068.12 609.427 1067.01 596.005 1073.87 586.036L1113.06 529.072C1113.07 529.063 1113.07 529.054 1113.08 529.035 1127.57 508.039 1151.25 496.835 1175.17 497.002Z" fill="#B200FF" fill-rule="evenodd"/><path d="M3211.55 883.333C3200.27 883.333 3189.38 885.553 3178.9 889.994 3168.42 894.433 3159.04 900.688 3150.78 908.76 3142.51 916.832 3135.96 926.822 3131.12 938.728 3126.28 950.635 3123.86 964.054 3123.86 978.988 3123.86 993.922 3126.28 1007.34 3131.12 1019.25 3135.96 1031.15 3142.51 1041.14 3150.78 1049.22 3159.04 1057.29 3168.42 1063.54 3178.9 1067.98 3189.38 1072.42 3200.27 1074.64 3211.55 1074.64 3222.85 1074.64 3233.73 1072.42 3244.21 1067.98 3254.69 1063.54 3264.07 1057.29 3272.34 1049.22 3280.6 1041.14 3287.15 1031.15 3291.99 1019.25 3296.83 1007.34 3299.25 993.922 3299.25 978.988 3299.25 964.054 3296.83 950.635 3291.99 938.728 3287.15 926.822 3280.6 916.832 3272.34 908.76 3264.07 900.688 3254.69 894.433 3244.21 889.994 3233.73 885.553 3222.85 883.333 3211.55 883.333ZM2372.94 830.664 2440.07 830.664 2440.07 1127.31 2372.94 1127.31ZM3579.45 820.976C3589.13 820.976 3597.4 821.893 3604.25 823.72 3611.11 825.55 3617.35 828.066 3623 831.27L3603.65 892.415C3599.21 890.397 3594.27 888.884 3588.83 887.875 3583.39 886.866 3576.84 886.361 3569.17 886.361 3558.29 886.361 3548.31 888.593 3539.24 893.053 3530.17 897.515 3522.21 903.598 3515.35 911.305 3508.5 919.012 3503.15 928.138 3499.32 938.686 3495.49 949.234 3493.58 960.392 3493.58 972.158L3493.58 1127.31 3426.45 1127.31 3426.45 830.664 3489.95 830.664 3489.95 875.463 3493.58 875.463C3497.21 867.796 3502.15 860.632 3508.4 853.972 3514.64 847.314 3521.7 841.649 3529.56 836.977 3537.43 832.308 3545.69 828.474 3554.36 825.476 3563.03 822.478 3571.39 820.976 3579.45 820.976ZM3211.55 820.976C3234.13 820.976 3254.9 824.912 3273.85 832.782 3292.8 840.653 3309.12 851.652 3322.83 865.778 3336.54 879.904 3347.22 896.652 3354.89 916.027 3362.55 935.399 3366.38 956.387 3366.38 978.988 3366.38 1001.59 3362.55 1022.58 3354.89 1041.95 3347.22 1061.32 3336.54 1078.07 3322.83 1092.2 3309.12 1106.32 3292.8 1117.32 3273.85 1125.19 3254.9 1133.06 3234.13 1137 3211.55 1137 3188.98 1137 3168.21 1133.06 3149.27 1125.19 3130.32 1117.32 3113.99 1106.32 3100.28 1092.2 3086.57 1078.07 3075.89 1061.32 3068.22 1041.95 3060.57 1022.58 3056.74 1001.59 3056.74 978.988 3056.74 956.387 3060.57 935.399 3068.22 916.027 3075.89 896.652 3086.57 879.904 3100.28 865.778 3113.99 851.652 3130.32 840.653 3149.27 832.782 3168.21 824.912 3188.98 820.976 3211.55 820.976ZM2657.18 820.976C2674.52 820.976 2690.35 823.198 2704.66 827.637 2718.97 832.075 2731.67 838.233 2742.76 846.101 2753.85 853.972 2763.42 863.053 2771.49 873.344 2779.55 883.638 2786 894.433 2790.84 905.733L2729.15 931.766C2722.3 916.43 2712.82 904.523 2700.73 896.048 2688.63 887.571 2673.31 883.333 2654.77 883.333 2643.48 883.333 2632.69 885.656 2622.41 890.296 2612.13 894.938 2603.06 901.395 2595.2 909.668 2587.33 917.944 2581.08 927.931 2576.45 939.637 2571.81 951.342 2569.49 964.459 2569.49 978.988 2569.49 993.517 2571.81 1006.63 2576.45 1018.34 2581.08 1030.05 2587.33 1040.03 2595.2 1048.31 2603.06 1056.58 2612.13 1063.04 2622.41 1067.68 2632.69 1072.32 2643.48 1074.64 2654.77 1074.64 2673.31 1074.64 2689.14 1070.3 2702.24 1061.63 2715.34 1052.95 2725.52 1040.94 2732.78 1025.6L2793.26 1051.64C2787.61 1063.34 2780.66 1074.34 2772.39 1084.63 2764.13 1094.92 2754.45 1104 2743.36 1111.88 2732.28 1119.75 2719.48 1125.9 2704.96 1130.34 2690.45 1134.78 2674.52 1137 2657.18 1137 2634.61 1137 2613.84 1133.06 2594.89 1125.19 2575.94 1117.32 2559.62 1106.32 2545.91 1092.2 2532.2 1078.07 2521.52 1061.32 2513.85 1041.95 2506.2 1022.58 2502.36 1001.59 2502.36 978.988 2502.36 956.387 2506.2 935.399 2513.85 916.027 2521.52 896.652 2532.2 879.904 2545.91 865.778 2559.62 851.652 2575.94 840.653 2594.89 832.782 2613.84 824.912 2634.61 820.976 2657.18 820.976ZM2093.34 759.225 2093.34 894.231 2176.8 894.231C2188.09 894.231 2198.17 892.314 2207.04 888.479 2215.91 884.647 2223.36 879.499 2229.41 873.042 2235.46 866.586 2240.1 859.319 2243.32 851.247 2246.55 843.174 2248.16 835.102 2248.16 827.03 2248.16 818.556 2246.55 810.282 2243.32 802.21 2240.1 794.138 2235.46 786.974 2229.41 780.719 2223.36 774.461 2215.91 769.315 2207.04 765.279 2198.17 761.243 2188.09 759.225 2176.8 759.225ZM2879.54 739.853 2946.67 739.853 2946.67 830.664 3019.84 830.664 3019.84 889.994 2946.67 889.994 2946.67 1025.55C2946.67 1033.01 2947.47 1039.86 2949.09 1046.08 2950.7 1052.29 2953.12 1057.47 2956.34 1061.62 2963.2 1069.49 2971.87 1073.43 2982.35 1073.43 2988.8 1073.43 2993.84 1072.93 2997.47 1071.92 3001.1 1070.91 3004.93 1069.4 3008.96 1067.38L3029.52 1126.71C3021.05 1129.94 3012.18 1132.46 3002.91 1134.28 2993.64 1136.09 2983.16 1137 2971.46 1137 2957.35 1137 2944.85 1134.74 2933.97 1130.21 2923.08 1125.68 2913.61 1119.51 2905.54 1111.68 2888.21 1093.98 2879.54 1069.89 2879.54 1039.43L2879.54 889.994 2827.53 889.994 2827.53 830.664 2879.54 830.664ZM2025 693.841 2174.98 693.841C2194.33 693.841 2212.58 697.072 2229.71 703.529 2246.85 709.985 2261.87 719.066 2274.77 730.772 2287.67 742.477 2297.85 756.503 2305.31 772.848 2312.77 789.194 2316.5 807.255 2316.5 827.03 2316.5 846.405 2312.77 864.263 2305.31 880.611 2297.85 896.956 2287.67 910.982 2274.77 922.685 2261.87 934.391 2246.85 943.472 2229.71 949.928 2212.58 956.387 2194.33 959.616 2174.98 959.616L2093.34 959.616 2093.34 1127.31 2025 1127.31ZM2406.81 689C2419.31 689 2429.89 693.438 2438.56 702.318 2447.23 711.198 2451.56 721.892 2451.56 734.405 2451.56 746.916 2447.23 757.613 2438.56 766.49 2429.89 775.37 2419.31 779.811 2406.81 779.811 2393.91 779.811 2383.13 775.37 2374.46 766.49 2365.79 757.613 2361.45 746.916 2361.45 734.405 2361.45 721.892 2365.79 711.198 2374.46 702.318 2383.13 693.438 2393.91 689 2406.81 689Z" fill="#B200FF" fill-rule="evenodd"/></g></svg>