<svg width="89" height="90" xmlns="http://www.w3.org/2000/svg" xmlns:xlink="http://www.w3.org/1999/xlink" xml:space="preserve" overflow="hidden"><defs><clipPath id="clip0"><rect x="1132" y="1056" width="89" height="90"/></clipPath></defs><g clip-path="url(#clip0)" transform="translate(-1132 -1056)"><path d="M1174.08 1083.71 1175.44 1084.01 1174.18 1084.25ZM1141.2 1076.5 1162.75 1081.23 1149.95 1099.89 1148.67 1101.75C1147.31 1103.74 1147.81 1106.45 1149.79 1107.81L1160.95 1115.53C1161.94 1116.21 1163.11 1116.43 1164.2 1116.22L1165.73 1115.23 1171.24 1121.94C1172 1122.87 1173.07 1123.4 1174.17 1123.51L1176.5 1122.79 1176.5 1129.4 1170.02 1127.77 1170.02 1129.26 1170.47 1131.5 1136.5 1122.98Z" stroke="#B200FF" stroke-width="4.58333" stroke-linecap="round" stroke-linejoin="round" stroke-miterlimit="10" fill="none" fill-rule="evenodd"/><path d="M34.4849 21.0516 34.2523 18.6019 31.8533 18.8391 32.0858 21.2891ZM38.374 24.3219 38.1414 21.8718 35.7423 22.1093 35.9746 24.5591ZM42.263 27.5917 42.0305 25.1419 39.6314 25.3795 39.8638 27.8292ZM47.2061 37.1696 44.8361 36.7224 44.3983 39.1433 46.7686 39.5905ZM50.8973 23.9798 47.4461 28.2609 46.4624 27.7253 43.5158 28.6454 43.1975 31.7753 43.9011 32.6582 42.0174 34.9946 43.9124 35.3524 44.6285 31.3909 49.7033 27.824 50.0925 27.7393ZM55 4.81556 8.52293 0 0 34.8166 2.24316 34.3542 3.72672 34.3542 2.09984 40.9999 8.708 40.9999 8.96788 40.1292 10.4096 38.3411 10.4093 38.3408 26.6702 18.1702 30.5958 17.7815 30.2155 13.7727 34.1307 8.91591C35.6605 7.01816 38.4069 6.74637 40.2648 8.30842L50.7674 17.1392 51.8977 19.3072Z" stroke="#B200FF" stroke-width="4.58333" stroke-linecap="round" stroke-linejoin="round" stroke-miterlimit="10" fill="none" fill-rule="evenodd" transform="matrix(-6.12323e-17 -1 -1 6.12323e-17 1217.5 1131.5)"/><path d="M1173.87 1082.32 1176.43 1082.89 1176.5 1083.29 1176.5 1083.51 1174.17 1083.95ZM1142.96 1075.5 1163.32 1079.99 1149.87 1099.73 1148.59 1101.61C1147.22 1103.61 1147.72 1106.35 1149.71 1107.72L1160.91 1115.5C1161.9 1116.19 1163.07 1116.41 1164.17 1116.21L1165.7 1115.2 1171.22 1121.97C1171.99 1122.91 1173.05 1123.44 1174.16 1123.55L1176.5 1122.83 1176.5 1129.5 1138.5 1119.91Z" stroke="#B200FF" stroke-width="4.58333" stroke-linecap="round" stroke-linejoin="round" stroke-miterlimit="10" fill="none" fill-rule="evenodd"/><path d="M32.6717 18.9655 32.4371 16.5051 30.0168 16.7434 30.2515 19.204ZM36.5952 22.2498 36.3606 19.7891 33.9404 20.0277 34.1747 22.488ZM40.5188 25.5337 40.2841 23.0734 37.8639 23.312 38.0982 25.7723ZM45.5056 35.153 43.1147 34.7038 42.6729 37.1353 45.0642 37.5844ZM46.2074 38.9998 45.9958 38.9603 45.9886 38.9998ZM54 4.58048 9.59002 0 0 38.9998 6.66668 38.9998 6.92885 38.1254 8.38334 36.3296 8.38304 36.3293 24.7879 16.0716 28.7482 15.6812 28.3645 11.6551 32.3144 6.77732C33.8578 4.87137 36.6285 4.59844 38.5028 6.16725L49.0984 15.0361C50.0354 15.8205 50.5715 16.9171 50.6798 18.0557 50.7884 19.1943 50.4697 20.3748 49.6979 21.3278L45.7477 26.2059 44.7553 25.6679 41.7826 26.592 41.4615 29.7354 42.1714 30.6221 40.271 32.9686 42.1827 33.3279 42.9052 29.3493 48.0249 25.7671 49.5132 25.4446Z" stroke="#B200FF" stroke-width="4.58333" stroke-linecap="round" stroke-linejoin="round" stroke-miterlimit="10" fill="none" fill-rule="evenodd" transform="matrix(-6.12323e-17 -1 -1 6.12323e-17 1215.5 1129.5)"/><path d="M1169.8 1109.44 1179.01 1120.62 1177.24 1122.07C1175.36 1123.61 1172.59 1123.35 1171.05 1121.47L1165.48 1114.7 1166.75 1113.88 1166.75 1113.88 1166.75 1113.88 1168.05 1111.99 1168.05 1111.99Z" stroke="#B200FF" stroke-width="4.58333" stroke-linecap="round" stroke-linejoin="round" stroke-miterlimit="10" fill="none" fill-rule="evenodd"/><path d="M1188.96 1083.26 1193.76 1079.31C1195.63 1077.76 1198.4 1078.03 1199.95 1079.91L1208.67 1090.5C1210.21 1092.37 1209.94 1095.14 1208.07 1096.69L1203.27 1100.64C1202.28 1099.43 1200.49 1099.26 1199.28 1100.25L1198.26 1099.01C1199 1098.4 1199.11 1097.31 1198.5 1096.57 1197.89 1095.82 1196.8 1095.72 1196.05 1096.33L1195.03 1095.09C1195.77 1094.48 1195.88 1093.38 1195.27 1092.64 1194.66 1091.9 1193.57 1091.8 1192.82 1092.41L1191.8 1091.17C1192.54 1090.56 1192.65 1089.46 1192.04 1088.72 1191.43 1087.98 1190.34 1087.87 1189.59 1088.48L1188.57 1087.24C1189.48 1086.5 1189.8 1085.31 1189.49 1084.25L1188.96 1083.26Z" stroke="#B200FF" stroke-width="4.58333" stroke-linecap="round" stroke-linejoin="round" stroke-miterlimit="10" fill="none" fill-rule="evenodd"/><path d="M1184.62 1086.83 1185.49 1087.54C1186.47 1088.05 1187.7 1087.96 1188.6 1087.22L1189.62 1088.46C1188.88 1089.07 1188.78 1090.16 1189.39 1090.9 1190 1091.65 1191.09 1091.75 1191.83 1091.14L1192.85 1092.38C1192.11 1092.99 1192.01 1094.09 1192.62 1094.83 1193.23 1095.57 1194.32 1095.67 1195.06 1095.06L1196.08 1096.3C1195.34 1096.91 1195.24 1098.01 1195.85 1098.75 1196.46 1099.49 1197.55 1099.6 1198.29 1098.99L1199.31 1100.23C1198.11 1101.22 1197.93 1103.01 1198.93 1104.21L1179 1120.62 1169.8 1109.44 1182.68 1090.73 1182.31 1088.73Z" stroke="#B200FF" stroke-width="4.58333" stroke-linecap="round" stroke-linejoin="round" stroke-miterlimit="10" fill="none" fill-rule="evenodd"/><path d="M1148.2 1101.11 1149.5 1099.22 1168.05 1111.99 1166.75 1113.88C1165.37 1115.88 1162.64 1116.38 1160.64 1115.01L1149.33 1107.23C1147.33 1105.85 1146.83 1103.11 1148.2 1101.11Z" stroke="#B200FF" stroke-width="4.58333" stroke-linecap="round" stroke-linejoin="round" stroke-miterlimit="10" fill="none" fill-rule="evenodd"/><path d="M1167.32 1073.33 1170.84 1068.21C1172.22 1066.21 1174.96 1065.71 1176.96 1067.08L1188.26 1074.87C1190.26 1076.24 1190.77 1078.98 1189.39 1080.98L1185.87 1086.1C1184.58 1085.21 1182.82 1085.54 1181.93 1086.83L1180.61 1085.91C1181.15 1085.12 1180.95 1084.04 1180.16 1083.5 1179.37 1082.95 1178.29 1083.15 1177.74 1083.94L1176.42 1083.03C1176.96 1082.24 1176.76 1081.16 1175.97 1080.62 1175.18 1080.07 1174.1 1080.27 1173.56 1081.06L1172.23 1080.15C1172.78 1079.36 1172.58 1078.28 1171.79 1077.74 1171 1077.19 1169.92 1077.39 1169.37 1078.18L1168.05 1077.27C1168.71 1076.3 1168.7 1075.07 1168.1 1074.14L1167.32 1073.33Z" stroke="#B200FF" stroke-width="4.58333" stroke-linecap="round" stroke-linejoin="round" stroke-miterlimit="10" fill="none" fill-rule="evenodd"/><path d="M1149.5 1099.23 1164.13 1077.97 1165.16 1078.41C1166.25 1078.63 1167.4 1078.21 1168.07 1077.24L1169.39 1078.15C1168.85 1078.94 1169.05 1080.02 1169.84 1080.57 1170.63 1081.11 1171.71 1080.91 1172.25 1080.12L1173.58 1081.03C1173.03 1081.82 1173.23 1082.9 1174.02 1083.45 1174.82 1083.99 1175.9 1083.79 1176.44 1083L1177.76 1083.91C1177.22 1084.7 1177.42 1085.79 1178.21 1086.33 1179 1086.87 1180.08 1086.67 1180.63 1085.88L1181.95 1086.79C1181.06 1088.08 1181.39 1089.85 1182.68 1090.73L1168.05 1111.99 1149.5 1099.23Z" stroke="#B200FF" stroke-width="4.58333" stroke-linecap="round" stroke-linejoin="round" stroke-miterlimit="10" fill="none" fill-rule="evenodd"/><path d="M1170.5 1127.5 1177 1129.13 1183.5 1127.5 1183.5 1128.99C1183.5 1132.58 1180.59 1135.5 1177 1135.5 1173.41 1135.5 1170.5 1132.58 1170.5 1128.99Z" stroke="#B200FF" stroke-width="4.58333" stroke-linecap="round" stroke-linejoin="round" stroke-miterlimit="10" fill="none" fill-rule="evenodd"/><rect x="1132" y="1056" width="89" height="90.0001" fill="#FFFFFF" fill-opacity="0"/></g></svg>