<svg width="2338" height="2339" xmlns="http://www.w3.org/2000/svg" xmlns:xlink="http://www.w3.org/1999/xlink" xml:space="preserve" overflow="hidden"><defs><clipPath id="clip0"><rect x="1031" y="68" width="2338" height="2339"/></clipPath></defs><g clip-path="url(#clip0)" transform="translate(-1031 -68)"><path d="M1031 2017.17 3369 2017.17 3369 2407 1031 2407ZM3044.28 1757.28 3369 1757.28 3369 1887.22 3044.28 1887.22ZM2524.72 1757.28 2914.39 1757.28 2914.39 1887.22 2524.72 1887.22ZM2005.17 1757.28 2394.83 1757.28 2394.83 1887.22 2005.17 1887.22ZM1485.61 1757.28 1875.28 1757.28 1875.28 1887.22 1485.61 1887.22ZM1031 1757.28 1355.72 1757.28 1355.72 1887.22 1031 1887.22ZM3044.28 587.78 3369 587.78 3369 717.723 3044.28 717.723ZM2524.72 587.78 2914.39 587.78 2914.39 717.723 2524.72 717.723ZM2005.17 587.78 2394.83 587.78 2394.83 717.723 2005.17 717.723ZM1485.61 587.78 1875.28 587.78 1875.28 717.723 1485.61 717.723ZM1031 587.78 1355.72 587.78 1355.72 717.723 1031 717.723ZM1031 68.0001 3369 68.0001 3369 457.834 1031 457.834Z" fill="#FFFFFF" fill-rule="evenodd"/></g></svg>