<svg width="1471" height="1471" xmlns="http://www.w3.org/2000/svg" xmlns:xlink="http://www.w3.org/1999/xlink" xml:space="preserve" overflow="hidden"><g transform="matrix(1 0 0 1 0 -1004)"><rect x="0" y="1004" width="1471" height="1471" fill="#B200FF"/><path d="M700.112 1533.51 716.397 1537.1 701.31 1539.98ZM306.374 1447.12 564.435 1503.79 411.155 1727.37 395.828 1749.66C379.542 1773.5 385.529 1805.97 409.24 1822.27L542.88 1914.77C554.735 1922.92 568.746 1925.55 581.799 1923.04L600.121 1911.17 666.103 1991.57C675.204 2002.72 688.017 2009.07 701.191 2010.38L729.092 2001.76 729.092 2080.96 651.494 2061.43 651.494 2079.28 656.882 2106.12 250.092 2004.03Z" stroke="#FFFFFF" stroke-width="54.8777" stroke-linecap="round" stroke-linejoin="round" stroke-miterlimit="10" fill="none" fill-rule="evenodd"/><path d="M413.206 252.117 410.419 222.78 381.674 225.621 384.46 254.961ZM459.804 291.28 457.017 261.939 428.271 264.783 431.055 294.121ZM506.401 330.438 503.615 301.101 474.87 303.946 477.654 333.283ZM565.629 445.14 537.232 439.784 531.986 468.776 560.387 474.132ZM609.856 287.184 568.504 338.452 556.718 332.039 521.412 343.057 517.598 380.54 526.029 391.113 503.458 419.093 526.164 423.378 534.745 375.936 595.55 333.22 600.213 332.206ZM659.014 57.6795 102.134 0.0101041 0.0137197 416.961 26.8907 411.424 44.6664 411.424 25.1736 491.01 104.351 491.01 107.465 480.583 124.74 459.169 124.736 459.166 319.571 217.61 366.607 212.955 362.05 164.947 408.962 106.784C427.291 84.0569 460.198 80.802 482.459 99.5086L608.3 205.263 621.843 231.226Z" stroke="#FFFFFF" stroke-width="54.8777" stroke-linecap="round" stroke-linejoin="round" stroke-miterlimit="10" fill="none" fill-rule="evenodd" transform="matrix(-1.83697e-16 -1 -1 1.83697e-16 1220.5 2106.5)"/><path d="M697.601 1516.83 728.254 1523.66 729.092 1528.45 729.092 1531.09 701.194 1536.36ZM327.494 1435.12 571.278 1488.92 410.232 1725.43 394.906 1747.96C378.502 1771.92 384.489 1804.75 408.316 1821.16L542.423 1914.38C554.276 1922.64 568.284 1925.28 581.457 1922.88L599.775 1910.78 665.871 1991.9C675.09 2003.16 687.783 2009.51 701.074 2010.83L729.092 2002.2 729.092 2082.12 274.092 1967.22Z" stroke="#FFFFFF" stroke-width="54.8777" stroke-linecap="round" stroke-linejoin="round" stroke-miterlimit="10" fill="none" fill-rule="evenodd"/><path d="M391.469 227.597 388.658 198.072 359.659 200.932 362.471 230.459ZM438.478 267.009 435.667 237.48 406.67 240.344 409.477 269.867ZM485.489 306.416 482.677 276.892 453.679 279.756 456.486 309.279ZM545.238 421.848 516.591 416.458 511.298 445.636 539.949 451.025ZM553.647 468.01 551.111 467.536 551.025 468.01ZM647.014 54.976 114.916 0.00976309 0.0133583 468.01 79.89 468.01 83.0314 457.517 100.458 435.967 100.455 435.964 297.009 192.87 344.46 188.185 339.862 139.872 387.188 81.3381C405.68 58.4664 438.877 55.1915 461.334 74.0172L588.285 180.444C599.512 189.857 605.935 203.016 607.233 216.679 608.534 230.343 604.715 244.509 595.468 255.945L548.139 314.482 536.248 308.027 500.631 319.116 496.784 356.837 505.289 367.477 482.52 395.635 505.425 399.947 514.081 352.203 575.423 309.217 593.255 305.347Z" stroke="#FFFFFF" stroke-width="54.8777" stroke-linecap="round" stroke-linejoin="round" stroke-miterlimit="10" fill="none" fill-rule="evenodd" transform="matrix(-1.83697e-16 -1 -1 1.83697e-16 1197.5 2082.5)"/><path d="M649.134 1842.12 760.089 1975.79 738.765 1993.13C716.116 2011.54 682.745 2008.43 664.193 1985.96L597.089 1905.01 612.389 1895.21 612.389 1895.21 612.389 1895.21 628.051 1872.61 628.051 1872.61Z" stroke="#FFFFFF" stroke-width="54.8777" stroke-linecap="round" stroke-linejoin="round" stroke-miterlimit="10" fill="none" fill-rule="evenodd"/><path d="M878.768 1528.37 936.324 1481.16C958.747 1462.63 991.961 1465.85 1010.55 1488.33L1115.11 1614.91C1133.57 1637.27 1130.33 1670.38 1107.91 1688.9L1050.36 1736.12C1038.49 1721.66 1017.02 1719.62 1002.51 1731.46L990.282 1716.64C999.156 1709.34 1000.47 1696.32 993.16 1687.47 985.846 1678.5 972.777 1677.31 963.784 1684.6L951.553 1669.78C960.426 1662.49 961.745 1649.34 954.43 1640.49 947.116 1631.65 934.045 1630.45 925.052 1637.74L912.823 1622.92C921.696 1615.63 923.014 1602.48 915.7 1593.64 908.386 1584.79 895.315 1583.48 886.322 1590.77L874.091 1575.94C885.003 1567.1 888.841 1552.88 885.123 1540.2L878.768 1528.37Z" stroke="#FFFFFF" stroke-width="54.8777" stroke-linecap="round" stroke-linejoin="round" stroke-miterlimit="10" fill="none" fill-rule="evenodd"/><path d="M826.87 1571.12 837.306 1579.63C849.062 1585.74 863.817 1584.66 874.613 1575.79L886.849 1590.66C877.972 1597.97 876.773 1611.03 884.091 1619.9 891.408 1628.89 904.483 1630.09 913.36 1622.78L925.596 1637.64C916.719 1644.95 915.52 1658.14 922.837 1667 930.154 1675.87 943.23 1677.07 952.108 1669.76L964.343 1684.62C955.466 1691.94 954.267 1705.12 961.584 1713.99 968.901 1722.86 981.978 1724.18 990.855 1716.87L1003.09 1731.73C988.695 1743.59 986.536 1765.05 998.532 1779.43L759.453 1976.12 649.091 1842.12 803.598 1617.86 799.16 1593.89Z" stroke="#FFFFFF" stroke-width="54.8777" stroke-linecap="round" stroke-linejoin="round" stroke-miterlimit="10" fill="none" fill-rule="evenodd"/><path d="M390.338 1741.83 405.909 1719.12 628.091 1872.55 612.52 1895.26C595.991 1919.3 563.293 1925.3 539.338 1908.84L403.873 1815.36C379.918 1798.78 373.929 1765.86 390.338 1741.83Z" stroke="#FFFFFF" stroke-width="54.8777" stroke-linecap="round" stroke-linejoin="round" stroke-miterlimit="10" fill="none" fill-rule="evenodd"/><path d="M619.091 1409.29 661.307 1347.92C677.857 1323.94 710.718 1317.95 734.705 1334.37L870.227 1427.75C894.214 1444.18 900.33 1477.02 883.779 1500.99L841.564 1562.37C826.092 1551.7 804.984 1555.66 794.311 1571.12L778.48 1560.09C784.957 1550.62 782.557 1537.68 773.084 1531.2 763.608 1524.61 750.656 1527.01 744.06 1536.48L728.229 1525.57C734.705 1516.1 732.307 1503.15 722.831 1496.68 713.358 1490.09 700.405 1492.48 693.929 1501.95L677.977 1491.05C684.574 1481.58 682.175 1468.63 672.701 1462.16 663.226 1455.56 650.274 1457.96 643.677 1467.43L627.847 1456.52C635.762 1444.9 635.641 1430.15 628.446 1419L619.091 1409.29Z" stroke="#FFFFFF" stroke-width="54.8777" stroke-linecap="round" stroke-linejoin="round" stroke-miterlimit="10" fill="none" fill-rule="evenodd"/><path d="M406.092 1719.37 581.14 1464.86 593.464 1470.13C606.506 1472.76 620.266 1467.73 628.282 1456.12L644.076 1467.01C637.615 1476.47 640.009 1489.4 649.46 1495.98 658.913 1502.45 671.834 1500.05 678.296 1490.6L694.209 1501.49C687.629 1510.95 690.021 1523.88 699.474 1530.46 709.045 1536.92 721.969 1534.53 728.429 1525.07L744.223 1535.97C737.762 1545.42 740.156 1558.47 749.607 1564.94 759.06 1571.4 771.981 1569.01 778.563 1559.55L794.356 1570.44C783.708 1585.89 787.656 1607.08 803.092 1617.61L628.044 1872.12 406.092 1719.37Z" stroke="#FFFFFF" stroke-width="54.8777" stroke-linecap="round" stroke-linejoin="round" stroke-miterlimit="10" fill="none" fill-rule="evenodd"/><path d="M658.093 2058.12 735.594 2077.68 813.093 2058.12 813.093 2076C813.093 2119.08 778.397 2154.12 735.594 2154.12 692.79 2154.12 658.093 2119.08 658.093 2076Z" stroke="#FFFFFF" stroke-width="54.8777" stroke-linecap="round" stroke-linejoin="round" stroke-miterlimit="10" fill="none" fill-rule="evenodd"/></g></svg>