<svg width="2338" height="2339" xmlns="http://www.w3.org/2000/svg" xmlns:xlink="http://www.w3.org/1999/xlink" xml:space="preserve" overflow="hidden"><defs><clipPath id="clip0"><rect x="1031" y="68" width="2338" height="2339"/></clipPath></defs><g clip-path="url(#clip0)" transform="translate(-1031 -68)"><rect x="1031" y="68.0001" width="2338" height="2339" fill="#FF7B63"/><path d="M2524.72 1757.17 2524.72 1887.08 2914.39 1887.08 2914.39 1757.17 2524.72 1757.17ZM2005.17 1757.17 2005.17 1887.08 2394.83 1887.08 2394.83 1757.17 2005.17 1757.17ZM1485.61 1757.17 1485.61 1887.08 1875.28 1887.08 1875.28 1757.17 1485.61 1757.17ZM2524.72 587.917 2524.72 717.833 2914.39 717.833 2914.39 587.917 2524.72 587.917ZM2005.17 587.917 2005.17 717.833 2394.83 717.833 2394.83 587.917 2005.17 587.917ZM1485.61 587.917 1485.61 717.833 1875.28 717.833 1875.28 587.917 1485.61 587.917ZM1031 458 3369 458 3369 587.917 3044.28 587.917 3044.28 717.833 3369 717.833 3369 1757.17 3044.28 1757.17 3044.28 1887.08 3369 1887.08 3369 2017 1031 2017 1031 1887.08 1355.72 1887.08 1355.72 1757.17 1031 1757.17 1031 717.833 1355.72 717.833 1355.72 587.917 1031 587.917 1031 458Z" fill="#FEFAF6" fill-rule="evenodd"/></g></svg>