<svg width="4714" height="1541" xmlns="http://www.w3.org/2000/svg" xmlns:xlink="http://www.w3.org/1999/xlink" xml:space="preserve" overflow="hidden"><g><rect x="0" y="0" width="4714" height="1541" fill="#FEFAF6"/><g><g><g><path d="M317.062 95.7634C317.062 62.9396 343.67 36.3315 376.494 36.3315L907.809 36.3315C940.633 36.3315 967.241 62.9399 967.241 95.7634L967.241 626.787C967.241 659.611 940.633 686.219 907.809 686.219L376.494 686.219C343.67 686.219 317.062 659.611 317.062 626.787Z" stroke="#FF7B63" stroke-width="66.8762" stroke-linecap="round" stroke-linejoin="round" stroke-miterlimit="10" fill="#FF7B63" fill-rule="evenodd" transform="matrix(1 0 0 1.00041 144.352 409.081)"/><path d="M316.916 95.6175C316.916 62.7937 343.524 36.1856 376.348 36.1856L907.663 36.1856C940.487 36.1856 967.095 62.794 967.095 95.6175L967.095 626.641C967.095 659.465 940.487 686.073 907.663 686.073L376.348 686.073C343.524 686.073 316.916 659.465 316.916 626.641Z" fill="#FEFAF6" fill-rule="evenodd" transform="matrix(1 0 0 1.00041 144.352 409.081)"/><path d="M420.366 205.003 617.691 249.12C617.671 250.065 617.647 251.01 617.627 251.954L620.63 253.374C626.775 255.753 634.182 257.142 642.157 257.142 650.133 257.142 657.539 255.753 663.685 253.374L666.688 251.954C666.667 251.01 666.644 250.065 666.623 249.12L863.946 205.003 879.99 489.766 679.101 520.912 679.101 520.912 673.04 521.852 679.101 520.912 677.634 523.62C671.789 531.537 658.105 537.093 642.157 537.093 626.209 537.093 612.526 531.537 606.681 523.62L605.213 520.912 404.324 489.766 420.366 205.003Z" stroke="#FF7B63" stroke-width="53.4992" stroke-linecap="round" stroke-linejoin="round" stroke-miterlimit="10" fill="#FF7B63" fill-rule="evenodd" transform="matrix(1 0 0 1.00041 144.352 409.081)"/><path d="M420.366 198.291 617.691 242.449C617.671 243.395 617.647 244.34 617.627 245.286L620.63 246.707C626.775 249.088 634.182 250.478 642.157 250.478 650.133 250.478 657.539 249.088 663.685 246.707L666.688 245.286C666.667 244.34 666.644 243.395 666.623 242.449L863.946 198.291 879.99 483.305 679.101 514.477 679.101 514.477 673.04 515.42 679.101 514.477 677.634 517.188C671.789 525.114 658.105 530.673 642.157 530.673 626.209 530.673 612.526 525.114 606.681 517.188L605.213 514.477 404.324 483.305 420.366 198.291Z" stroke="#FEFAF6" stroke-width="20.0626" stroke-linecap="round" stroke-linejoin="round" stroke-miterlimit="10" fill="none" fill-rule="evenodd" transform="matrix(1 0 0 1.00041 144.352 409.081)"/><path d="M617.548 245.274 620.562 246.696C626.726 249.077 634.158 250.466 642.157 250.466 650.156 250.466 657.589 249.077 663.752 246.696L666.766 245.274 672.661 495.194 673.137 515.417 679.218 514.477 677.747 517.188C671.882 525.114 658.155 530.673 642.157 530.673 626.16 530.673 612.432 525.114 606.567 517.188L605.096 514.477 611.178 515.417 611.653 495.194Z" stroke="#FF7B63" stroke-width="6.68762" stroke-linecap="round" stroke-linejoin="round" stroke-miterlimit="10" fill="#FF7B63" fill-rule="evenodd" transform="matrix(1 0 0 1.00041 144.352 409.081)"/><path d="M420.366 198.291 404.327 483.375 611.23 515.499 617.647 242.461 420.366 198.291Z" stroke="#FF7B63" stroke-width="6.68762" stroke-linecap="round" stroke-linejoin="round" stroke-miterlimit="10" fill="#FEFAF6" fill-rule="evenodd" transform="matrix(1 0 0 1.00041 144.352 409.081)"/><path d="M16.0391 0 0 285.085 206.904 317.208 213.32 44.168 16.0391 0Z" stroke="#FF7B63" stroke-width="6.68762" stroke-linecap="round" stroke-linejoin="round" stroke-miterlimit="10" fill="#FEFAF6" fill-rule="evenodd" transform="matrix(-1 0 0 1.00041 1024.33 607.453)"/><path d="M864.281 498.048C859.326 491.004 861.311 476.789 873.094 471.574 884.875 466.359 888.146 470.672 897.925 461.947 898.059 474.732 895.69 484.26 886.311 489.775 884.96 504.815 869.239 505.093 864.281 498.048Z" stroke="#FEFAF6" stroke-width="13.375" stroke-linecap="round" stroke-linejoin="round" stroke-miterlimit="10" fill="none" fill-rule="evenodd" transform="matrix(1 0 0 1.00041 144.352 409.081)"/><path d="M864.281 498.048C859.326 491.004 861.311 476.789 873.094 471.574 884.875 466.359 888.146 470.672 897.925 461.947 898.059 474.732 895.69 484.26 886.311 489.775 884.96 504.815 869.239 505.093 864.281 498.048Z" fill="#FF7B63" fill-rule="evenodd" transform="matrix(1 0 0 1.00041 144.352 409.081)"/><path d="M2.53652 36.101C-2.41974 29.0564-0.433906 14.8422 11.348 9.6277 23.1299 4.41318 26.4009 8.72525 36.1803 0.00116728 36.3137 12.7866 33.9441 22.3128 24.5651 27.8282 23.2133 42.8697 7.49278 43.1455 2.53652 36.101Z" stroke="#FEFAF6" stroke-width="13.375" stroke-linecap="round" stroke-linejoin="round" stroke-miterlimit="10" fill="none" fill-rule="evenodd" transform="matrix(-1 0 0 1.00041 566.614 871.219)"/><path d="M2.53652 36.101C-2.41974 29.0564-0.433906 14.8422 11.348 9.6277 23.1299 4.41318 26.4009 8.72525 36.1803 0.00116728 36.3137 12.7866 33.9441 22.3128 24.5651 27.8282 23.2133 42.8697 7.49278 43.1455 2.53652 36.101Z" fill="#FF7B63" fill-rule="evenodd" transform="matrix(-1 0 0 1.00041 566.614 871.219)"/><path d="M420.027 198.145 461.366 207.446 417.593 241.626Z" fill="#FF7B63" fill-rule="evenodd" transform="matrix(1 0 0 1.00041 144.352 409.081)"/><path d="M2.43431 0 0 43.4811 43.7729 9.30028Z" fill="#FF7B63" fill-rule="evenodd" transform="matrix(-1 0 0 1.00041 1010.76 607.307)"/><path d="M560.818 389.666 670.111 280.374C677.423 287.687 689.28 287.687 696.593 280.374L696.593 280.374 700.705 274.18C703.448 267.418 702.076 259.377 696.593 253.893L717.458 233.028C732.18 218.304 756.051 218.304 770.776 233.028L816.998 279.252C831.723 293.976 831.723 317.844 816.998 332.569L796.133 353.434C790.649 347.948 782.607 346.579 775.845 349.319L769.653 353.434 769.653 353.434 769.653 353.434C762.34 360.747 762.34 372.604 769.653 379.914L660.358 489.209C645.636 503.931 621.762 503.931 607.04 489.209L560.818 442.985C546.093 428.262 546.093 404.392 560.818 389.666Z" stroke="#FEFAF6" stroke-width="20.0626" stroke-linecap="round" stroke-linejoin="round" stroke-miterlimit="10" fill="#FF7B63" fill-rule="evenodd" transform="matrix(1 0 0 1.00041 144.352 409.081)"/><path d="M560.818 389.666 562.298 388.19 661.837 487.732 660.361 489.209C645.639 503.931 621.765 503.931 607.042 489.209L560.818 442.985C546.096 428.262 546.096 404.392 560.818 389.666Z" stroke="#FF7B63" stroke-width="6.68762" stroke-linecap="round" stroke-linejoin="round" stroke-miterlimit="10" fill="#FF7B63" fill-rule="evenodd" transform="matrix(1 0 0 1.00041 144.352 409.081)"/><path d="M696.573 253.9 717.441 233.035C732.163 218.311 756.034 218.311 770.759 233.035L816.98 279.259C831.705 293.982 831.705 317.852 816.98 332.578L796.115 353.443C790.632 347.957 782.589 346.588 775.828 349.328L769.635 353.443 760.531 344.341 762.276 341.712C763.44 338.843 762.857 335.435 760.531 333.109 758.205 330.783 754.796 330.202 751.928 331.364L749.302 333.109 738.72 322.527 740.465 319.901C741.627 317.033 741.046 313.624 738.72 311.298 736.394 308.97 732.983 308.389 730.114 309.553L727.488 311.295 716.91 300.717 718.652 298.09C719.816 295.222 719.235 291.811 716.91 289.485 714.581 287.159 711.172 286.577 708.304 287.74L705.677 289.485 696.576 280.382 700.687 274.188C703.43 267.426 702.059 259.385 696.573 253.901Z" stroke="#FF7B63" stroke-width="6.68762" stroke-linecap="round" stroke-linejoin="round" stroke-miterlimit="10" fill="#FF7B63" fill-rule="evenodd" transform="matrix(1 0 0 1.00041 144.352 409.081)"/><path d="M562.277 388.207 670.093 280.392C677.406 287.704 689.263 287.704 696.576 280.392L696.576 280.392 705.677 289.494 705.677 289.495C702.575 292.596 702.575 297.624 705.677 300.726 708.779 303.828 713.808 303.828 716.91 300.726L716.91 300.726 727.488 311.304 727.488 311.307C724.386 314.406 724.386 319.434 727.488 322.536 730.59 325.638 735.618 325.638 738.72 322.536L738.72 322.536 749.302 333.118 749.302 333.118C746.199 336.22 746.199 341.248 749.302 344.35 752.401 347.449 757.429 347.449 760.531 344.35L760.531 344.347 769.635 353.452 769.635 353.452C762.323 360.765 762.323 372.621 769.635 379.931L661.817 487.75Z" stroke="#FF7B63" stroke-width="6.68762" stroke-linecap="round" stroke-linejoin="round" stroke-miterlimit="10" fill="#FEFAF6" fill-rule="evenodd" transform="matrix(1 0 0 1.00041 144.352 409.081)"/><path d="M481.648 358.004 482.692 356.195 558.93 224.149C567.886 229.32 579.337 226.252 584.508 217.295L584.508 217.295 586.878 210.248C587.777 203.006 584.371 195.595 577.656 191.717L592.411 166.162C602.82 148.129 625.879 141.951 643.911 152.362L700.521 185.046C718.555 195.456 724.733 218.514 714.321 236.546L699.567 262.101C692.852 258.223 684.731 258.979 678.909 263.378L673.989 268.954 673.989 268.954 673.989 268.955C668.818 277.911 671.888 289.363 680.844 294.533L604.606 426.581 603.561 428.391C593.149 446.425 570.092 452.603 552.058 442.191L495.448 409.507C477.416 399.095 471.236 376.038 481.648 358.004Z" stroke="#FEFAF6" stroke-width="20.0626" stroke-linecap="round" stroke-linejoin="round" stroke-miterlimit="10" fill="#FF7B63" fill-rule="evenodd" transform="matrix(1 0 0 1.00041 144.352 409.081)"/><path d="M481.648 358.004 482.692 356.195 604.606 426.581 603.561 428.391C593.149 446.425 570.092 452.603 552.058 442.191L495.448 409.507C477.416 399.095 471.236 376.038 481.648 358.004Z" stroke="#FF7B63" stroke-width="6.68762" stroke-linecap="round" stroke-linejoin="round" stroke-miterlimit="10" fill="#FF7B63" fill-rule="evenodd" transform="matrix(1 0 0 1.00041 144.352 409.081)"/><path d="M577.656 191.728 592.411 166.173C602.82 148.141 625.879 141.963 643.911 152.373L700.521 185.057C718.555 195.468 724.733 218.526 714.321 236.557L699.567 262.112C692.852 258.234 684.731 258.991 678.909 263.39L673.989 268.966 662.841 262.529 663.845 259.54C664.227 256.469 662.783 253.326 659.935 251.681 657.084 250.036 653.64 250.357 651.171 252.223L649.085 254.588 636.125 247.106 637.132 244.117C637.514 241.046 636.07 237.903 633.219 236.258 630.371 234.613 626.927 234.934 624.458 236.8L622.372 239.165 609.412 231.683 610.419 228.694C610.798 225.623 609.354 222.48 606.506 220.835 603.657 219.19 600.214 219.511 597.745 221.376L595.659 223.742 584.508 217.305 586.878 210.257C587.777 203.015 584.371 195.604 577.656 191.726Z" stroke="#FF7B63" stroke-width="6.68762" stroke-linecap="round" stroke-linejoin="round" stroke-miterlimit="10" fill="#FF7B63" fill-rule="evenodd" transform="matrix(1 0 0 1.00041 144.352 409.081)"/><path d="M482.698 356.195 558.936 224.149C567.892 229.32 579.343 226.252 584.514 217.295L584.514 217.295 595.664 223.732 595.664 223.732C593.47 227.531 594.772 232.388 598.571 234.581 602.368 236.774 607.226 235.472 609.418 231.674L609.418 231.674 622.378 239.155 622.378 239.155C620.183 242.954 621.485 247.811 625.284 250.004 629.084 252.197 633.94 250.895 636.134 247.097L636.134 247.097 649.091 254.578 649.091 254.578C646.899 258.377 648.198 263.234 651.997 265.427 655.797 267.62 660.653 266.318 662.847 262.52L662.847 262.52 673.995 268.956 673.995 268.957C668.824 277.913 671.893 289.365 680.849 294.533L604.612 426.581Z" stroke="#FF7B63" stroke-width="6.68762" stroke-linecap="round" stroke-linejoin="round" stroke-miterlimit="10" fill="#FEFAF6" fill-rule="evenodd" transform="matrix(1 0 0 1.00041 144.352 409.081)"/></g></g></g><path d="M3215.83 830.794C3205.71 830.794 3197.78 833.484 3192.06 838.866 3186.34 844.247 3183.48 850.781 3183.48 858.469 3183.48 866.157 3186.45 872.637 3192.39 877.908 3198.33 883.18 3206.15 885.816 3215.83 885.816 3225.29 885.816 3232.99 883.18 3238.93 877.908 3244.87 872.637 3247.84 866.157 3247.84 858.469 3247.84 850.781 3244.87 844.247 3238.93 838.866 3232.99 833.484 3225.29 830.794 3215.83 830.794ZM1515.31 827.828C1518.39 827.828 1520.81 828.707 1522.57 830.464 1524.33 832.221 1525.21 834.638 1525.21 837.712L1525.21 861.105C1525.21 864.18 1524.33 866.541 1522.57 868.189 1520.81 869.836 1518.39 870.77 1515.31 870.99L1288.9 875.273C1285.82 875.492 1283.4 874.668 1281.64 872.802 1279.88 870.934 1279 868.463 1279 865.388L1279 838.371C1279 835.297 1279.88 832.88 1281.64 831.123 1283.4 829.366 1285.82 828.487 1288.9 828.487ZM3610.64 822.227C3600.08 822.227 3591.72 825.138 3585.56 830.958 3579.4 836.779 3576.32 843.973 3576.32 852.539 3576.32 861.105 3579.51 868.244 3585.89 873.955 3592.27 879.666 3600.52 882.521 3610.64 882.521 3620.54 882.521 3628.68 879.666 3635.06 873.955 3641.66 868.244 3644.96 861.105 3644.96 852.539 3644.96 843.973 3641.72 836.779 3635.23 830.958 3628.74 825.138 3620.54 822.227 3610.64 822.227ZM3903.14 820.58C3892.58 820.58 3884.27 823.49 3878.22 829.311 3872.17 835.132 3869.15 842.325 3869.15 850.891 3869.15 859.458 3872.28 866.597 3878.55 872.307 3884.82 878.018 3893.02 880.874 3903.14 880.874 3913.04 880.874 3921.07 878.018 3927.23 872.307 3933.61 866.597 3936.8 859.458 3936.8 850.891 3936.8 842.325 3933.67 835.132 3927.4 829.311 3921.13 823.49 3913.04 820.58 3903.14 820.58ZM1607.42 808.39 1777.06 808.39C1782.78 808.39 1787.57 809.982 1791.42 813.167 1795.27 816.352 1797.08 821.349 1796.86 828.158 1796.64 835.187 1796.48 841.721 1796.37 847.761 1796.26 853.802 1796.04 859.787 1795.71 865.718 1795.38 871.648 1794.94 877.579 1794.39 883.51 1793.84 889.44 1793.23 895.7 1792.57 902.29 1792.13 905.365 1791.14 907.781 1789.6 909.538 1788.06 911.295 1785.75 912.174 1782.67 912.174L1749.67 912.174C1746.59 912.174 1744.17 911.295 1742.41 909.538 1740.65 907.781 1739.77 905.365 1739.77 902.29L1739.77 853.857 1607.42 856.163C1601.92 856.163 1599.17 853.418 1599.17 847.926L1599.17 816.626C1599.17 811.135 1601.92 808.39 1607.42 808.39ZM2994.34 796.858C3000.06 796.858 3004.85 798.45 3008.7 801.635 3012.55 804.82 3014.36 809.817 3014.14 816.626 3013.7 830.684 3013.26 845.126 3012.82 859.952 3012.38 874.778 3011.39 888.891 3009.85 902.29 3009.41 905.365 3008.42 907.781 3006.88 909.538 3005.34 911.295 3003.03 912.174 2999.95 912.174L2966.95 912.174C2963.87 912.174 2961.45 911.295 2959.69 909.538 2957.93 907.781 2957.05 905.365 2957.05 902.29L2957.05 844.302 2824.04 847.926C2818.54 847.926 2815.79 845.181 2815.79 839.69L2815.79 808.39C2815.79 802.898 2818.54 800.153 2824.04 800.153ZM3213.85 787.962C3225.51 787.962 3236.23 789.829 3246.03 793.563 3255.82 797.297 3264.18 802.349 3271.11 808.719 3278.04 815.089 3283.43 822.557 3287.28 831.123 3291.13 839.69 3293.06 848.805 3293.06 858.469 3293.06 868.134 3291.08 877.139 3287.12 885.486 3283.38 893.833 3278.04 901.081 3271.11 907.232 3264.18 913.382 3255.82 918.214 3246.03 921.728 3236.23 925.243 3225.51 927 3213.85 927 3201.96 927 3191.13 925.243 3181.34 921.728 3171.55 918.214 3163.13 913.382 3156.09 907.232 3149.05 901.081 3143.6 893.833 3139.75 885.486 3135.9 877.139 3133.98 868.134 3133.98 858.469 3133.98 848.805 3135.9 839.69 3139.75 831.123 3143.6 822.557 3149.05 815.089 3156.09 808.719 3163.13 802.349 3171.55 797.297 3181.34 793.563 3191.13 789.829 3201.96 787.962 3213.85 787.962ZM3608.66 779.396C3620.54 779.396 3631.49 781.373 3641.5 785.326 3651.51 789.28 3660.15 794.552 3667.41 801.141 3674.67 807.73 3680.28 815.473 3684.24 824.369 3688.2 833.265 3690.18 842.655 3690.18 852.539 3690.18 862.423 3688.2 871.648 3684.24 880.215 3680.28 889.001 3674.67 896.579 3667.41 902.948 3660.15 909.318 3651.51 914.37 3641.5 918.104 3631.49 921.838 3620.54 923.705 3608.66 923.705 3596.56 923.705 3585.5 921.838 3575.49 918.104 3565.48 914.37 3556.84 909.318 3549.58 902.948 3542.32 896.579 3536.71 889.055 3532.75 880.379 3528.79 871.703 3526.81 862.423 3526.81 852.539 3526.81 842.655 3528.79 833.265 3532.75 824.369 3536.71 815.473 3542.32 807.73 3549.58 801.141 3556.84 794.552 3565.48 789.28 3575.49 785.326 3585.5 781.373 3596.56 779.396 3608.66 779.396ZM3901.16 777.748C3913.04 777.748 3923.99 779.725 3934 783.679 3944.01 787.632 3952.54 792.904 3959.58 799.494 3966.62 806.083 3972.12 813.826 3976.08 822.721 3980.04 831.617 3982.02 841.007 3982.02 850.891 3982.02 860.776 3980.04 870.001 3976.08 878.567 3972.12 887.353 3966.62 894.931 3959.58 901.301 3952.54 907.671 3944.01 912.723 3934 916.457 3923.99 920.191 3913.04 922.058 3901.16 922.058 3889.06 922.058 3878 920.191 3867.99 916.457 3857.98 912.723 3849.34 907.671 3842.08 901.301 3835.04 894.931 3829.54 887.408 3825.58 878.732 3821.62 870.056 3819.64 860.776 3819.64 850.891 3819.64 841.007 3821.62 831.617 3825.58 822.721 3829.54 813.826 3835.1 806.083 3842.25 799.494 3849.4 792.904 3857.98 787.632 3867.99 783.679 3878 779.725 3889.06 777.748 3901.16 777.748ZM2070.8 772.806C2075.64 772.587 2079.38 773.795 2082.02 776.43 2084.66 779.066 2085.87 782.8 2085.65 787.632L2083.67 845.62C2083.45 850.013 2082.02 853.527 2079.38 856.163 2076.74 858.799 2073.22 860.227 2068.82 860.446L1948.02 861.435 1948.02 875.273 2078.39 876.92C2081.47 876.92 2083.89 877.798 2085.65 879.556 2087.41 881.313 2088.29 883.729 2088.29 886.804L2087.96 902.619C2087.96 905.694 2087.08 908.11 2085.32 909.867 2083.56 911.625 2081.14 912.503 2078.06 912.503L1905.78 913.491C1901.38 913.491 1897.86 912.119 1895.22 909.373 1892.58 906.627 1891.15 903.058 1890.93 898.665L1889.94 844.632C1889.72 840.239 1891.04 836.724 1893.9 834.088 1896.76 831.453 1900.39 830.025 1904.79 829.805L2026.24 827.499 2026.57 812.343 1897.53 814.32C1894.45 814.32 1892.03 813.386 1890.27 811.519 1888.51 809.652 1887.63 807.291 1887.63 804.436L1887.63 784.997C1887.63 778.407 1890.93 775.112 1897.53 775.112ZM3028.01 728.327C3031.09 728.327 3033.51 729.206 3035.27 730.963 3037.03 732.72 3037.91 735.136 3037.91 738.211L3037.91 763.252C3037.91 766.326 3037.03 768.688 3035.27 770.335 3033.51 771.982 3031.09 772.916 3028.01 773.136L2801.6 778.078C2798.52 778.297 2796.1 777.474 2794.33 775.607 2792.57 773.74 2791.69 771.269 2791.69 768.194L2791.69 739.529C2791.69 736.454 2792.57 734.038 2794.33 732.281 2796.1 730.524 2798.52 729.645 2801.6 729.645ZM2601.98 682.86 2556.76 683.519 2558.41 789.28 2601.98 788.95ZM4043.41 631.462 4171.79 631.462C4177.52 631.462 4182.25 633.054 4185.99 636.239 4189.73 639.424 4191.6 644.421 4191.6 651.23L4191.6 657.82C4191.6 674.513 4190.17 691.206 4187.31 707.9 4184.45 724.593 4180.65 740.847 4175.92 756.662 4171.19 772.477 4165.63 787.523 4159.25 801.8 4152.87 816.077 4146.16 829.036 4139.12 840.678 4135.16 847.048 4130.1 848.805 4123.94 845.949L4099.52 835.406C4097.1 834.308 4095.44 832.606 4094.56 830.299 4093.69 827.993 4094.01 825.302 4095.56 822.227 4106.56 800.482 4115.3 777.583 4121.79 753.532 4128.28 729.48 4131.97 706.911 4132.85 685.825L4043.41 685.825C4037.91 685.825 4035.16 683.08 4035.16 677.588L4035.16 639.699C4035.16 634.208 4037.91 631.462 4043.41 631.462ZM2637.62 630.803C2643.78 630.803 2648.62 632.56 2652.14 636.074 2655.66 639.589 2657.31 644.421 2657.09 650.571L2654.45 820.25C2654.23 826.401 2652.42 831.233 2649.01 834.747 2645.6 838.262 2640.81 840.019 2634.65 840.019L2525.74 841.337C2519.57 841.337 2514.73 839.58 2511.21 836.065 2507.69 832.551 2505.93 827.718 2505.93 821.568L2501.64 651.23C2501.42 645.08 2503.13 640.248 2506.76 636.733 2510.39 633.219 2515.28 631.462 2521.44 631.462ZM2307.82 630.144C2311.35 630.144 2314.15 631.187 2316.24 633.274 2318.33 635.361 2319.38 638.161 2319.38 641.676L2319.38 665.398C2319.38 668.912 2318.33 671.713 2316.24 673.799 2314.15 675.886 2311.35 676.929 2307.82 676.929L2251.72 677.588 2252.05 710.865 2299.24 710.206C2302.32 710.206 2304.63 711.195 2306.17 713.171 2307.71 715.148 2308.48 717.455 2308.48 720.09L2308.48 746.448C2308.48 749.743 2307.49 752.214 2305.51 753.861 2303.53 755.509 2300.89 756.332 2297.59 756.332L2252.71 757.321 2253.37 792.904C2264.81 793.343 2275.92 793.289 2286.7 792.74 2297.48 792.19 2308.71 791.037 2320.37 789.28 2323.89 788.841 2326.47 789.06 2328.12 789.939 2329.77 790.818 2330.82 792.794 2331.26 795.869L2336.21 820.25C2336.87 823.765 2336.54 826.346 2335.22 827.993 2333.9 829.64 2331.92 830.904 2329.28 831.782 2322.68 833.759 2315.31 835.571 2307.16 837.218 2299.02 838.866 2290.5 840.184 2281.59 841.172 2272.68 842.161 2263.54 842.874 2254.19 843.314 2244.84 843.753 2235.55 843.863 2226.3 843.643 2211.12 843.204 2203.42 835.626 2203.2 820.909L2199.24 653.866C2199.02 646.178 2201.11 640.413 2205.51 636.569 2209.91 632.725 2215.52 630.803 2222.34 630.803ZM2357.99 627.179 2394.96 627.179C2401.56 627.179 2404.75 630.474 2404.53 637.063L2400.57 867.036C2400.57 873.625 2397.27 876.92 2390.67 876.92L2361.62 876.92C2355.02 876.92 2351.72 873.625 2351.72 867.036L2350.07 759.298 2331.92 759.298C2328.4 759.298 2325.59 758.254 2323.5 756.168 2321.41 754.081 2320.37 751.281 2320.37 747.766L2320.37 719.432C2320.37 715.917 2321.41 713.117 2323.5 711.03 2325.59 708.943 2328.4 707.9 2331.92 707.9L2349.41 707.9 2348.42 637.063C2348.42 630.474 2351.61 627.179 2357.99 627.179ZM1322.24 624.214 1490.23 624.543C1493.75 624.543 1496.55 625.586 1498.64 627.673 1500.73 629.759 1501.78 632.56 1501.78 636.074L1501.78 661.115C1501.78 664.629 1500.73 667.43 1498.64 669.516 1496.55 671.603 1493.75 672.646 1490.23 672.646L1356.56 672.646 1356.56 691.756 1486.93 691.097C1490.01 691.097 1492.32 692.085 1493.86 694.062 1495.4 696.039 1496.17 698.345 1496.17 700.981L1496.17 725.691C1496.17 728.986 1495.18 731.457 1493.2 733.104 1491.22 734.752 1488.58 735.576 1485.28 735.576L1356.56 736.235 1356.56 756.991 1492.87 757.321C1496.39 756.881 1498.97 757.101 1500.62 757.98 1502.27 758.859 1503.32 760.835 1503.76 763.911L1503.76 787.962C1504.86 794.552 1502.55 798.395 1496.83 799.494L1323.89 805.095C1308.48 805.095 1300.78 797.517 1300.78 782.361L1299.13 647.277C1298.91 639.589 1301 633.823 1305.4 629.979 1309.8 626.135 1315.41 624.214 1322.24 624.214ZM4236.15 623.884 4276.42 623.884C4283.02 623.884 4286.21 627.179 4285.99 633.768L4278.73 867.036C4278.73 873.625 4275.43 876.92 4268.83 876.92L4236.48 876.92C4229.88 876.92 4226.58 873.625 4226.58 867.036L4226.58 633.768C4226.58 627.179 4229.77 623.884 4236.15 623.884ZM2696.37 623.884 2736.63 623.884C2743.23 623.884 2746.42 627.179 2746.2 633.768L2743.89 708.888 2771.29 708.559C2774.81 708.559 2777.61 709.602 2779.7 711.689 2781.79 713.775 2782.84 716.576 2782.84 720.09L2782.84 747.107C2782.84 750.622 2781.79 753.422 2779.7 755.509 2777.61 757.596 2774.81 758.639 2771.29 758.639L2742.24 759.298 2738.94 867.036C2738.94 873.625 2735.64 876.92 2729.04 876.92L2696.7 876.92C2690.1 876.92 2686.8 873.625 2686.8 867.036L2686.8 633.768C2686.8 627.179 2689.99 623.884 2696.37 623.884ZM2426.97 623.884 2463.94 623.884C2470.54 623.884 2473.73 627.179 2473.51 633.768L2466.25 867.036C2466.25 873.625 2462.94 876.92 2456.34 876.92L2427.3 876.92C2420.7 876.92 2417.4 873.625 2417.4 867.036L2417.4 633.768C2417.4 627.179 2420.59 623.884 2426.97 623.884ZM1571.11 620.919 1681.68 621.578C1688.5 621.578 1694.06 623.5 1698.35 627.344 1702.64 631.187 1704.67 636.953 1704.45 644.641L1702.8 703.617C1702.58 710.865 1700.6 716.466 1696.86 720.42 1693.12 724.374 1687.4 726.46 1679.7 726.68L1609.4 727.668 1609.4 744.471C1616.66 744.691 1624.42 744.746 1632.67 744.636 1640.92 744.526 1649.28 744.307 1657.75 743.977 1666.22 743.648 1674.58 743.208 1682.83 742.659 1691.09 742.11 1699.06 741.287 1706.76 740.188 1710.28 739.749 1712.76 740.133 1714.19 741.341 1715.62 742.549 1716.55 744.691 1716.99 747.766L1719.63 770.5C1720.29 776.211 1717.65 779.835 1711.71 781.373 1703.79 783.349 1694.61 785.052 1684.15 786.479 1673.7 787.907 1662.7 789.06 1651.15 789.939 1639.6 790.818 1627.66 791.422 1615.34 791.751 1603.02 792.081 1591.03 792.135 1579.37 791.916 1563.96 791.476 1556.26 783.898 1556.26 769.182L1555.27 706.253C1555.27 698.565 1557.36 692.799 1561.54 688.955 1565.72 685.111 1571.22 683.189 1578.05 683.189L1650 682.86 1649.67 666.386 1571.11 666.386C1567.59 666.386 1564.79 665.343 1562.7 663.256 1560.61 661.169 1559.56 658.369 1559.56 654.854L1559.56 632.45C1559.56 628.936 1560.61 626.135 1562.7 624.049 1564.79 621.962 1567.59 620.919 1571.11 620.919ZM3077.21 620.589 3198.99 620.589C3205.82 620.589 3210.93 622.511 3214.34 626.355 3217.75 630.199 3218.69 635.525 3217.15 642.335 3214.73 653.317 3211.1 663.97 3206.26 674.294 3201.42 684.617 3195.47 694.721 3188.43 704.605 3195.03 709.877 3201.96 714.599 3209.23 718.773 3216.49 722.946 3224.3 727.009 3232.66 730.963 3236.18 732.72 3238.21 734.862 3238.76 737.388 3239.31 739.914 3238.49 742.714 3236.29 745.789L3220.45 768.523C3218.25 771.598 3215.88 773.19 3213.35 773.3 3210.82 773.41 3208.24 772.697 3205.6 771.159 3188.43 761.714 3173.25 749.963 3160.05 735.905 3149.93 745.13 3138.93 753.422 3127.05 760.78 3115.16 768.139 3102.51 774.344 3089.09 779.396 3084.69 781.153 3081.06 781.427 3078.2 780.219 3075.34 779.011 3073.03 776.98 3071.27 774.124L3061.7 758.968C3059.94 755.893 3059.66 752.983 3060.87 750.237 3062.08 747.492 3064.56 745.13 3068.3 743.153 3086.78 733.489 3102.68 722.671 3115.99 710.7 3129.3 698.73 3139.37 684.946 3146.19 669.352L3077.21 669.352C3073.25 669.352 3070.06 668.143 3067.64 665.727 3065.22 663.311 3064.01 660.126 3064.01 656.173L3064.01 633.768C3064.01 629.815 3065.22 626.63 3067.64 624.214 3070.06 621.797 3073.25 620.589 3077.21 620.589ZM2819.09 619.271 2998.63 619.271C3004.35 619.271 3009.08 620.864 3012.82 624.049 3016.56 627.234 3018.43 632.231 3018.43 639.04L3018.43 642.335C3018.43 653.537 3017.39 665.123 3015.3 677.094 3013.21 689.065 3010.4 699.992 3006.88 709.877 3005.78 712.732 3004.41 715.039 3002.76 716.795 3001.11 718.553 2998.52 719.322 2995 719.102L2967.61 718.114C2961.45 717.894 2958.81 713.94 2959.69 706.253 2960.35 700.102 2960.84 693.403 2961.17 686.154 2961.5 678.906 2961.45 672.536 2961.01 667.045L2819.09 667.045C2813.59 667.045 2810.84 664.299 2810.84 658.808L2810.84 627.508C2810.84 622.017 2813.59 619.271 2819.09 619.271ZM3496.12 618.942 3529.45 618.942C3533.85 618.942 3537.21 620.315 3539.52 623.06 3541.83 625.806 3542.76 629.375 3542.32 633.768 3541.66 643.213 3540.4 652.823 3538.53 662.597 3536.66 672.372 3533.96 682.201 3530.44 692.085 3538.36 699.773 3546.34 706.417 3554.37 712.018 3562.4 717.619 3570.27 722.616 3577.97 727.009 3583.91 730.304 3585.45 734.697 3582.59 740.188L3560.47 766.546C3556.73 770.5 3551.89 770.61 3545.95 766.876 3532.31 758.529 3519.55 748.096 3507.67 735.576 3496.45 751.83 3482.25 765.777 3465.09 777.419 3461.79 779.615 3458.77 780.439 3456.02 779.89 3453.26 779.341 3450.9 777.968 3448.92 775.771L3432.09 758.639C3428.13 754.246 3428.9 749.523 3434.4 744.471 3450.24 729.316 3462.12 712.732 3470.04 694.721 3477.96 676.71 3482.25 656.392 3482.91 633.768 3483.13 628.716 3484.45 624.982 3486.87 622.566 3489.29 620.15 3492.38 618.942 3496.12 618.942ZM3811.72 615.647 3847.03 615.647C3851.43 615.647 3854.73 617.02 3856.93 619.766 3859.13 622.511 3860.12 626.081 3859.9 630.474 3859.02 650.022 3854.29 669.571 3845.71 689.12 3856.05 697.467 3866.56 704.385 3877.23 709.877 3887.9 715.368 3898.85 719.981 3910.07 723.715 3913.37 724.813 3915.3 726.68 3915.85 729.316 3916.4 731.951 3916.01 734.477 3914.69 736.894L3899.18 766.546C3897.86 769.182 3895.88 770.719 3893.24 771.159 3890.6 771.598 3887.74 771.269 3884.66 770.17 3873 765.997 3861.94 760.725 3851.49 754.356 3841.04 747.986 3830.97 739.859 3821.29 729.974 3813.81 739.2 3805.5 747.821 3796.37 755.838 3787.24 763.855 3777.06 771.049 3765.84 777.419 3762.54 779.396 3759.52 780.164 3756.77 779.725 3754.02 779.286 3751.65 777.968 3749.67 775.771L3732.84 758.639C3731.08 756.662 3730.36 754.356 3730.69 751.72 3731.02 749.084 3732.51 746.668 3735.15 744.471 3776.07 712.842 3797.2 674.843 3798.52 630.474 3798.74 625.422 3800.06 621.688 3802.48 619.271 3804.9 616.855 3807.98 615.647 3811.72 615.647ZM3946.71 614 3986.97 614C3993.57 614 3996.76 617.295 3996.54 623.884L3993.24 766.546C3992.8 773.136 3989.5 776.43 3983.34 776.43L3949.02 776.43C3942.42 776.43 3939.11 773.136 3939.11 766.546L3938.12 703.617 3888.62 703.617C3885.1 703.617 3882.29 702.573 3880.2 700.487 3878.11 698.4 3877.07 695.599 3877.07 692.085L3877.07 664.739C3877.07 661.225 3878.11 658.424 3880.2 656.337 3882.29 654.251 3885.1 653.207 3888.62 653.207L3937.46 653.207 3937.13 623.884C3937.13 617.295 3940.32 614 3946.71 614ZM3669.72 614 3705.03 614C3711.63 614 3714.82 617.295 3714.6 623.884L3707.34 779.725C3707.34 786.315 3704.04 789.609 3697.44 789.609L3670.05 789.609C3663.45 789.609 3660.15 786.315 3660.15 779.725L3660.15 720.42 3639.35 720.42 3638.03 763.252C3638.03 769.841 3634.73 773.136 3628.13 773.136L3600.74 773.136C3594.14 773.136 3590.84 769.841 3590.84 763.252L3587.54 627.179C3587.54 620.589 3590.73 617.295 3597.11 617.295L3632.42 617.295C3639.02 617.295 3642.21 620.589 3641.99 627.179L3640.67 674.294 3660.15 674.294 3660.15 623.884C3660.15 617.295 3663.34 614 3669.72 614ZM3256.09 614 3296.36 614C3302.96 614 3306.15 617.295 3305.93 623.884L3304.61 675.611 3331.67 675.611C3335.19 675.611 3338 676.655 3340.09 678.741 3342.18 680.828 3343.22 683.629 3343.22 687.143L3343.22 714.16C3343.22 717.674 3342.18 720.475 3340.09 722.561 3338 724.648 3335.19 725.691 3331.67 725.691L3303.62 725.691 3302.63 773.136C3302.19 779.725 3298.89 783.02 3292.73 783.02L3258.4 783.02C3251.8 783.02 3248.5 779.725 3248.5 773.136L3246.52 623.884C3246.52 617.295 3249.71 614 3256.09 614ZM2042.09 614 2082.35 614C2088.95 614 2092.14 617.295 2091.92 623.884L2088.62 753.367C2088.18 759.957 2084.88 763.252 2078.72 763.252L2044.4 763.252C2037.8 763.252 2034.49 759.957 2034.49 753.367L2033.83 713.501 1987.3 713.501 1985.32 713.501C1981.14 727.559 1975.75 741.287 1969.15 754.685 1967.61 757.76 1965.57 759.902 1963.04 761.11 1960.51 762.318 1957.7 762.373 1954.62 761.274L1929.21 752.708C1926.79 752.049 1925.03 750.676 1923.93 748.59 1922.83 746.503 1922.94 743.593 1924.26 739.859 1925.14 737.223 1925.97 734.642 1926.74 732.116 1927.51 729.59 1928.22 727.119 1928.88 724.703L1858.25 729.645C1851.43 730.084 1847.8 726.79 1847.36 719.761L1846.37 694.721C1846.15 692.085 1846.87 689.834 1848.52 687.967 1850.17 686.1 1852.53 685.056 1855.61 684.837L1937.46 681.871 1938.45 664.739 1850 665.398C1844.5 665.398 1841.75 662.652 1841.75 657.161L1841.75 627.508C1841.75 622.017 1844.5 619.271 1850 619.271L1975.09 619.271C1980.81 619.271 1985.54 620.864 1989.28 624.049 1993.02 627.234 1994.89 632.231 1994.89 639.04L1994.89 645.629C1994.89 652.219 1994.67 658.588 1994.23 664.739L2033.17 664.739 2032.51 623.884C2032.51 617.295 2035.7 614 2042.09 614ZM1753.3 614 1793.56 614C1800.16 614 1803.35 617.295 1803.14 623.884L1799.83 786.315C1799.39 792.904 1796.09 796.199 1789.93 796.199L1755.61 796.199C1749.01 796.199 1745.71 792.904 1745.71 786.315L1743.73 623.884C1743.73 617.295 1746.92 614 1753.3 614Z" fill="#582A22" fill-rule="evenodd"/></g></svg>